<svg preserveAspectRatio="none" width="100%" height="100%" overflow="visible" style="display: block;" viewBox="0 0 145.093 18.5577" fill="none" xmlns="http://www.w3.org/2000/svg">
<g id="Group">
<path id="Vector" d="M0 18.0474V0.735222H8.6154V2.2143H1.58144V7.62893H8.6154V9.10801H1.58144V16.5683H8.6154V18.0474H0Z" fill="var(--fill-0, #553CC8)"/>
<path id="Vector_2" d="M14.0722 18.0474H12.3387L17.6478 8.93935L12.847 0.730896H14.6283L18.5472 7.60299L22.5051 0.730896H24.2169L19.4161 8.89178L24.7035 18.0474H22.9439L18.5255 10.3709L14.0722 18.0474Z" fill="var(--fill-0, #553CC8)"/>
<path id="Vector_3" d="M28.8788 18.0474V0.735222H32.0504C33.3016 0.735222 34.2227 0.804415 34.8136 0.934159C35.4044 1.06823 35.9171 1.28879 36.3516 1.59585C36.899 1.98941 37.3204 2.53001 37.6245 3.21765C37.9243 3.90529 38.0764 4.66645 38.0764 5.50114C38.0764 7.14888 37.6115 8.3555 36.6861 9.12532C35.7607 9.89513 34.2922 10.28 32.2893 10.28H30.4603V18.0517H28.8788V18.0474ZM30.4603 8.8961H31.5421C33.458 8.8961 34.7484 8.65391 35.4088 8.16953C36.0692 7.68516 36.3994 6.83317 36.3994 5.62223C36.3994 5.11191 36.3255 4.64051 36.1734 4.20803C36.0214 3.77555 35.7955 3.39496 35.4957 3.0533C35.1872 2.70732 34.7658 2.46081 34.2357 2.31809C33.7057 2.17537 32.8064 2.10618 31.5377 2.10618H30.4559V8.8961H30.4603Z" fill="var(--fill-0, #553CC8)"/>
<path id="Vector_4" d="M43.3594 18.0474V0.735222H51.9748V2.2143H44.9408V7.62893H51.9748V9.10801H44.9408V16.5683H51.9748V18.0474H43.3594Z" fill="var(--fill-0, #553CC8)"/>
<path id="Vector_5" d="M68.7194 18.0474H66.7948L60.6862 9.79133H59.7348V18.0474H58.1533V0.735222H61.351C63.2365 0.735222 64.6485 1.12445 65.587 1.90724C66.5254 2.69002 66.9946 3.87069 66.9946 5.45357C66.9946 6.8029 66.5906 7.86247 65.7868 8.63661C64.9831 9.41075 63.8752 9.79566 62.4675 9.79566L68.7151 18.0517L68.7194 18.0474ZM59.7348 2.10618V8.50255H61.3249C62.7977 8.50255 63.8274 8.269 64.4096 7.7976C64.9918 7.33052 65.2828 6.53044 65.2828 5.40167C65.2828 4.21235 64.9831 3.36469 64.3792 2.85869C63.7753 2.35269 62.7586 2.10185 61.3249 2.10185H59.7348V2.10618Z" fill="var(--fill-0, #553CC8)"/>
<path id="Vector_6" d="M73.3115 18.0474V0.735222H74.893V18.0474H73.3115Z" fill="var(--fill-0, #553CC8)"/>
<path id="Vector_7" d="M81.5361 18.0474V0.735222H90.1515V2.2143H83.1176V7.62893H90.1515V9.10801H83.1176V16.5683H90.1515V18.0474H81.5361Z" fill="var(--fill-0, #553CC8)"/>
<path id="Vector_8" d="M96.333 18.0474V0L108.654 14.4881V0.73522H110.127V18.5577L97.8189 4.04801V18.0517H96.333V18.0474Z" fill="var(--fill-0, #553CC8)"/>
<path id="Vector_9" d="M130.748 3.9053C129.883 3.16576 129.001 2.61652 128.097 2.26188C127.194 1.90725 126.242 1.72993 125.247 1.72993C122.997 1.72993 121.172 2.43919 119.764 3.85773C118.357 5.27626 117.657 7.12727 117.657 9.40211C117.657 10.5439 117.831 11.5732 118.174 12.49C118.518 13.4025 119.043 14.2156 119.747 14.9249C120.442 15.6168 121.242 16.1488 122.141 16.5077C123.04 16.871 124.005 17.0527 125.034 17.0527C126.064 17.0527 127.007 16.884 127.958 16.5423C128.91 16.205 129.809 15.7033 130.656 15.0416V16.8883C129.801 17.4073 128.897 17.8095 127.941 18.0906C126.985 18.3717 126.042 18.5101 125.108 18.5101C123.848 18.5101 122.645 18.2852 121.498 17.8355C120.351 17.3857 119.365 16.7543 118.539 15.9412C117.692 15.1065 117.049 14.1378 116.615 13.0306C116.18 11.9278 115.963 10.7168 115.963 9.40211C115.963 8.08738 116.184 6.90238 116.632 5.78226C117.079 4.66214 117.722 3.69771 118.561 2.88465C119.378 2.08889 120.36 1.46612 121.511 1.01634C122.662 0.566563 123.861 0.341675 125.104 0.341675C126.212 0.341675 127.242 0.493044 128.189 0.795779C129.136 1.09851 129.996 1.55261 130.774 2.16241L130.752 3.90098L130.748 3.9053Z" fill="var(--fill-0, #553CC8)"/>
<path id="Vector_10" d="M136.482 18.0474V0.735222H145.093V2.2143H138.06V7.62893H145.093V9.10801H138.06V16.5683H145.093V18.0474H136.482Z" fill="var(--fill-0, #553CC8)"/>
</g>
</svg>
