<svg preserveAspectRatio="none" width="100%" height="100%" overflow="visible" style="display: block;" viewBox="0 0 23.4375 23.4375" fill="none" xmlns="http://www.w3.org/2000/svg">
<path id="Vector" d="M11.7188 23.4375C5.25703 23.4375 0 18.1805 0 11.7188C0 5.25703 5.25703 0 11.7188 0C18.1805 0 23.4375 5.25703 23.4375 11.7188C23.4375 18.1805 18.1805 23.4375 11.7188 23.4375ZM15.6703 6.96422C15.1912 6.96422 14.8031 7.35234 14.8031 7.83141C14.8031 8.31047 15.1912 8.69859 15.6703 8.69859C16.1494 8.69859 16.5375 8.31047 16.5375 7.83141C16.5375 7.35234 16.1494 6.96422 15.6703 6.96422ZM11.8148 8.07609C9.80625 8.07609 8.17219 9.71016 8.17219 11.7188C8.17219 13.7273 9.80625 15.3614 11.8148 15.3614C13.8234 15.3614 15.4575 13.7273 15.4575 11.7188C15.4575 9.71016 13.8234 8.07609 11.8148 8.07609ZM11.8148 14.0522C10.5281 14.0522 9.48141 13.0055 9.48141 11.7188C9.48141 10.432 10.5281 9.38531 11.8148 9.38531C13.1016 9.38531 14.1483 10.432 14.1483 11.7188C14.1483 13.0055 13.1016 14.0522 11.8148 14.0522ZM19.1648 8.69156C19.1648 6.23766 17.1755 4.24875 14.7216 4.24875H8.8575C6.40359 4.24875 4.41422 6.23766 4.41422 8.69156V14.5561C4.41422 17.01 6.40359 18.9989 8.8575 18.9989H14.7216C17.1755 18.9989 19.1648 17.01 19.1648 14.5561V8.69156ZM17.7736 14.5561C17.7736 16.2412 16.4072 17.6077 14.722 17.6077H8.85797C7.17281 17.6077 5.80641 16.2417 5.80641 14.5561V8.69156C5.80641 7.00641 7.17281 5.64 8.85797 5.64H14.722C16.4072 5.64 17.7736 7.00594 17.7736 8.69156V14.5561Z" fill="#553cc8"/>
</svg>
