<svg preserveAspectRatio="none" width="100%" height="100%" overflow="visible" style="display: block;" viewBox="0 0 11.668 5.97762" fill="none" xmlns="http://www.w3.org/2000/svg">
<path id="Vector" d="M11.4257 0.246498C11.3482 0.168391 11.256 0.106396 11.1545 0.0640888C11.0529 0.0217816 10.944 0 10.834 0C10.724 0 10.6151 0.0217816 10.5135 0.0640888C10.412 0.106396 10.3198 0.168391 10.2423 0.246498L6.42566 4.06316C6.34819 4.14126 6.25602 4.20326 6.15447 4.24557C6.05293 4.28787 5.944 4.30966 5.83399 4.30966C5.72398 4.30966 5.61506 4.28787 5.51351 4.24557C5.41196 4.20326 5.3198 4.14126 5.24233 4.06316L1.42566 0.246498C1.34819 0.168391 1.25602 0.106396 1.15447 0.0640888C1.05293 0.0217816 0.944004 0 0.833994 0C0.723984 0 0.615062 0.0217816 0.513513 0.0640888C0.411964 0.106396 0.319796 0.168391 0.242327 0.246498C0.0871179 0.402633 0 0.613843 0 0.833997C0 1.05415 0.0871179 1.26536 0.242327 1.4215L4.06733 5.24649C4.53608 5.71466 5.17149 5.97762 5.83399 5.97762C6.4965 5.97762 7.13191 5.71466 7.60066 5.24649L11.4257 1.4215C11.5809 1.26536 11.668 1.05415 11.668 0.833997C11.668 0.613843 11.5809 0.402633 11.4257 0.246498V0.246498Z" fill="#553cc8"/>
</svg>
