<svg preserveAspectRatio="none" width="100%" height="100%" overflow="visible" style="display: block;" viewBox="0 0 6.52594 14.0484" fill="none" xmlns="http://www.w3.org/2000/svg">
<path id="Vector" fill-rule="evenodd" clip-rule="evenodd" d="M1.43813 7.07953V13.8717C1.43813 13.9692 1.51734 14.0484 1.61484 14.0484H4.13719C4.23469 14.0484 4.31391 13.9692 4.31391 13.8717V6.96891H6.1425C6.23437 6.96891 6.31078 6.89859 6.31875 6.80672L6.49453 4.72687C6.50344 4.62375 6.42187 4.53516 6.31828 4.53516H4.31391V3.05953C4.31391 2.71359 4.59422 2.43328 4.94016 2.43328H6.34922C6.44672 2.43328 6.52594 2.35406 6.52594 2.25656V0.176719C6.52594 0.0792186 6.44672 0 6.34922 0H3.96797C2.57062 0 1.43766 1.13297 1.43766 2.53031V4.53516H0.176719C0.0792189 4.53516 0 4.61437 0 4.71187V6.79172C0 6.88922 0.0792189 6.96844 0.176719 6.96844H1.43766V7.07906L1.43813 7.07953Z" fill="#553cc8"/>
</svg>
