<svg width="227" height="263" viewBox="0 0 227 263" fill="none" xmlns="http://www.w3.org/2000/svg">
<g clip-path="url(#clip0_35_2113)">
<path d="M163.977 41.5959C163.977 41.5959 181.122 27.2589 173.604 0C181.607 5.32517 197.391 24.9315 173.66 50.3843C170.003 45.6363 163.977 41.5773 163.977 41.5773" fill="#C32427"/>
<path d="M171.85 163.553C171.906 152.94 166.271 147.932 152.279 147.522C161.066 139.888 197.783 104.623 176.421 63.6041C156.626 35.1536 104.311 24.2239 104.311 24.2239C104.311 24.2239 32.4818 54.0709 34.1982 91.6264C35.9147 129.182 63.6017 149.98 77.7251 154.784C78.3221 154.988 78.9751 155.175 79.6841 155.342C79.6841 155.342 57.986 153.909 57.3516 169.903C56.8665 182.378 70.6354 184.407 78.3408 183.923C77.7811 196.324 77.4266 209.022 77.6318 218.63C78.1915 245.74 81.7737 257.098 87.1655 260.375C92.5574 263.652 100.729 265.03 101.867 257.116C102.408 253.262 102.296 248.7 102.035 245.014C106.476 246.503 112.8 247.564 121.084 246.466C129.442 245.367 136.513 242.463 141.719 239.651C141.681 245.609 142.129 253.411 144.443 256.874C148.435 262.87 161.719 256.651 162.353 246.094C163.006 235.536 160.861 204.442 157.484 182.471C157.148 180.292 156.794 178.095 156.439 175.917C160.973 175.358 171.794 173.031 171.831 163.553" fill="#EDB5BB"/>
<path d="M152.67 183.625C152.67 183.625 158.79 216.042 158.864 234.698C158.939 253.355 154.76 254.193 150.954 254.044C147.148 253.895 145.133 253.169 145.133 253.169C145.133 253.169 151.663 247.993 152.465 228.591C153.267 209.19 152.67 183.625 152.67 183.625Z" fill="#FFFDFA"/>
<path d="M63.0791 94.9406C63.0791 94.9406 86.9041 92.7808 108.546 91.1422C130.188 89.5037 154.181 86.748 154.181 86.748C154.181 86.748 157.708 111.028 142.857 137.207C128.006 163.386 103.042 165.006 86.8855 146.535C73.3218 131.044 62.706 109.129 63.0978 94.922" fill="#C32427"/>
<path d="M140.768 101.215C148.361 100.489 148.883 91.7754 148.66 87.3812C144.331 87.8467 137.838 88.5356 130.432 89.2432C131.085 94.978 133.249 101.904 140.768 101.197" fill="#E9E9B4"/>
<path d="M81.9417 105.796C89.2552 104.288 89.2552 96.0579 88.9381 92.725C81.6059 93.3394 75.0013 93.898 70.3184 94.3076C70.6542 100.582 73.5087 107.546 81.9417 105.796Z" fill="#E9E9B4"/>
<path d="M128.137 139.05C124.312 143.221 127.894 149.496 129.965 152.419C133.659 149.645 137.167 145.939 140.301 141.303C137.353 138.808 131.756 135.084 128.137 139.05Z" fill="#E9E9B4"/>
<path d="M99.0875 141.992C94.6098 138.678 89.4978 142.886 86.5127 146.181C86.6246 146.312 86.7366 146.442 86.8485 146.572C90.524 150.762 94.6472 153.927 99.0129 155.994C101.233 151.097 102.931 144.841 99.0875 141.992Z" fill="#E9E9B4"/>
<path d="M62.9678 72.9324C62.8372 74.4778 61.4753 75.6508 59.9081 75.5205C58.3409 75.3902 57.1841 74.0309 57.3147 72.4669C57.4453 70.9029 58.8073 69.7485 60.3745 69.8788C61.9417 70.0091 63.0984 71.3684 62.9678 72.9324Z" fill="#421813"/>
<path d="M154.723 65.224C154.592 66.7694 153.23 67.9425 151.663 67.8121C150.096 67.6818 148.939 66.3226 149.07 64.7585C149.2 63.1945 150.562 62.0401 152.129 62.1704C153.697 62.3008 154.853 63.66 154.723 65.224Z" fill="#421813"/>
<path d="M168.529 62.4497C168.529 62.4497 160.096 48.5782 138.566 39.436C117.036 30.2752 104.293 28.5995 104.293 28.5995L108.211 36.2893C108.211 36.2893 123.193 37.3693 143.081 47.4796C162.969 57.59 166.01 60.6622 168.529 62.4497Z" fill="#FFFDFA"/>
<path d="M146.999 155.137L147.484 149.384C147.484 149.384 161.757 146.815 169.667 159.122C160.208 153.853 151.327 154.207 147.018 155.137" fill="#FFFDFA"/>
<path d="M36.6237 67.9238L31.2318 80.1568C31.2318 80.1568 -4.98149 65.224 12.2203 32.9751C15.4293 58.67 33.0602 67.1046 36.6237 67.9238Z" fill="#C32427"/>
<path d="M21.9598 97.7523C21.9598 97.7523 -0.932365 103.506 0.0378003 118.699C0.989308 133.893 15.691 129.647 19.1239 127.301C22.5568 124.955 24.0867 118.569 20.8404 113.821C17.5941 109.073 17.5754 104.437 21.9785 97.7336" fill="#C32427"/>
<path d="M195.749 75.6322C195.749 75.6322 202.577 63.511 214.164 64.2557C225.75 65.0005 228.268 77.7176 226.496 82.9311C224.723 88.1445 217.354 96.4674 212.186 86.8784C207.018 77.2894 205.227 74.7944 195.749 75.6322Z" fill="#C32427"/>
<path d="M191.029 86.4688C191.029 86.4688 208.007 84.3089 208.809 96.2068C209.612 108.123 200.544 109.389 196.589 107.155C192.634 104.921 193.902 100.34 195.526 97.0074C197.149 93.6745 192.41 88.8148 191.029 86.4502" fill="#C32427"/>
</g>
<defs>
<clipPath id="clip0_35_2113">
<rect width="227" height="263" fill="white"/>
</clipPath>
</defs>
</svg>
