<svg width="169" height="274" viewBox="0 0 169 274" fill="none" xmlns="http://www.w3.org/2000/svg">
<g clip-path="url(#clip0_35_2130)">
<path d="M144.694 70.6223C144.694 70.6223 162.654 63.5481 163.931 39.1571C169.04 45.6932 176.603 66.0589 150.222 80.4663C148.526 75.5842 144.694 70.6223 144.694 70.6223Z" fill="#535655"/>
<path d="M33.2651 59.3235L25.5026 67.8923C25.5026 67.8923 -0.0799017 45.773 22.8286 24.0323C18.4385 45.9523 30.5712 57.6895 33.2651 59.3036" fill="#535655"/>
<path d="M161.357 156.628C160.599 146.505 152.737 139.451 140.963 137.817C141.043 136.223 141.083 134.629 141.023 133.015C140.804 124.745 138.848 116.933 135.535 109.919C143.138 105.495 148.127 97.1853 147.868 87.7796C147.489 74.0896 136.054 63.289 122.345 63.6676C112.168 63.9466 103.607 70.3034 100.015 79.1312C94.1285 77.3178 87.8426 76.4211 81.3373 76.6004C79.5213 76.6602 77.7453 76.7798 75.9893 76.999C74.6124 64.2655 63.657 54.5011 50.6064 54.8598C36.8972 55.2384 26.0815 66.6567 26.4607 80.3468C26.6802 88.2978 30.6313 95.2723 36.5779 99.6364C31.2898 106.631 27.5382 114.861 25.862 123.808C24.1858 123.589 22.5894 123.469 21.392 123.489C17.1017 123.629 0.0799711 126.379 0.000150555 143.755C-0.0397597 153.4 7.86247 158.262 14.9066 160.674C11.9134 169.96 7.66292 185.244 4.03109 206.247C-2.35456 243.133 0.399253 250.446 3.05329 253.794C5.72727 257.142 19.6759 266.707 28.3763 262.482C36.3983 258.596 36.7974 249.629 36.518 245.564C42.5844 248.792 51.3048 251.801 63.657 253.136C78.2243 254.71 90.6364 253.933 99.9155 252.598C99.3368 254.491 98.3989 259.254 98.6783 261.605C99.4366 268.121 101.711 273.861 109.115 273.94C116.518 274.02 121.986 274.379 128.092 269.935C134.198 265.491 138.15 254.292 138.788 246.301C139.407 238.629 144.116 199.034 142.4 175.32C153.375 173.009 162.275 168.485 161.377 156.608" fill="#78B843"/>
<path d="M15.9637 177.412C15.9637 177.412 6.44509 211.408 4.62917 231.296C2.81325 251.183 7.18342 252.459 11.2543 252.658C15.3251 252.857 17.5401 252.259 17.5401 252.259C17.5401 252.259 11.0747 246.142 12.0126 225.377C12.9505 204.613 15.9637 177.412 15.9637 177.412Z" fill="#FFFDFA"/>
<path d="M6.86503 138.674L3.47266 135.326C3.47266 135.326 9.43924 124.944 21.4323 126.498C13.0711 129.667 8.56121 135.466 6.86503 138.694" fill="#FFFDFA"/>
<path d="M37.0767 106.611C37.0767 106.611 62.4197 110.138 85.3482 113.685C108.277 117.232 133.959 120.181 133.959 120.181C133.959 120.181 131.724 146.346 109.873 170.019C88.0221 193.693 61.6415 189.329 49.2892 166.154C38.9325 146.724 33.2054 121.297 37.0767 106.591" fill="#066635"/>
<path d="M116.479 131.978C124.56 133.074 127.234 124.107 128.072 119.484C123.463 118.926 116.518 118.069 108.636 117.013C107.918 123.151 108.496 130.902 116.498 131.978" fill="#E9E9B4"/>
<path d="M54.0787 122.493C62.0608 122.692 64.0563 114.124 64.5552 110.557C56.7727 109.421 49.7485 108.404 44.7597 107.687C43.5823 114.303 44.8595 122.254 54.0787 122.473" fill="#E9E9B4"/>
<path d="M94.1087 168.365C89.1199 171.793 91.315 179.206 92.7717 182.753C97.3015 180.76 101.851 177.751 106.241 173.686C103.787 170.358 98.858 165.117 94.1087 168.385" fill="#E9E9B4"/>
<path d="M63.1376 164.36C59.2663 159.817 52.9205 162.965 49.0293 165.675C49.1091 165.835 49.2089 166.014 49.2887 166.173C52.0824 171.434 55.6145 175.739 59.6654 178.947C63.1775 174.364 66.4701 168.266 63.1575 164.38" fill="#E9E9B4"/>
<path d="M64.9736 75.7636C65.2131 84.3721 58.4084 91.5659 49.7878 91.805C41.1472 92.0441 33.9634 85.2489 33.7239 76.6404C33.4844 68.0318 40.2891 60.838 48.9098 60.5989C57.5304 60.3598 64.7342 67.155 64.9736 75.7636Z" fill="#FEFEFA"/>
<path d="M47.1336 72.595C47.1935 75.0261 45.2977 77.0388 42.8632 77.1185C40.4287 77.1783 38.4132 75.2653 38.3334 72.8541C38.2735 70.4229 40.1892 68.4103 42.6038 68.3505C45.0383 68.2907 47.0538 70.1838 47.1336 72.6149" fill="#2D2967"/>
<path d="M142.36 85.0297C142.6 93.6382 135.795 100.832 127.175 101.071C118.534 101.31 111.35 94.515 111.111 85.9065C110.871 77.2979 117.676 70.1041 126.296 69.865C134.917 69.6259 142.121 76.4211 142.36 85.0297Z" fill="#FEFEFA"/>
<path d="M137.271 79.5098C137.331 81.9409 135.435 83.9536 133.001 84.0333C130.566 84.0931 128.551 82.1801 128.471 79.7689C128.411 77.3377 130.327 75.3251 132.741 75.2653C135.176 75.2055 137.191 77.0986 137.271 79.5297" fill="#2D2967"/>
<path d="M162.594 121.497C162.654 123.908 160.758 125.92 158.324 126C155.909 126.06 153.894 124.167 153.814 121.756C153.754 119.344 155.65 117.332 158.084 117.252C160.499 117.192 162.514 119.085 162.594 121.517" fill="#D8E085"/>
<path d="M62.8389 46.7294C62.8389 46.7294 56.154 46.5501 55.7349 40.253C55.3158 33.956 62.5396 31.6843 62.2802 26.7224C62.0208 21.7605 60.4443 21.5613 57.3513 19.708C54.2582 17.8548 48.7706 18.7316 48.2717 14.8657C47.7728 10.9998 53.1806 11.9364 54.2582 10.2027C55.3358 8.48897 62.2602 0.0398073 63.7169 -4.72485e-05C65.1737 -0.0399018 65.2535 2.63035 63.8367 4.36403C62.4199 6.0977 59.6461 10.7806 57.6107 12.056C55.5753 13.3313 53.7992 14.4672 54.0387 14.9454C54.2981 15.4237 65.912 18.3729 66.0717 24.0721C66.351 33.8962 57.3912 34.2549 57.6905 38.9777C57.9898 43.7005 61.3024 44.7566 63.0185 44.8562C64.7147 44.9559 64.5351 46.9885 62.819 46.7095" fill="#D0D78A"/>
<path d="M81.6569 36.0086C81.6569 36.0086 72.258 32.4217 75.391 27.5794C78.5239 22.7371 84.8297 26.9019 90.5369 25.0686C96.2441 23.2352 95.8051 16.5795 94.1687 14.7064C92.5324 12.8332 87.9827 8.94739 89.4194 6.49634C90.8562 4.04528 91.7542 3.50725 92.9914 3.04892C94.2286 2.59059 94.2685 0.757284 91.8539 1.25547C89.4394 1.73372 84.3109 2.47103 84.0714 6.47641C83.832 10.4818 90.1977 13.8096 89.9183 16.1611C89.6589 18.5125 87.2842 20.2462 86.7055 20.9237C86.1468 21.6012 84.3907 21.9001 81.6369 21.9798C78.8831 22.0595 72.1782 21.661 71.8589 28.0975C71.5396 34.534 76.3488 36.5666 78.4641 37.1843C80.5793 37.8021 82.5549 36.9054 81.617 36.0086" fill="#D0D78A"/>
<path d="M117.955 55.5971C117.955 55.5971 113.545 52.887 116.439 48.8816C119.332 44.8763 121.826 47.2277 127.853 44.8165C133.879 42.4053 137.292 38.7187 133.979 33.9561C130.667 29.2134 126.735 25.9852 131.584 26.1048C136.434 26.2243 142.839 24.8693 145.513 22.4581C148.207 20.0469 151.4 14.6267 147.608 10.6412C143.817 6.65575 142.081 7.29342 140.943 8.15029C139.806 9.00717 140.445 10.9202 141.981 12.3749C143.518 13.8296 143.917 16.3404 143.198 17.6955C142.5 19.0505 139.227 22.1392 135.895 22.3186C132.562 22.4979 130.148 22.8965 128.232 22.8566C126.316 22.8367 121.447 22.1193 125.019 27.3602C128.591 32.6011 130.267 36.0684 129.33 37.8419C128.372 39.6155 127.354 41.7277 122.285 42.8835C117.217 44.0194 110.851 46.5302 111.649 51.3526C112.448 56.175 115.141 57.0917 116.079 57.2312C116.997 57.3707 118.733 56.733 117.955 55.5971Z" fill="#D0D78A"/>
<path d="M111.37 259.373C111.609 258.815 111.949 258.337 112.368 257.939C112.787 257.54 113.266 257.221 113.824 256.982C114.383 256.743 114.962 256.643 115.6 256.643C116.239 256.643 116.818 256.763 117.356 256.982C117.915 257.221 118.394 257.54 118.793 257.939C119.212 258.337 119.532 258.815 119.771 259.373C120.011 259.911 120.13 260.509 120.13 261.147C120.13 261.785 120.011 262.402 119.771 262.96C119.532 263.518 119.192 263.996 118.793 264.395C118.374 264.813 117.895 265.112 117.356 265.352C116.798 265.571 116.219 265.69 115.6 265.69C114.982 265.69 114.383 265.571 113.824 265.352C113.266 265.132 112.787 264.813 112.368 264.395C111.949 263.996 111.629 263.498 111.37 262.96C111.13 262.402 111.011 261.804 111.011 261.147C111.011 260.489 111.13 259.911 111.37 259.373ZM112.128 262.701C112.328 263.179 112.587 263.578 112.926 263.937C113.266 264.295 113.665 264.554 114.124 264.754C114.583 264.953 115.082 265.053 115.62 265.053C116.159 265.053 116.638 264.953 117.097 264.754C117.556 264.554 117.955 264.275 118.274 263.937C118.614 263.598 118.873 263.179 119.073 262.701C119.272 262.223 119.352 261.705 119.352 261.147C119.352 260.589 119.252 260.091 119.073 259.632C118.873 259.174 118.614 258.756 118.274 258.417C117.935 258.078 117.536 257.799 117.097 257.6C116.638 257.401 116.159 257.301 115.62 257.301C115.082 257.301 114.583 257.401 114.124 257.6C113.665 257.799 113.266 258.078 112.926 258.417C112.587 258.756 112.328 259.174 112.128 259.632C111.929 260.111 111.849 260.609 111.849 261.147C111.849 261.685 111.949 262.223 112.128 262.701ZM115.88 258.516C116.518 258.516 116.977 258.636 117.277 258.895C117.576 259.154 117.736 259.533 117.736 260.031C117.736 260.509 117.596 260.868 117.337 261.087C117.077 261.306 116.738 261.446 116.339 261.486L117.855 263.837H116.977L115.541 261.565H114.663V263.837H113.844V258.536H115.9L115.88 258.516ZM115.501 260.868C115.68 260.868 115.86 260.868 116.039 260.868C116.199 260.868 116.359 260.828 116.478 260.768C116.618 260.708 116.718 260.629 116.778 260.509C116.858 260.39 116.898 260.23 116.898 260.011C116.898 259.832 116.858 259.692 116.798 259.593C116.738 259.493 116.638 259.413 116.538 259.353C116.439 259.294 116.299 259.254 116.159 259.234C116.019 259.214 115.88 259.194 115.74 259.194H114.643V260.888H115.501V260.868Z" fill="white"/>
</g>
<defs>
<clipPath id="clip0_35_2130">
<rect width="169" height="274" fill="white"/>
</clipPath>
</defs>
</svg>
