<svg width="73" height="119" viewBox="0 0 73 119" fill="none" xmlns="http://www.w3.org/2000/svg">
<g clip-path="url(#clip0_376_2824)">
<path d="M62.501 30.6714C62.501 30.6714 70.2587 27.599 70.8103 17.0059C73.017 19.8446 76.2838 28.6895 64.8886 34.9467C64.156 32.8264 62.501 30.6714 62.501 30.6714Z" fill="#535655"/>
<path d="M14.3695 25.7647L11.0164 29.4862C11.0164 29.4862 -0.0339937 19.8796 9.86139 10.4375C7.96506 19.9575 13.2058 25.055 14.3695 25.756" fill="#535655"/>
<path d="M69.6987 68.0252C69.3712 63.6287 65.975 60.565 60.8894 59.8553C60.9239 59.1629 60.9411 58.4706 60.9153 57.7696C60.8205 54.1779 59.9757 50.7853 58.5449 47.7389C61.829 45.8176 63.9839 42.2087 63.8718 38.1237C63.7081 32.1781 58.769 27.4873 52.8473 27.6517C48.4512 27.7729 44.7534 30.5337 43.2019 34.3677C40.6591 33.5801 37.9439 33.1906 35.1338 33.2685C34.3495 33.2945 33.5823 33.3464 32.8238 33.4416C32.229 27.9114 27.4968 23.6706 21.8596 23.8264C15.9378 23.9909 11.266 28.9499 11.4298 34.8956C11.5246 38.3487 13.2313 41.3778 15.7999 43.2732C13.5157 46.3109 11.8952 49.8853 11.1712 53.7712C10.4471 53.676 9.75753 53.624 9.24035 53.6327C7.38712 53.6933 0.0345437 54.8876 6.50328e-05 62.4343C-0.0171743 66.6231 3.39622 68.7349 6.43896 69.7821C5.14601 73.8151 3.31002 80.4531 1.74124 89.575C-1.01706 105.595 0.172458 108.771 1.31887 110.225C2.47391 111.679 8.49906 115.833 12.2572 113.998C15.7223 112.31 15.8947 108.416 15.7741 106.65C18.3944 108.052 22.1612 109.359 27.4968 109.939C33.7892 110.623 39.1506 110.285 43.1588 109.705C42.9088 110.528 42.5037 112.596 42.6243 113.617C42.9519 116.447 43.9345 118.94 47.1324 118.974C50.3303 119.009 52.6921 119.165 55.3297 117.235C57.9674 115.305 59.6741 110.441 59.9499 106.971C60.2171 103.639 62.2513 86.4421 61.51 76.1432C66.2509 75.1392 70.0952 73.1746 69.7074 68.0165" fill="#78B843"/>
<path d="M6.89612 77.0518C6.89612 77.0518 2.78454 91.8164 2.00015 100.454C1.21576 109.091 3.10347 109.645 4.86188 109.731C6.62029 109.818 7.57708 109.558 7.57708 109.558C7.57708 109.558 4.7843 106.901 5.18943 97.8832C5.59455 88.8652 6.89612 77.0518 6.89612 77.0518Z" fill="#FFFDFA"/>
<path d="M2.96534 60.2269L1.5 58.773C1.5 58.773 4.07728 54.2639 9.2577 54.939C5.64606 56.3151 3.69802 58.8335 2.96534 60.2356" fill="#FFFDFA"/>
<path d="M16.0152 46.3016C16.0152 46.3016 26.9622 47.8335 36.8662 49.374C46.7702 50.9145 57.8637 52.1954 57.8637 52.1954C57.8637 52.1954 56.8983 63.5588 47.4598 73.8404C38.0212 84.122 26.626 82.2266 21.2905 72.1614C16.8168 63.7232 14.343 52.68 16.0152 46.293" fill="#066635"/>
<path d="M50.3127 57.3189C53.8037 57.7949 54.9587 53.9004 55.3208 51.8925C53.3296 51.6502 50.33 51.278 46.9252 50.8193C46.6149 53.4849 46.8649 56.8516 50.3214 57.3189" fill="#E9E9B4"/>
<path d="M23.3592 53.1999C26.8071 53.2864 27.669 49.5649 27.8845 48.0158C24.5228 47.5225 21.4887 47.0811 19.3338 46.7695C18.8252 49.6428 19.3769 53.096 23.3592 53.1912" fill="#E9E9B4"/>
<path d="M40.6508 73.1224C38.4959 74.611 39.444 77.8305 40.0733 79.371C42.0299 78.5055 43.9952 77.1987 45.8916 75.4332C44.8313 73.9878 42.7023 71.7117 40.6508 73.131" fill="#E9E9B4"/>
<path d="M27.2728 71.383C25.6006 69.4097 22.8595 70.7772 21.1787 71.9542C21.2132 72.0234 21.2563 72.1013 21.2908 72.1705C22.4975 74.4553 24.0232 76.3247 25.773 77.7181C27.2901 75.7276 28.7123 73.0793 27.2814 71.3916" fill="#E9E9B4"/>
<path d="M28.0655 32.9042C28.1689 36.643 25.2296 39.7673 21.5059 39.8711C17.7736 39.975 14.6705 37.0238 14.5671 33.285C14.4637 29.5462 17.403 26.4219 21.1267 26.3181C24.8504 26.2142 27.9621 29.1654 28.0655 32.9042Z" fill="#FEFEFA"/>
<path d="M20.3595 31.5286C20.3853 32.5844 19.5665 33.4586 18.5149 33.4932C17.4633 33.5191 16.5927 32.6883 16.5582 31.6411C16.5323 30.5852 17.3598 29.7111 18.4028 29.6852C19.4544 29.6592 20.325 30.4814 20.3595 31.5372" fill="#2D2967"/>
<path d="M61.4923 36.9286C61.5957 40.6674 58.6564 43.7917 54.9327 43.8955C51.2004 43.9994 48.0973 41.0482 47.9939 37.3094C47.8904 33.5706 50.8297 30.4464 54.5534 30.3425C58.2771 30.2386 61.3888 33.1898 61.4923 36.9286Z" fill="#FEFEFA"/>
<path d="M59.295 34.5315C59.3209 35.5874 58.502 36.4615 57.4504 36.4961C56.3988 36.5221 55.5282 35.6912 55.4938 34.644C55.4679 33.5882 56.2954 32.7141 57.3384 32.6881C58.39 32.6621 59.2606 33.4843 59.295 34.5402" fill="#2D2967"/>
<path d="M70.2327 52.7669C70.2586 53.8141 69.4397 54.6882 68.3881 54.7228C67.3451 54.7488 66.4745 53.9266 66.44 52.8794C66.4142 51.8322 67.2331 50.9581 68.2847 50.9234C69.3276 50.8975 70.1982 51.7197 70.2327 52.7755" fill="#D8E085"/>
<path d="M27.1433 20.2951C27.1433 20.2951 24.2557 20.2172 24.0747 17.4824C23.8937 14.7475 27.014 13.7609 26.9019 11.6059C26.7899 9.45095 26.1089 9.36441 24.7729 8.55954C23.4368 7.75466 21.0664 8.13546 20.8509 6.45648C20.6354 4.7775 22.9714 5.18426 23.4368 4.43132C23.9023 3.68703 26.8933 0.0175006 27.5225 0.000191543C28.1518 -0.0171175 28.1863 1.14259 27.5743 1.89554C26.9623 2.64848 25.7641 4.6823 24.8849 5.23619C24.0057 5.79008 23.2386 6.28339 23.342 6.4911C23.4541 6.69881 28.4707 7.97968 28.5397 10.4549C28.6603 14.7216 24.7901 14.8774 24.9194 16.9285C25.0487 18.9796 26.4796 19.4383 27.2209 19.4816C27.9535 19.5248 27.8759 20.4076 27.1347 20.2864" fill="#D0D78A"/>
<path d="M35.272 15.6383C35.272 15.6383 31.2121 14.0805 32.5654 11.9774C33.9187 9.87435 36.6425 11.6832 39.1078 10.8869C41.573 10.0907 41.3834 7.2001 40.6765 6.38657C39.9697 5.57304 38.0044 3.88541 38.6251 2.8209C39.2457 1.75639 39.6336 1.52272 40.168 1.32366C40.7024 1.12461 40.7196 0.328389 39.6767 0.544753C38.6337 0.752462 36.4184 1.07268 36.315 2.81224C36.2116 4.55181 38.9612 5.99712 38.8406 7.01835C38.7285 8.03959 37.7028 8.79253 37.4528 9.08679C37.2114 9.38104 36.4529 9.51086 35.2634 9.54548C34.0739 9.5801 31.1777 9.40701 31.0397 12.2024C30.9018 14.9978 32.9792 15.8806 33.8929 16.1489C34.8065 16.4172 35.6599 16.0277 35.2548 15.6383" fill="#D0D78A"/>
<path d="M50.9506 24.1458C50.9506 24.1458 49.0456 22.9688 50.2955 21.2292C51.5453 19.4896 52.6228 20.5109 55.2259 19.4637C57.8291 18.4165 59.303 16.8154 57.8722 14.7469C56.4413 12.6872 54.7432 11.2851 56.8378 11.337C58.9324 11.389 61.6993 10.8005 62.8543 9.75326C64.018 8.70606 65.3971 6.35203 63.7594 4.62112C62.1217 2.89021 61.3717 3.16715 60.8804 3.5393C60.3891 3.91144 60.6649 4.74228 61.3286 5.37406C61.9924 6.00584 62.1648 7.09632 61.8544 7.68483C61.5528 8.27333 60.1391 9.61479 58.6996 9.69268C57.2602 9.77057 56.2172 9.94366 55.3897 9.92635C54.5622 9.9177 52.459 9.60613 54.0019 11.8823C55.5448 14.1584 56.2689 15.6643 55.8638 16.4346C55.45 17.2048 55.0104 18.1222 52.821 18.6242C50.6316 19.1175 47.882 20.208 48.2267 22.3024C48.5715 24.3968 49.7352 24.7949 50.1403 24.8554C50.5368 24.916 51.2867 24.6391 50.9506 24.1458Z" fill="#D0D78A"/>
<path d="M48.1063 112.648C48.2098 112.405 48.3563 112.198 48.5373 112.024C48.7183 111.851 48.9252 111.713 49.1665 111.609C49.4079 111.505 49.6579 111.462 49.9337 111.462C50.2095 111.462 50.4595 111.514 50.6922 111.609C50.9336 111.713 51.1404 111.851 51.3128 112.024C51.4939 112.198 51.6318 112.405 51.7352 112.648C51.8386 112.881 51.8904 113.141 51.8904 113.418C51.8904 113.695 51.8386 113.963 51.7352 114.205C51.6318 114.448 51.4852 114.655 51.3128 114.829C51.1318 115.01 50.925 115.14 50.6922 115.244C50.4509 115.339 50.2009 115.391 49.9337 115.391C49.6665 115.391 49.4079 115.339 49.1665 115.244C48.9252 115.149 48.7183 115.01 48.5373 114.829C48.3563 114.655 48.2184 114.439 48.1063 114.205C48.0029 113.963 47.9512 113.703 47.9512 113.418C47.9512 113.132 48.0029 112.881 48.1063 112.648ZM48.4339 114.093C48.5201 114.301 48.6321 114.474 48.7787 114.629C48.9252 114.785 49.0976 114.898 49.2958 114.984C49.4941 115.071 49.7096 115.114 49.9423 115.114C50.175 115.114 50.3819 115.071 50.5802 114.984C50.7784 114.898 50.9508 114.777 51.0887 114.629C51.2353 114.482 51.3473 114.301 51.4335 114.093C51.5197 113.885 51.5542 113.66 51.5542 113.418C51.5542 113.176 51.5111 112.959 51.4335 112.76C51.3473 112.561 51.2353 112.379 51.0887 112.232C50.9422 112.085 50.7698 111.964 50.5802 111.877C50.3819 111.791 50.175 111.748 49.9423 111.748C49.7096 111.748 49.4941 111.791 49.2958 111.877C49.0976 111.964 48.9252 112.085 48.7787 112.232C48.6321 112.379 48.5201 112.561 48.4339 112.76C48.3477 112.968 48.3132 113.184 48.3132 113.418C48.3132 113.652 48.3563 113.885 48.4339 114.093ZM50.0544 112.275C50.3302 112.275 50.5285 112.327 50.6577 112.44C50.787 112.552 50.856 112.717 50.856 112.933C50.856 113.141 50.7957 113.297 50.6836 113.392C50.5716 113.487 50.425 113.548 50.2526 113.565L50.9077 114.586H50.5285L49.9078 113.6H49.5286V114.586H49.1752V112.284H50.063L50.0544 112.275ZM49.8906 113.297C49.9682 113.297 50.0458 113.297 50.1233 113.297C50.1923 113.297 50.2612 113.279 50.313 113.253C50.3733 113.227 50.4164 113.193 50.4423 113.141C50.4767 113.089 50.494 113.02 50.494 112.925C50.494 112.847 50.4767 112.786 50.4509 112.743C50.425 112.7 50.3819 112.665 50.3388 112.639C50.2957 112.613 50.2354 112.596 50.175 112.587C50.1147 112.578 50.0544 112.57 49.994 112.57H49.52V113.305H49.8906V113.297Z" fill="white"/>
</g>
<defs>
<clipPath id="clip0_376_2824">
<rect width="73" height="119" fill="white"/>
</clipPath>
</defs>
</svg>
