<svg width="102" height="102" viewBox="0 0 102 102" fill="none" xmlns="http://www.w3.org/2000/svg">
<path d="M51 100.805C23.5377 100.805 1.19531 78.4623 1.19531 51C1.19531 23.5377 23.5377 1.19531 51 1.19531C78.4623 1.19531 100.805 23.5377 100.805 51C100.805 78.4623 78.4623 100.805 51 100.805Z" fill="url(#paint0_linear_9_985)"/>
<path fill-rule="evenodd" clip-rule="evenodd" d="M51 20.9299C34.419 20.9299 20.9299 34.419 20.9299 51C20.9299 56.8331 22.5854 62.4352 25.7331 67.2961L21.165 77.3586C20.7446 78.287 20.898 79.3727 21.5575 80.1477C22.0635 80.7414 22.7986 81.0701 23.5556 81.0701C23.7867 81.0701 24.0198 81.0402 24.2509 80.9765L36.8375 77.524C41.1825 79.8469 46.0554 81.0701 51 81.0701C67.581 81.0701 81.0701 67.581 81.0701 51C81.0701 34.419 67.581 20.9299 51 20.9299ZM51 75.8187C46.6092 75.8187 42.2862 74.6493 38.503 72.4399C38.0966 72.2029 37.6404 72.0813 37.1782 72.0813C36.9451 72.0813 36.712 72.1132 36.4829 72.175L28.2612 74.4301L31.1239 68.1209C31.5124 67.2622 31.4128 66.2622 30.863 65.4991C27.799 61.2538 26.1813 56.2395 26.1813 51C26.1813 37.3157 37.3137 26.1813 51 26.1813C64.6863 26.1813 75.8187 37.3137 75.8187 51C75.8187 64.6863 64.6863 75.8187 51 75.8187Z" fill="white"/>
<path fill-rule="evenodd" clip-rule="evenodd" d="M62.5607 55.5024C61.3016 54.7493 59.662 53.9086 58.1798 54.5143C57.0423 54.9804 56.3152 56.7614 55.578 57.6719C55.1995 58.138 54.7473 58.2118 54.1656 57.9787C49.8923 56.2773 46.6192 53.4245 44.2624 49.4959C43.864 48.8843 43.9337 48.4042 44.4158 47.8364C45.129 46.9977 46.0215 46.0455 46.2148 44.9159C46.408 43.7863 45.8781 42.4655 45.4099 41.4595C44.8123 40.1745 44.1449 38.3397 42.8579 37.6125C41.6726 36.9432 40.1147 37.3177 39.0588 38.1763C37.238 39.6585 36.3594 41.9814 36.3853 44.2844C36.3933 44.9378 36.473 45.5913 36.6264 46.2228C36.9929 47.7408 37.6962 49.1593 38.4851 50.508C39.0807 51.524 39.7282 52.5101 40.4275 53.4604C42.7125 56.5642 45.5553 59.2616 48.8464 61.2777C50.492 62.2858 52.263 63.1683 54.0978 63.7739C56.1558 64.4533 57.9886 65.1605 60.2099 64.7402C62.5368 64.2979 64.8298 62.8595 65.7521 60.6163C66.0251 59.9529 66.1625 59.2138 66.0091 58.5126C65.6924 57.0643 63.7301 56.2016 62.5587 55.5004L62.5607 55.5024Z" fill="white"/>
<defs>
<linearGradient id="paint0_linear_9_985" x1="1.19531" y1="51" x2="100.805" y2="51" gradientUnits="userSpaceOnUse">
<stop stop-color="#1AC133"/>
<stop offset="1" stop-color="#7BF385"/>
</linearGradient>
</defs>
</svg>
