<svg preserveAspectRatio="none" width="100%" height="100%" overflow="visible" style="display: block;" viewBox="0 0 200 80" fill="none" xmlns="http://www.w3.org/2000/svg">
<g id="Group">
<g id="Group_2">
<path id="Vector" d="M62.8141 42.037C60.4767 37.9068 59.2906 33.0674 59.2906 27.657C59.2906 22.2467 60.4853 17.3554 62.8401 13.2079C65.1993 9.05179 68.5446 5.78225 72.785 3.49443C73.2325 3.25224 73.693 3.03168 74.1579 2.81544H60.2116C59.5121 2.81544 59.2949 3.1052 59.1863 3.53768L53.6339 26.7359L47.8729 3.53768C47.7556 3.04465 47.6426 2.91059 47.6296 2.89329C47.6209 2.89329 47.4515 2.81544 46.9431 2.81544H32.3973C31.7152 2.79382 31.5197 3.0533 31.4241 3.50741L25.7066 26.7488L20.1498 3.52903C20.0412 3.1052 19.8196 2.81544 19.081 2.81544H0.299226C0.138474 2.81544 0.0906834 2.86301 0.0472371 2.92356C-0.009243 3.00141 -0.009243 3.03168 0.0168248 3.09655L15.2143 51.5169C15.3751 52.1051 15.6531 52.3257 16.2049 52.3257H30.6117C31.1982 52.3257 31.5545 52.0662 31.8065 51.4564L39.6572 24.5345L47.534 51.5342C47.7426 52.0748 48.0814 52.3257 48.6549 52.3257H63.1095C63.6613 52.3257 63.935 52.1051 64.0914 51.5429L65.7641 46.2147C64.6518 44.9432 63.6613 43.555 62.8054 42.0456L62.8141 42.037Z" fill="var(--fill-0, #553CC8)"/>
<path id="Vector_2" d="M179.141 80C175.705 80 172.941 78.9837 170.847 76.9554C168.753 74.927 167.706 72.2586 167.706 68.9545C167.706 66.7402 168.175 64.7854 169.122 63.0944C170.065 61.4034 171.403 60.0887 173.141 59.1502C174.875 58.2117 176.878 57.7403 179.141 57.7403C181.405 57.7403 183.403 58.2117 185.141 59.1502C186.875 60.0887 188.226 61.4034 189.19 63.0944C190.155 64.7854 190.633 66.7402 190.633 68.9545C190.633 72.2586 189.586 74.927 187.491 76.9554C185.397 78.9837 182.612 80 179.141 80Z" fill="var(--fill-0, #553CC8)"/>
<path id="Vector_3" d="M166.364 2.81544H159.138C158.439 2.81544 158.222 3.1052 158.113 3.53768L152.561 26.7359L146.8 3.53768C146.682 3.04465 146.569 2.91059 146.556 2.89329C146.548 2.89329 146.378 2.81544 145.87 2.81544H131.324C130.638 2.79382 130.447 3.0533 130.351 3.50741L124.633 26.7488L119.077 3.52903C118.968 3.1052 118.746 2.81544 118.008 2.81544H99.2348C99.074 2.81544 99.0262 2.86301 98.9828 2.92356C98.9263 3.00141 98.9263 3.03168 98.9524 3.09655L114.15 51.5169C114.311 52.1051 114.589 52.3257 115.14 52.3257H129.547C130.134 52.3257 130.49 52.0662 130.742 51.4564L138.593 24.5345L146.47 51.5342C146.678 52.0748 147.017 52.3257 147.59 52.3257H162.045C162.597 52.3257 162.871 52.1051 163.027 51.5429L167.558 37.111L166.364 2.81977V2.81544Z" fill="var(--fill-0, #553CC8)"/>
<path id="Vector_4" d="M168.745 0C168.562 0 168.393 0.0475727 168.189 0.272462C167.967 0.51465 167.867 0.756839 167.867 1.0293L169.566 49.7438C169.566 49.9038 169.601 50.1114 169.879 50.3709C170.105 50.5828 170.33 50.6822 170.6 50.6822H187.414C187.574 50.6822 187.831 50.6476 188.148 50.3319C188.382 50.0984 188.456 49.9254 188.448 49.8476L190.255 1.00335C190.277 0.704941 190.198 0.501676 189.999 0.31571C189.777 0.103795 189.547 0.00864958 189.282 0.00864958H168.845C168.814 0.00864958 168.784 0.00864958 168.749 0.00864958L168.745 0Z" fill="var(--fill-0, #553CC8)"/>
<path id="Vector_5" d="M97.5798 3.5766C97.5189 3.42524 97.4929 3.26522 97.4842 3.1052C94.4082 2.04995 91.0281 1.50503 87.3742 1.50503C82.1563 1.50503 77.4815 2.60353 73.4714 4.76592C69.4744 6.92399 66.3202 10.0032 64.1001 13.9215C61.8713 17.8484 60.7373 22.4716 60.7373 27.6614C60.7373 32.8511 61.8582 37.4181 64.074 41.332C66.2811 45.2373 69.4309 48.3079 73.4236 50.4617C77.4337 52.6241 82.1259 53.7226 87.3742 53.7226C92.6225 53.7226 97.3104 52.6197 101.325 50.4401C104.84 48.5285 107.698 45.9077 109.84 42.6338L97.5798 3.5766ZM96.0939 33.1582C95.2641 34.8276 94.0737 36.1466 92.553 37.0721C91.0324 37.9976 89.2946 38.469 87.3786 38.469C85.4626 38.469 83.7291 38.0063 82.2085 37.0981C80.6879 36.1855 79.4931 34.8838 78.6633 33.2274C77.8421 31.5969 77.4294 29.707 77.4294 27.6095C77.4294 25.512 77.8465 23.6263 78.6633 21.9916C79.4974 20.3352 80.6879 19.0334 82.2085 18.1209C83.7247 17.2127 85.4626 16.7499 87.3786 16.7499C90.3025 16.7499 92.7268 17.7576 94.5907 19.7384L94.5994 19.747C96.4111 21.7451 97.3321 24.3572 97.3321 27.5143C97.3321 29.6075 96.915 31.5061 96.0982 33.1495L96.0939 33.1582Z" fill="var(--fill-0, #553CC8)"/>
</g>
<path id="Vector_6" d="M199.996 57.1478C199.996 59.5654 198.041 61.4856 195.56 61.4856C193.079 61.4856 191.098 59.5654 191.098 57.1478C191.098 54.7302 193.079 52.836 195.59 52.836C198.101 52.836 200 54.7302 200 57.1478H199.996ZM192.201 57.1478C192.201 59.068 193.652 60.5903 195.582 60.5903C197.458 60.6163 198.883 59.0637 198.883 57.1737C198.883 55.2838 197.458 53.7009 195.529 53.7009C193.6 53.7009 192.201 55.2535 192.201 57.1435V57.1478ZM194.869 59.3837H193.865V55.0719C194.261 55.02 194.817 54.9378 195.529 54.9378C196.351 54.9378 196.72 55.0719 197.011 55.2795C197.276 55.4655 197.458 55.7812 197.458 56.2007C197.458 56.7283 197.063 57.07 196.559 57.2257V57.2775C196.98 57.4073 197.193 57.7489 197.324 58.3285C197.454 58.9858 197.563 59.2237 197.641 59.3794H196.585C196.455 59.2237 196.372 58.8518 196.242 58.3285C196.164 57.883 195.899 57.6711 195.343 57.6711H194.869V59.3794V59.3837ZM194.895 56.9618H195.369C195.925 56.9618 196.372 56.7759 196.372 56.3304C196.372 55.9369 196.081 55.673 195.447 55.673C195.182 55.673 194.999 55.699 194.891 55.7249V56.9618H194.895Z" fill="var(--fill-0, #553CC8)"/>
</g>
</svg>
