<svg width="330" height="176" viewBox="0 0 330 176" fill="none" xmlns="http://www.w3.org/2000/svg">
<g clip-path="url(#clip0_238_2441)">
<path d="M269.214 52.5219C269.614 60.0722 268.622 67.3448 266.149 74.4091C264.739 78.4532 265.87 78.8525 269.614 78.1061C279.052 76.2142 288.559 75.2422 298.188 76.9432C311.595 79.3037 323 84.4761 328.294 98.0493C332.751 109.505 328.259 121.672 317.098 129.552C309.105 135.193 300.016 137.432 290.404 137.502C270.537 137.641 250.687 137.675 230.819 137.502C226.344 137.467 120.424 137.432 117.551 137.432C98.0147 137.432 78.4432 136.495 58.9761 137.623C37.7852 138.856 22.0792 113.688 24.1338 98.5006C25.4398 88.8501 30.9247 82.2891 40.0662 78.731C47.5361 75.8323 55.3195 74.7388 63.4685 74.2702C63.4685 74.2702 76.6323 73.7148 83.0226 74.4438C80.9854 72.0659 80.5326 67.0844 80.5326 67.0844C77.3288 46.013 92.2512 24.9937 108.81 19.8039C119.885 16.3325 130.402 18.0509 140.449 23.2927C148.876 27.7014 156.155 33.7069 162.336 40.91C164.722 43.6872 165.871 43.4095 167.299 40.0943C171.512 30.3223 177.137 21.5049 184.85 13.9546C203.569 -4.35702 230.262 -4.73887 249.59 13.1736C255.876 19.0055 260.664 25.8095 264.216 33.5507C264.216 33.5507 268.813 45.0757 269.196 52.5045" fill="#B9DFF6"/>
<path d="M83.0401 67.1196C83.0401 67.1196 82.274 40.6328 99.756 27.8754C116.594 15.5867 140.519 24.0048 149.155 32.0238C149.608 32.4403 149.643 33.1346 149.277 33.6206C148.964 34.0372 148.563 34.5579 148.197 35.0612C147.431 36.068 146.021 36.311 144.976 35.5993C139.578 31.9543 122.915 22.4253 105.206 29.8889C83.6322 38.9839 83.0575 67.1196 83.0575 67.1196" fill="white"/>
<path d="M171.06 38.4456C171.06 38.4456 179.975 23.8484 196.691 10.362C215.792 -5.05102 237.592 5.83182 246.02 13.9896C246.403 14.3541 246.455 14.9442 246.159 15.3955L244.819 17.4437C244.035 18.6413 242.416 18.9016 241.284 18.0338C235.694 13.7466 219.536 3.40184 202.559 11.7506C181.42 22.1648 171.06 38.4456 171.06 38.4456Z" fill="white"/>
<path d="M286.051 135.402C286.051 135.402 302.68 138.266 316.522 127.713C330.365 117.16 328.415 106.416 328.415 106.416C328.415 106.416 325.56 120.145 312.901 127.522C300.224 134.899 286.068 135.402 286.068 135.402" fill="#5F83A6"/>
<path d="M133.849 132.33C130.924 139.342 128.051 146.355 125.16 153.384C123.837 156.613 122.218 156.196 120.041 154.044C118.056 152.082 115.914 150.208 113.564 148.715C110.534 146.806 107.104 145.816 103.743 147.969C100.104 150.295 98.4672 153.749 98.8677 158.105C99.2856 162.687 101.619 166.159 105.136 168.919C109.402 172.234 114.521 173.709 119.519 175.445C123.489 176.833 125.857 175.688 127.476 171.522C131.829 160.292 136.757 149.271 141.093 138.041C142.834 133.528 144.784 132.313 149.538 134.326" fill="#B9DFF6"/>
<path d="M192.354 131.687C196.655 130.368 198.588 131.219 199.824 135.645C203.202 147.725 207.085 159.65 210.533 171.713C211.578 175.358 213.615 176.503 217.098 175.792C221.642 174.854 226.239 173.865 230.366 171.799C235.955 169.005 240.082 164.857 239.803 157.949C239.507 150.537 233.604 146.632 226.709 149.322C223.436 150.607 220.597 152.672 218.073 155.05C215.617 157.358 214.59 156.56 213.772 153.713C211.804 146.892 209.941 140.036 207.59 133.354C206.041 128.962 207.381 127.244 211.682 126.012" fill="#B9DFF6"/>
<path d="M163.764 86.8198C163.764 95.8628 156.416 103.187 147.344 103.187C138.272 103.187 130.924 95.8628 130.924 86.8198C130.924 77.7768 138.272 70.4521 147.344 70.4521C156.416 70.4521 163.764 77.7768 163.764 86.8198Z" fill="white"/>
<path d="M200.121 86.8198C200.121 95.8628 192.773 103.187 183.701 103.187C174.629 103.187 167.281 95.8628 167.281 86.8198C167.281 77.7768 174.629 70.4521 183.701 70.4521C192.773 70.4521 200.121 77.7768 200.121 86.8198Z" fill="white"/>
<mask id="mask0_238_2441" style="mask-type:luminance" maskUnits="userSpaceOnUse" x="130" y="70" width="34" height="34">
<path d="M130.906 86.8198C130.906 95.8628 138.254 103.187 147.326 103.187C156.398 103.187 163.746 95.8628 163.746 86.8198C163.746 77.7768 156.398 70.4521 147.326 70.4521C138.254 70.4521 130.906 77.7768 130.906 86.8198Z" fill="white"/>
</mask>
<g mask="url(#mask0_238_2441)">
<path d="M155.754 96.5222C155.754 100.983 152.132 104.593 147.657 104.593C143.182 104.593 139.561 100.983 139.561 96.5222C139.561 92.0614 143.182 88.4512 147.657 88.4512C152.132 88.4512 155.754 92.0614 155.754 96.5222Z" fill="#5F83A6"/>
</g>
<mask id="mask1_238_2441" style="mask-type:luminance" maskUnits="userSpaceOnUse" x="167" y="70" width="34" height="34">
<path d="M167.281 86.8198C167.281 95.8628 174.629 103.187 183.701 103.187C192.773 103.187 200.121 95.8628 200.121 86.8198C200.121 77.7768 192.773 70.4521 183.701 70.4521C174.629 70.4521 167.281 77.7768 167.281 86.8198Z" fill="white"/>
</mask>
<g mask="url(#mask1_238_2441)">
<path d="M191.798 96.5222C191.798 100.983 188.176 104.593 183.701 104.593C179.226 104.593 175.604 100.983 175.604 96.5222C175.604 92.0614 179.226 88.4512 183.701 88.4512C188.176 88.4512 191.798 92.0614 191.798 96.5222Z" fill="#5F83A6"/>
</g>
<path d="M63.4852 73.1078C56.3461 66.3386 48.6324 60.6455 42.1202 53.6333C37.1751 48.322 32.2473 42.9761 27.546 37.4392C25.2301 34.7315 22.8098 33.1173 19.0836 33.3082C12.8673 33.638 7.50431 31.0171 2.38506 27.8408C0.504516 26.6779 -0.801414 25.2719 0.591578 23.0155C1.81045 21.0368 3.72581 20.5508 5.78048 21.4187C7.43466 22.1303 8.8973 23.2585 10.4992 24.1437C11.631 24.7512 13.1633 25.9141 14.0165 24.5256C15.0439 22.8593 13.0066 22.408 11.9619 21.8873C9.38484 20.6203 6.98193 19.197 5.72824 16.4893C5.06657 15.0834 3.58651 13.5039 5.29293 12.0285C6.91228 10.64 8.82765 11.2475 10.3251 12.4278C13.1807 14.6668 15.8971 17.0968 18.6831 19.44C19.2751 19.9433 19.9716 20.3425 21.1382 21.1583C21.2949 16.8711 18.4045 14.9619 16.5239 12.5666C14.3126 9.73742 10.5341 6.45695 14.6782 3.43683C18.4915 0.659707 20.7029 5.25931 22.6531 7.86286C24.8122 10.7441 26.658 13.9378 28.3121 17.1489C29.5832 19.6309 30.4016 20.3078 32.1603 17.5134C34.0931 14.4585 36.879 12.4451 40.7272 12.4451C42.6425 12.4451 44.349 12.9658 45.3589 14.7536C46.4733 16.7323 45.2718 18.2423 44.14 19.6656C42.3465 21.9567 39.8217 23.2238 37.1576 24.1958C34.0408 25.3414 33.6229 27.268 35.2597 29.993C45.3589 46.7599 58.453 60.3678 76.2833 69.0463C78.129 69.9489 80.1315 70.4696 82.4647 70.6605C84.798 70.8514 93.9221 78.8704 83.3005 80.2242C72.679 81.578 63.4852 73.1252 63.4852 73.1252" fill="#B9DFF6"/>
<path d="M263.694 69.3241C264.861 68.8381 269.127 66.5296 269.962 65.7832C276.788 59.6562 281.96 52.1927 287.027 44.6424C288.942 41.7785 288.994 39.5047 285.146 38.1682C282.29 37.1789 279.818 35.4605 278.042 32.9785C275.534 29.4897 276.962 26.4349 281.246 26.1225C285.616 25.8101 288.298 28.483 290.474 31.7635C292.006 34.072 292.912 33.829 294.235 31.5031C296.534 27.511 298.971 23.5536 301.705 19.8392C303.342 17.6002 305.762 15.1181 308.74 17.5655C311.421 19.7698 309.558 22.4081 308.061 24.6124C305.902 27.8235 302.593 30.2534 302.071 35.044C304.822 32.7876 307.521 30.4617 310.359 28.3095C312.466 26.7126 314.991 23.4321 317.481 26.296C320.11 29.3162 316.541 31.6073 314.521 33.5686C313.267 34.801 311.456 35.4605 309.889 36.3631C308.931 36.9012 307.26 37.1962 307.817 38.6195C308.479 40.3205 310.15 39.5221 311.265 39.0187C312.762 38.3418 314.068 37.283 315.478 36.4325C317.899 34.9745 320.319 34.7836 321.973 37.4045C323.593 39.9907 321.416 41.3099 319.64 42.5248C314.573 46.031 308.862 47.4889 302.767 47.4716C300.121 47.4716 298.031 48.0097 296.238 50.1446C287.427 60.6803 277.554 70.1919 267.246 79.2523C267.246 79.2523 260.298 84.8759 257.809 79.7903C255.336 74.7047 257.634 71.8061 263.642 69.3067" fill="#B9DFF6"/>
<path d="M214.747 171.54C214.329 172.355 213.999 175.185 217.986 174.525C221.973 173.866 230.627 171.123 233.274 168.815C235.938 166.489 239.177 162.097 237.174 158.782C235.172 155.467 231.185 155.467 226.535 158.782C221.886 162.097 216.384 168.311 214.73 171.54" fill="#5F83A6"/>
<path d="M123.036 171.105C123.385 171.973 123.419 174.803 119.519 173.761C115.619 172.72 107.278 169.161 104.858 166.593C102.438 164.024 99.6341 159.337 101.95 156.231C104.266 153.124 108.236 153.505 112.537 157.255C116.855 161.004 121.713 167.721 123.054 171.088" fill="#5F83A6"/>
<path d="M150.966 108.794C148.702 108.742 147.24 111.206 148.424 113.15C150.6 116.743 155.458 121.187 166.15 121.1C176.945 121.013 181.107 116.552 182.691 113.029C183.579 111.085 182.099 108.898 179.958 108.967C172.139 109.193 158.018 108.95 150.966 108.811" fill="#5F83A6"/>
<mask id="mask2_238_2441" style="mask-type:luminance" maskUnits="userSpaceOnUse" x="147" y="108" width="37" height="14">
<path d="M147.413 111.171C148.893 114.816 153.333 121.204 166.149 121.1C179.069 120.995 182.482 114.625 183.37 111.085C183.666 109.939 182.76 108.863 181.576 108.898C173.601 109.245 155.597 108.898 149.102 108.759H149.067C147.831 108.759 146.943 110.008 147.413 111.154" fill="white"/>
</mask>
<g mask="url(#mask2_238_2441)">
<path d="M172.504 109.61C172.504 113.15 169.526 116.032 165.835 116.032C162.144 116.032 159.166 113.168 159.166 109.61C159.166 106.051 162.144 103.188 165.835 103.188C169.526 103.188 172.504 106.051 172.504 109.61Z" fill="white"/>
</g>
<path d="M78.1989 15.396C78.0248 18.3119 74.908 20.4816 71.2514 20.2559C67.5948 20.0303 64.774 17.4962 64.9481 14.5802C65.1222 11.6642 68.239 9.49458 71.8956 9.72022C75.5522 9.94586 78.373 12.4973 78.1989 15.396Z" fill="#B9DFF6"/>
<path d="M70.4678 10.2236C70.4678 12.7578 72.3657 14.8232 74.7164 14.8232C77.0671 14.8232 78.965 12.7578 78.965 10.2236C78.965 7.68951 77.0671 5.62402 74.7164 5.62402C72.3657 5.62402 70.4678 7.68951 70.4678 10.2236Z" fill="#B9DFF6"/>
<path d="M77.7461 13.7118C77.7461 11.4207 80.1142 9.56348 83.0395 9.56348C85.9647 9.56348 88.3328 11.4207 88.3328 13.7118C88.3328 16.0029 85.9647 17.8601 83.0395 17.8601C80.1142 17.8601 77.7461 16.0029 77.7461 13.7118Z" fill="#B9DFF6"/>
<path d="M72.1396 16.5409C72.1396 14.2498 74.5077 12.3926 77.433 12.3926C80.3583 12.3926 82.7264 14.2498 82.7264 16.5409C82.7264 18.832 80.3583 20.6892 77.433 20.6892C74.5077 20.6892 72.1396 18.832 72.1396 16.5409Z" fill="#B9DFF6"/>
<path d="M76.6143 10.1712C76.6143 12.3234 78.251 14.0591 80.2709 14.0591C82.2907 14.0591 83.9275 12.3234 83.9275 10.1712C83.9275 8.0189 82.2907 6.2832 80.2709 6.2832C78.251 6.2832 76.6143 8.0189 76.6143 10.1712Z" fill="#B9DFF6"/>
<path d="M78.3213 19.5091C78.3213 21.6613 79.9581 23.397 81.9779 23.397C83.9977 23.397 85.6345 21.6613 85.6345 19.5091C85.6345 17.3568 83.9977 15.6211 81.9779 15.6211C79.9581 15.6211 78.3213 17.3568 78.3213 19.5091Z" fill="#B9DFF6"/>
<path d="M80.2536 18.433C80.2536 15.8295 78.1293 13.7119 75.5174 13.7119C72.9056 13.7119 70.7812 15.8295 70.7812 18.433C70.7812 21.0366 72.9056 23.1541 75.5174 23.1541C78.1293 23.1541 80.2536 21.0366 80.2536 18.433Z" fill="#B9DFF6"/>
</g>
<defs>
<clipPath id="clip0_238_2441">
<rect width="330" height="176" fill="white"/>
</clipPath>
</defs>
</svg>
