<svg width="578" height="382" viewBox="0 0 578 382" fill="none" xmlns="http://www.w3.org/2000/svg">
<g clip-path="url(#clip0_679_3805)">
<path d="M189.006 89.0843C183.851 83.9631 177.85 86.858 174.521 89.2508C173.204 87.4901 170.209 83.5934 168.543 82.3491C166.369 80.7238 158.442 76.2459 150.923 78.365C143.4 80.484 126.201 84.9732 117.81 91.4573C109.423 97.9386 106.934 108.568 108.447 112.013C109.96 115.461 112.129 120.85 116.049 122.822C116.049 122.822 119.844 126.629 124.49 131.53C120.791 134.871 118.902 140.015 122.683 145.105C127.032 150.96 135.686 143.917 135.686 143.917C137.473 146.044 138.983 147.977 139.984 149.498C145.154 157.354 153.278 168.68 156.884 172.912C160.487 177.144 163.032 176.287 165.073 175.344C167.115 174.402 169.739 172.472 168.388 168.657C167.814 167.04 167.223 165.367 166.731 163.976C168.984 163.268 171.982 161.891 175.537 159.247C179.122 156.578 182.68 152.915 185.547 149.645C185.621 150.539 185.731 151.513 185.904 152.478C186.489 155.765 187.403 159.25 190.547 157.373C193.692 155.497 194.696 152.593 195.092 151.944C195.488 151.293 196.675 148.234 196.37 143.607C196.062 138.976 195.609 128.796 191.271 117.018C189.594 112.467 186.806 107.416 184.02 102.933C188.825 98.7201 193.129 93.1841 189.006 89.0899" fill="#C4DDDE"/>
<path d="M124.894 133.099C124.894 133.099 122.471 135.023 121.999 138.121C121.526 141.22 126.453 140.864 126.453 140.864C126.453 140.864 123.305 137.216 124.894 133.096" fill="#FFFFFA"/>
<path d="M113.804 111.471C113.804 111.471 111.177 112.27 110.076 110.3C108.979 108.328 114.25 95.7293 127.262 85.278C120.237 93.6525 114.463 103.92 113.801 111.471" fill="#FAFCF7"/>
<path d="M166.154 172.353C166.154 172.353 164.539 175.33 161.997 174.938C159.454 174.549 155.017 169.238 152.837 166.081C150.657 162.923 139.127 145.477 139.127 145.477C139.127 145.477 138.652 143.336 141.047 146.648C143.443 149.961 150.979 160.703 157.333 166.168C163.69 171.637 166.154 172.351 166.154 172.351" fill="#FFFFFA"/>
<path d="M129.691 125.069C129.691 125.069 138.212 121.242 147.111 111.559C156.876 100.932 160.403 88.932 160.403 88.932C160.403 88.932 164.133 99.1886 151.721 113.003C140.621 125.356 130.681 125.489 129.691 125.069Z" fill="#575858"/>
<path d="M124.431 123.948C124.9 124.499 124.832 125.325 124.281 125.794C123.729 126.262 122.901 126.194 122.434 125.644C121.965 125.094 122.033 124.267 122.584 123.802C123.136 123.333 123.964 123.401 124.431 123.951" fill="#575858"/>
<path d="M160.818 83.4072C161.287 83.9575 161.219 84.7842 160.668 85.2526C160.116 85.721 159.288 85.6533 158.821 85.103C158.352 84.5528 158.419 83.7261 158.971 83.2605C159.522 82.7921 160.351 82.8598 160.818 83.4101" fill="#575858"/>
<path d="M109.887 117.724C109.887 117.724 100.343 119.473 92.6055 113.737C84.8655 108 84.9277 101.217 84.9277 101.217C84.9277 101.217 93.2984 112.112 106.892 110.554C108.043 114.496 108.812 116.305 109.887 117.724Z" fill="#A1C2C3"/>
<path d="M160.107 76.308C160.107 76.308 162.794 64.8381 153.244 53.7773C161.982 56.7259 169.157 64.2343 166.894 79.0958C166.894 79.0958 162.559 77.2053 160.107 76.308Z" fill="#A1C2C3"/>
<path d="M117.632 90.2524C117.632 90.2524 112.511 91.9821 108.201 95.3455C103.891 98.7088 104.516 100.695 107.856 100.862C111.196 101.028 116.026 100.416 116.026 100.416L128.262 91.8043C128.262 91.8043 128.455 92.8286 130.293 91.683C132.128 90.5374 139.778 86.0821 140.049 85.9495C140.321 85.814 142.532 84.423 144.806 82.8823C147.079 81.3389 152.829 77.0472 152.829 77.0472C152.829 77.0472 153.603 75.2301 152.549 73.7036C151.494 72.1771 149.214 68.5965 147.077 67.5073C144.939 66.4182 140.646 63.7687 132.1 67.6258C123.557 71.483 119.782 73.523 117.986 75.2386C116.19 76.9541 115.466 79.4061 115.704 82.3011C115.941 85.1961 116.781 89.0307 117.627 90.2496" fill="#661712"/>
<path d="M119.637 89.8716C119.637 89.8716 124.168 87.998 128.426 87.4873C132.682 86.9738 137.53 86.0596 137.53 86.0596C137.53 86.0596 139.421 80.1991 138.121 76.8498C136.82 73.5034 135.578 70.1061 127.708 73.3905C119.841 76.6777 117.545 79.1043 117.562 80.8339C117.579 82.5608 118.452 87.4591 119.637 89.8744" fill="#FEF5F7"/>
<path d="M139.029 119.335C137.824 120.356 137.459 121.993 137.997 123.387C139.86 122.583 141.956 121.437 144.198 119.832C144.176 119.803 144.159 119.775 144.136 119.75C142.841 118.229 140.553 118.043 139.029 119.335Z" fill="#F3E0AA"/>
<path d="M188.659 151.146C188.582 150.878 188.56 150.607 188.588 150.339C188.616 150.071 188.698 149.811 188.828 149.566C188.958 149.318 189.137 149.103 189.36 148.917C189.583 148.733 189.829 148.601 190.095 148.519C190.361 148.437 190.63 148.409 190.898 148.432C191.167 148.454 191.427 148.528 191.676 148.654C191.925 148.779 192.145 148.956 192.335 149.185C192.53 149.419 192.666 149.673 192.742 149.944C192.818 150.215 192.844 150.483 192.818 150.754C192.793 151.022 192.714 151.279 192.584 151.524C192.454 151.77 192.275 151.984 192.052 152.167C191.829 152.354 191.583 152.486 191.317 152.568C191.051 152.653 190.782 152.681 190.511 152.658C190.239 152.636 189.979 152.56 189.728 152.433C189.476 152.306 189.252 152.125 189.057 151.891C188.868 151.662 188.735 151.411 188.659 151.143M189.914 152.117C190.123 152.229 190.341 152.3 190.565 152.323C190.788 152.348 191.011 152.328 191.235 152.263C191.458 152.198 191.665 152.088 191.857 151.928C192.046 151.772 192.193 151.592 192.295 151.386C192.4 151.18 192.459 150.965 192.476 150.742C192.493 150.517 192.465 150.294 192.394 150.068C192.321 149.842 192.202 149.628 192.038 149.428C191.877 149.233 191.693 149.081 191.484 148.968C191.274 148.858 191.062 148.787 190.839 148.765C190.616 148.739 190.395 148.759 190.172 148.824C189.951 148.886 189.745 148.996 189.555 149.151C189.363 149.309 189.213 149.492 189.108 149.698C189.004 149.904 188.941 150.119 188.922 150.342C188.902 150.565 188.93 150.788 189.001 151.013C189.071 151.239 189.187 151.448 189.349 151.643C189.515 151.843 189.702 151.998 189.911 152.114M190.016 149.509C190.242 149.323 190.449 149.23 190.632 149.23C190.816 149.23 190.983 149.323 191.136 149.504C191.277 149.676 191.334 149.84 191.306 149.998C191.277 150.156 191.195 150.302 191.065 150.435L192.307 150.827L191.99 151.09L190.794 150.7L190.48 150.96L191.158 151.778L190.862 152.024L189.286 150.122L190.022 149.515L190.016 149.509ZM190.587 150.46C190.655 150.407 190.714 150.35 190.771 150.297C190.828 150.243 190.87 150.187 190.898 150.127C190.929 150.068 190.938 150.009 190.932 149.941C190.924 149.876 190.89 149.806 190.828 149.732C190.774 149.667 190.72 149.628 190.664 149.611C190.607 149.594 190.55 149.591 190.494 149.603C190.437 149.617 190.381 149.639 190.324 149.673C190.268 149.707 190.214 149.746 190.166 149.786L189.773 150.11L190.273 150.714L190.582 150.457L190.587 150.46Z" fill="white"/>
<path d="M174.64 54.2938C174.688 56.0178 173.325 57.454 171.597 57.5019C169.87 57.5499 168.43 56.1899 168.382 54.4687C168.334 52.7447 169.697 51.3085 171.425 51.2605C173.153 51.2125 174.592 52.5726 174.64 54.2938Z" fill="#D8E085"/>
<path d="M178.227 62.0053C178.258 63.1593 177.347 64.1215 176.188 64.1553C175.031 64.1864 174.067 63.2778 174.033 62.1209C174.002 60.9669 174.912 60.0047 176.072 59.9709C177.229 59.9398 178.193 60.8484 178.227 62.0053Z" fill="#D8E085"/>
<path d="M240.124 50.2023C240.124 50.2023 248.489 46.9067 249.091 35.5553C251.47 38.6027 254.99 48.0805 242.7 54.7875C241.908 52.5133 240.124 50.2023 240.124 50.2023Z" fill="#535655"/>
<path d="M188.209 44.9401L184.595 48.9242C184.595 48.9242 172.672 38.6366 183.342 28.5126C181.297 38.7184 186.95 44.1782 188.206 44.9372" fill="#535655"/>
<path d="M247.889 90.2468C247.533 85.5375 243.868 82.2531 238.39 81.4857C238.43 80.7464 238.441 80.0015 238.421 79.2481C238.314 75.4022 237.406 71.7652 235.859 68.4949C239.397 66.4351 241.727 62.5638 241.605 58.1903C241.427 51.8135 236.102 46.7881 229.711 46.9631C224.974 47.0929 220.981 50.0499 219.304 54.1667C216.558 53.3259 213.632 52.9082 210.603 52.9929C209.76 53.0183 208.929 53.0804 208.106 53.1791C207.467 47.2481 202.357 42.7081 196.277 42.8746C189.886 43.0523 184.849 48.3654 185.024 54.7423C185.129 58.4443 186.967 61.6891 189.741 63.7264C187.273 66.9853 185.531 70.8171 184.747 74.9762C183.964 74.8802 183.22 74.8182 182.666 74.8323C180.675 74.8887 172.746 76.1669 172.703 84.248C172.681 88.7372 176.365 90.9974 179.646 92.1204C178.252 96.4403 176.269 103.559 174.575 113.339C171.6 130.511 172.881 133.92 174.126 135.475C175.37 137.029 181.866 141.485 185.927 139.518C189.662 137.709 189.849 133.536 189.719 131.643C192.547 133.147 196.61 134.549 202.365 135.167C209.152 135.898 214.935 135.54 219.259 134.922C218.991 135.799 218.558 138.017 218.682 139.117C219.033 142.153 220.093 144.823 223.546 144.859C226.999 144.896 229.547 145.063 232.386 142.997C235.226 140.932 237.072 135.714 237.369 131.996C237.652 128.423 239.852 109.995 239.046 98.9487C244.159 97.8737 248.307 95.7659 247.889 90.2383" fill="#78B843"/>
<path d="M180.146 99.925C180.146 99.925 175.709 115.749 174.861 125.006C174.012 134.264 176.054 134.86 177.949 134.95C179.844 135.04 180.876 134.766 180.876 134.766C180.876 134.766 177.861 131.917 178.3 122.253C178.738 112.586 180.143 99.925 180.143 99.925" fill="#FFFDFA"/>
<path d="M175.905 81.8892L174.324 80.326C174.324 80.326 177.098 75.4954 182.689 76.2121C178.789 77.6878 176.691 80.3909 175.902 81.8892" fill="#FFFDFA"/>
<path d="M189.982 66.9572C189.982 66.9572 201.788 68.6022 212.475 70.2556C223.162 71.9091 235.121 73.2832 235.121 73.2832C235.121 73.2832 234.078 85.4614 223.897 96.4855C213.717 107.51 201.421 105.475 195.672 94.6881C190.85 85.6391 188.181 73.8052 189.982 66.9572Z" fill="#066635"/>
<path d="M226.979 78.7713C230.741 79.2792 231.988 75.1088 232.378 72.9531C230.229 72.6935 226.991 72.29 223.32 71.8019C222.989 74.6574 223.255 78.269 226.979 78.7713Z" fill="#E9E9B4"/>
<path d="M197.903 74.3497C201.622 74.4429 202.555 70.4503 202.781 68.794C199.156 68.2607 195.887 67.7923 193.562 67.4622C193.011 70.5406 193.61 74.2425 197.903 74.3497Z" fill="#E9E9B4"/>
<path d="M216.553 95.7095C214.226 97.3037 215.252 100.755 215.925 102.402C218.038 101.471 220.153 100.075 222.206 98.1756C221.061 96.6293 218.768 94.1915 216.553 95.7067" fill="#E9E9B4"/>
<path d="M202.125 93.8473C200.326 91.7339 197.368 93.2011 195.55 94.4567C195.589 94.5329 195.629 94.6119 195.669 94.6881C196.975 97.1401 198.621 99.1378 200.501 100.633C202.133 98.503 203.672 95.6644 202.125 93.8501" fill="#E9E9B4"/>
<path d="M202.979 52.5951C203.092 56.6075 199.922 59.9483 195.901 60.0611C191.879 60.174 188.528 57.011 188.418 52.9986C188.305 48.9863 191.475 45.6455 195.496 45.5326C199.518 45.4197 202.866 48.5828 202.979 52.5951Z" fill="#FEFEFA"/>
<path d="M194.671 51.1222C194.702 52.2509 193.811 53.1905 192.68 53.2243C191.549 53.2554 190.604 52.3637 190.573 51.2351C190.542 50.1064 191.433 49.1668 192.564 49.1358C193.695 49.1048 194.637 49.9936 194.671 51.1222Z" fill="#2D2967"/>
<path d="M239.038 56.9121C239.151 60.9245 235.981 64.2653 231.959 64.3782C227.938 64.491 224.587 61.328 224.477 57.3156C224.363 53.3033 227.534 49.9625 231.555 49.8496C235.576 49.7367 238.924 52.8998 239.038 56.9121Z" fill="#FEFEFA"/>
<path d="M236.662 54.3445C236.693 55.4732 235.802 56.4128 234.671 56.4466C233.54 56.4777 232.595 55.586 232.564 54.4574C232.533 53.3287 233.424 52.3891 234.555 52.3581C235.686 52.3271 236.628 53.2159 236.662 54.3445Z" fill="#2D2967"/>
<path d="M248.463 73.8843C248.494 75.0101 247.606 75.9469 246.478 75.9779C245.35 76.009 244.411 75.123 244.38 73.9971C244.349 72.8713 245.237 71.9345 246.365 71.9035C247.493 71.8725 248.432 72.7585 248.463 73.8843Z" fill="#D8E085"/>
<path d="M201.981 39.0852C201.981 39.0852 198.865 39.0005 198.67 36.0689C198.475 33.1372 201.843 32.0847 201.721 29.771C201.599 27.4573 200.861 27.367 199.422 26.5035C197.982 25.6401 195.423 26.0493 195.186 24.2491C194.948 22.4489 197.471 22.8862 197.977 22.0821C198.483 21.2779 201.712 17.3474 202.391 17.3276C203.07 17.3079 203.107 18.5494 202.448 19.3592C201.792 20.169 200.494 22.3501 199.549 22.9398C198.602 23.5296 197.768 24.0628 197.889 24.2858C198.008 24.5087 203.423 25.8828 203.497 28.5351C203.624 33.1061 199.447 33.2783 199.589 35.4791C199.73 37.6772 201.274 38.171 202.069 38.2189C202.863 38.2669 202.773 39.2093 201.978 39.0823" fill="#D0D78A"/>
<path d="M210.75 34.0852C210.75 34.0852 206.372 32.4205 207.834 30.166C209.294 27.9115 212.229 29.8499 214.893 28.9978C217.557 28.1457 217.353 25.0447 216.587 24.1728C215.823 23.301 213.708 21.4951 214.378 20.3495C215.046 19.204 215.467 18.9613 216.047 18.7497C216.624 18.5409 216.641 17.6859 215.518 17.9088C214.395 18.1346 212 18.4703 211.893 20.3411C211.782 22.209 214.746 23.7581 214.621 24.8472C214.497 25.9392 213.388 26.7462 213.126 27.065C212.863 27.3839 212.048 27.5221 210.764 27.5588C209.48 27.5927 206.361 27.4092 206.211 30.403C206.061 33.3996 208.307 34.3448 209.288 34.6298C210.269 34.9148 211.191 34.5 210.753 34.0852" fill="#D0D78A"/>
<path d="M227.667 43.2132C227.667 43.2132 225.608 41.9491 226.957 40.0869C228.306 38.2246 229.465 39.3194 232.276 38.1907C235.087 37.0649 236.673 35.3494 235.132 33.14C233.591 30.9307 231.759 29.4268 234.018 29.4804C236.278 29.534 239.258 28.9076 240.511 27.7846C241.764 26.6616 243.251 24.1362 241.487 22.2796C239.722 20.4258 238.913 20.7192 238.379 21.1227C237.844 21.5262 238.141 22.4122 238.862 23.0894C239.583 23.7694 239.764 24.9347 239.433 25.564C239.105 26.1904 237.587 27.6322 236.032 27.714C234.476 27.7959 233.353 27.9821 232.457 27.968C231.561 27.9539 229.295 27.6294 230.958 30.0673C232.621 32.508 233.407 34.1163 232.963 34.9459C232.519 35.7726 232.041 36.7574 229.68 37.2906C227.319 37.8211 224.355 38.9921 224.728 41.2353C225.102 43.4785 226.36 43.9102 226.79 43.9751C227.22 44.04 228.029 43.7465 227.664 43.2132" fill="#D0D78A"/>
<path d="M224.601 138.073C224.714 137.817 224.867 137.594 225.062 137.407C225.257 137.218 225.484 137.072 225.741 136.964C225.998 136.857 226.273 136.804 226.564 136.804C226.855 136.804 227.127 136.857 227.384 136.964C227.641 137.072 227.865 137.218 228.057 137.407C228.249 137.594 228.402 137.817 228.515 138.073C228.628 138.327 228.685 138.604 228.685 138.903C228.685 139.202 228.628 139.49 228.515 139.747C228.402 140.003 228.249 140.229 228.057 140.418C227.865 140.607 227.641 140.757 227.384 140.861C227.127 140.968 226.855 141.019 226.564 141.019C226.273 141.019 225.998 140.965 225.741 140.861C225.484 140.757 225.257 140.61 225.062 140.418C224.867 140.226 224.714 140.003 224.601 139.747C224.488 139.49 224.432 139.208 224.432 138.903C224.432 138.598 224.488 138.33 224.601 138.073ZM224.949 139.622C225.04 139.842 225.161 140.034 225.317 140.195C225.472 140.359 225.659 140.486 225.871 140.576C226.083 140.669 226.315 140.714 226.564 140.714C226.813 140.714 227.036 140.669 227.248 140.576C227.46 140.483 227.644 140.356 227.8 140.195C227.958 140.034 228.08 139.842 228.167 139.622C228.255 139.402 228.3 139.162 228.3 138.903C228.3 138.643 228.255 138.415 228.167 138.197C228.077 137.98 227.955 137.791 227.8 137.63C227.644 137.469 227.46 137.343 227.248 137.252C227.036 137.159 226.807 137.114 226.564 137.114C226.321 137.114 226.083 137.159 225.871 137.252C225.659 137.343 225.472 137.469 225.317 137.63C225.158 137.791 225.037 137.98 224.949 138.197C224.861 138.418 224.816 138.652 224.816 138.903C224.816 139.154 224.861 139.402 224.949 139.622ZM226.694 137.675C226.988 137.675 227.206 137.735 227.347 137.85C227.489 137.966 227.559 138.144 227.559 138.381C227.559 138.604 227.497 138.765 227.373 138.869C227.248 138.973 227.093 139.033 226.909 139.052L227.616 140.142H227.203L226.53 139.081H226.123V140.142H225.738V137.673H226.694V137.675ZM226.524 138.773C226.612 138.773 226.691 138.77 226.77 138.765C226.847 138.759 226.917 138.745 226.977 138.717C227.036 138.691 227.084 138.649 227.121 138.595C227.155 138.542 227.175 138.466 227.175 138.367C227.175 138.285 227.158 138.217 227.127 138.169C227.096 138.121 227.053 138.082 227.002 138.056C226.951 138.031 226.892 138.011 226.827 138.003C226.762 137.994 226.694 137.989 226.632 137.989H226.123V138.773H226.524Z" fill="white"/>
<path d="M306.695 66.0345C306.695 66.0345 315.236 58.8902 311.491 45.3125C315.482 47.9648 323.343 57.7333 311.523 70.4193C309.699 68.0548 306.695 66.0345 306.695 66.0345Z" fill="#C32427"/>
<path d="M310.618 126.804C310.64 121.516 307.838 119.022 300.867 118.813C305.242 115.012 323.541 97.4335 312.9 77.005C303.03 62.8291 276.965 57.389 276.965 57.389C276.965 57.389 241.173 72.2618 242.024 90.9748C242.875 109.688 256.678 120.052 263.711 122.439C264.008 122.538 264.336 122.631 264.692 122.718C264.692 122.718 253.876 122.004 253.567 129.973C253.324 136.189 260.187 137.196 264.028 136.962C263.753 143.138 263.572 149.467 263.671 154.253C263.954 167.76 265.733 173.414 268.425 175.048C271.114 176.682 275.181 177.37 275.747 173.423C276.021 171.504 275.964 169.23 275.831 167.393C278.043 168.132 281.19 168.663 285.322 168.118C289.485 167.571 293.008 166.123 295.607 164.718C295.59 167.692 295.813 171.575 296.962 173.301C298.952 176.287 305.57 173.191 305.892 167.929C306.215 162.667 305.146 147.179 303.469 136.225C303.302 135.139 303.126 134.047 302.945 132.958C305.205 132.678 310.595 131.519 310.615 126.801" fill="#EDB5BB"/>
<path d="M301.06 136.798C301.06 136.798 304.106 152.946 304.145 162.243C304.188 171.541 302.101 171.958 300.203 171.882C298.308 171.809 297.302 171.445 297.302 171.445C297.302 171.445 300.554 168.869 300.955 159.199C301.357 149.532 301.057 136.798 301.057 136.798" fill="#FFFDFA"/>
<path d="M256.41 92.6198C256.41 92.6198 268.284 91.5448 279.067 90.7322C289.85 89.9195 301.809 88.5454 301.809 88.5454C301.809 88.5454 303.565 100.642 296.161 113.686C288.758 126.73 276.321 127.535 268.264 118.333C261.508 110.613 256.214 99.6936 256.41 92.617" fill="#C32427"/>
<path d="M295.129 95.7377C298.907 95.3793 299.173 91.034 299.06 88.8473C296.908 89.0815 293.664 89.4229 289.977 89.7784C290.305 92.6367 291.385 96.0904 295.126 95.7349" fill="#E9E9B4"/>
<path d="M265.807 98.0232C269.449 97.2698 269.449 93.1728 269.294 91.5081C265.64 91.81 262.351 92.095 260.01 92.3009C260.174 95.4245 261.602 98.8951 265.807 98.026" fill="#E9E9B4"/>
<path d="M288.834 114.598C286.931 116.68 288.718 119.803 289.748 121.259C291.594 119.874 293.333 118.034 294.9 115.721C293.432 114.473 290.647 112.62 288.834 114.598Z" fill="#E9E9B4"/>
<path d="M274.359 116.053C272.124 114.403 269.579 116.502 268.095 118.136C268.151 118.201 268.208 118.268 268.262 118.33C270.091 120.421 272.15 121.993 274.322 123.026C275.427 120.582 276.276 117.47 274.359 116.051" fill="#E9E9B4"/>
<path d="M256.356 81.6522C256.291 82.4253 255.609 83.0038 254.832 82.9389C254.054 82.874 253.477 82.1939 253.542 81.418C253.607 80.642 254.289 80.0664 255.066 80.1313C255.844 80.1962 256.421 80.8762 256.356 81.6522Z" fill="#421813"/>
<path d="M302.083 77.8062C302.018 78.5794 301.337 79.1578 300.559 79.0929C299.781 79.028 299.205 78.348 299.27 77.5721C299.335 76.7961 300.016 76.2205 300.794 76.2854C301.572 76.3503 302.148 77.0303 302.083 77.8062Z" fill="#421813"/>
<path d="M308.963 76.4265C308.963 76.4265 304.764 69.5192 294.032 64.9594C283.297 60.3997 276.951 59.5616 276.951 59.5616L278.902 63.3934C278.902 63.3934 286.365 63.9352 296.277 68.9718C306.192 74.0112 307.705 75.5405 308.963 76.4265Z" fill="#FFFDFA"/>
<path d="M298.229 122.611L298.466 119.747C298.466 119.747 305.575 118.472 309.518 124.597C304.806 121.968 300.375 122.143 298.229 122.611Z" fill="#FFFDFA"/>
<path d="M243.229 79.1522L240.545 85.2498C240.545 85.2498 222.492 77.8148 231.066 61.7428C232.667 74.5417 241.453 78.7515 243.232 79.1522" fill="#C32427"/>
<path d="M235.922 94.0109C235.922 94.0109 224.511 96.8805 224.989 104.451C225.464 112.021 232.794 109.902 234.502 108.74C236.21 107.574 236.971 104.392 235.356 102.021C233.742 99.6541 233.733 97.3432 235.922 94.0109Z" fill="#C32427"/>
<path d="M322.523 82.9981C322.523 82.9981 325.928 76.9598 331.7 77.3266C337.472 77.6934 338.73 84.0336 337.845 86.6323C336.96 89.231 333.286 93.3788 330.716 88.6018C328.145 83.8248 327.243 82.5861 322.523 82.9981Z" fill="#C32427"/>
<path d="M320.177 88.3959C320.177 88.3959 328.638 87.3152 329.037 93.2491C329.435 99.1858 324.919 99.8178 322.945 98.7061C320.974 97.5916 321.611 95.3145 322.416 93.6497C323.225 91.9878 320.858 89.564 320.177 88.3931" fill="#C32427"/>
<path d="M269.379 169.839C269.506 169.591 269.676 169.379 269.879 169.201C270.086 169.027 270.321 168.894 270.584 168.801C270.847 168.711 271.127 168.674 271.415 168.691C271.706 168.708 271.975 168.778 272.224 168.902C272.473 169.027 272.688 169.187 272.869 169.388C273.049 169.588 273.188 169.819 273.284 170.082C273.38 170.344 273.42 170.624 273.403 170.92C273.383 171.225 273.31 171.501 273.182 171.752C273.052 172.003 272.888 172.215 272.682 172.396C272.478 172.573 272.246 172.706 271.983 172.796C271.72 172.887 271.446 172.92 271.155 172.903C270.864 172.884 270.595 172.816 270.343 172.695C270.091 172.573 269.877 172.413 269.693 172.209C269.509 172.009 269.37 171.775 269.274 171.512C269.178 171.247 269.138 170.965 269.158 170.66C269.175 170.364 269.249 170.09 269.379 169.842M269.631 171.408C269.704 171.634 269.817 171.831 269.961 172.001C270.108 172.173 270.284 172.311 270.49 172.415C270.697 172.523 270.926 172.579 271.172 172.596C271.418 172.61 271.647 172.579 271.865 172.5C272.08 172.421 272.272 172.305 272.439 172.153C272.606 172.001 272.738 171.817 272.84 171.603C272.942 171.388 273.001 171.151 273.016 170.892C273.033 170.641 273.001 170.404 272.928 170.178C272.854 169.955 272.741 169.757 272.597 169.591C272.45 169.422 272.275 169.283 272.071 169.179C271.865 169.075 271.641 169.012 271.395 168.998C271.146 168.984 270.912 169.015 270.694 169.094C270.476 169.173 270.284 169.286 270.117 169.439C269.95 169.588 269.817 169.769 269.715 169.983C269.614 170.195 269.554 170.426 269.54 170.677C269.523 170.937 269.554 171.179 269.628 171.405M271.491 169.574C271.785 169.591 272 169.664 272.133 169.788C272.266 169.913 272.326 170.093 272.311 170.33C272.297 170.55 272.227 170.711 272.094 170.807C271.964 170.903 271.805 170.954 271.619 170.962L272.258 172.094L271.845 172.068L271.24 170.968L270.832 170.942L270.767 172.003L270.383 171.981L270.535 169.518L271.488 169.577L271.491 169.574ZM271.254 170.655C271.341 170.66 271.421 170.663 271.5 170.66C271.576 170.66 271.647 170.649 271.709 170.626C271.771 170.604 271.822 170.567 271.862 170.514C271.901 170.463 271.924 170.387 271.93 170.288C271.935 170.206 271.924 170.138 271.896 170.087C271.867 170.037 271.828 169.997 271.777 169.966C271.729 169.938 271.669 169.915 271.604 169.901C271.539 169.887 271.474 169.879 271.412 169.876L270.903 169.845L270.855 170.629L271.257 170.655H271.254Z" fill="white"/>
<path d="M395.088 51.2858C392.509 49.5082 390.286 48.9495 388.561 48.9016C387.037 35.3944 381.695 22.0453 362.403 16.7068C340.085 10.5303 329.184 26.8082 327.829 38.7776C327.744 39.5168 327.642 40.29 327.521 41.0969C325.4 40.7922 319.043 40.1827 316.169 43.3345C312.694 47.1465 310.904 52.0731 316.249 57.2677C318.525 59.4798 320.974 60.4589 323.036 60.8568C321.234 67.4594 319.642 72.544 319.642 72.544C318.025 77.9389 313.531 91.4714 311.987 104.863C311.515 109.688 315.304 112.625 320.833 113.458C326.361 114.29 329.424 111.073 330.433 108.085C330.753 107.137 330.993 105.76 331.172 104.321C333.968 105.896 338.363 107.557 345.099 108.396C352.932 109.372 359.572 109.157 364.12 108.734C363.956 109.482 363.766 110.252 363.551 110.986C362.672 113.977 362.881 116.014 364.75 118.24C366.622 120.469 379.232 121.29 383.248 111.417C388.782 100.486 389.65 83.1758 389.458 68.6699C391.338 68.4046 393.338 67.8629 395.133 66.8273C400.617 63.6671 401.301 55.5691 395.088 51.2858Z" fill="#A9C1C6"/>
<path d="M370.963 21.7321C370.963 21.7321 358.871 14.9771 349.821 17.3558C340.772 19.7344 335.241 23.9809 333.742 27.0791C332.243 30.1772 334.842 31.9069 335.784 31.8279C336.742 30.6259 341.637 24.1954 348.523 22.0397C355.412 19.8839 357.016 19.4409 370.963 21.7349" fill="#FFFDFA"/>
<path d="M333.818 22.5814C332.735 21.7265 330.826 19.8332 328.176 15.7531C323.852 9.08562 325.566 0.00280762 325.566 0.00280762C325.566 0.00280762 320.894 3.65681 320.671 11.9862C320.462 19.709 328.468 27.8607 329.633 29.0063C330.063 27.9256 330.682 26.6813 331.581 25.3579C332.393 24.1644 333.148 23.2643 333.815 22.5843" fill="#A3646A"/>
<path d="M378.151 23.2615C378.151 23.2615 382.614 21.6334 384.986 15.0167C387.359 8.39999 387.588 5.10716 387.472 1.54626C388.485 3.38596 394.972 10.8689 389.421 20.4116C383.869 29.9516 381.958 29.8697 381.958 29.8697C381.958 29.8697 381.061 26.2609 378.154 23.2643" fill="#A3646A"/>
<path d="M326.293 47.7448C326.293 47.7448 361.896 52.0167 377.402 54.0088C377.928 64.2005 373.502 78.3904 359.855 85.8028C346.207 93.2124 337.186 87.3604 332.432 73.399C327.679 59.4347 326.29 47.7448 326.29 47.7448" fill="#56585A"/>
<path d="M336.292 56.1701C340.144 56.3902 341.066 52.4484 341.224 49.5449C337.107 49.0455 333.493 48.611 330.849 48.2921C331.131 51.3169 332.229 55.9387 336.29 56.1701" fill="#ECE0B2"/>
<path d="M342.072 77.3379C340.596 74.8831 337.042 76.9909 334.697 78.7967C335.947 81.2261 337.392 83.2662 339.027 84.8717C340.709 83.4016 343.778 80.1708 342.072 77.3379Z" fill="#ECE0B2"/>
<path d="M358.449 79.4005C355.701 80.7154 355.902 84.9168 356.419 87.428C357.53 86.9822 358.676 86.4433 359.858 85.8028C361.648 84.8293 363.28 83.7374 364.761 82.5551C363.972 81.3418 361.444 77.97 358.449 79.4005Z" fill="#ECE0B2"/>
<path d="M374.555 53.6447C371.455 53.2525 367.835 52.8011 363.995 52.327C364.383 55.0443 365.599 59.9821 369.36 60.1796C373.104 60.3743 374.224 56.0685 374.557 53.6447" fill="#ECE0B2"/>
<path d="M331.358 41.6416C331.344 42.4711 330.659 43.1314 329.831 43.1173C328.999 43.1032 328.338 42.4203 328.352 41.5908C328.366 40.7641 329.05 40.1038 329.879 40.1179C330.71 40.132 331.372 40.8148 331.358 41.6416Z" fill="#482B18"/>
<path d="M379.246 47.883C379.231 48.7126 378.547 49.3728 377.719 49.3587C376.887 49.3446 376.225 48.6618 376.239 47.8322C376.254 47.0055 376.938 46.3452 377.767 46.3594C378.598 46.3735 379.26 47.0563 379.246 47.883Z" fill="#482B18"/>
<path d="M322.074 72.1771C322.074 72.1771 315.957 88.7739 314.255 98.6327C312.549 108.491 314.69 109.307 316.718 109.564C318.743 109.823 319.874 109.617 319.874 109.617C319.874 109.617 316.885 106.305 318.183 95.9719C319.483 85.6391 322.074 72.1771 322.074 72.1771Z" fill="#FFFDFA"/>
<path d="M316.681 51.3564L314.331 49.0652C314.331 49.0652 315.541 45.4225 321.061 43.4813C326.582 41.54 326.876 42.4288 326.876 42.4288C326.876 42.4288 322.874 43.6872 319.998 46.2888C317.122 48.8903 316.684 51.3536 316.684 51.3536" fill="#FFFDFA"/>
<path d="M324.942 39.5084C324.942 39.5084 323.494 39.3899 322.804 39.3476C322.111 39.3053 320.533 39.4351 320.533 39.4351C320.533 39.4351 319.424 37.9086 318.774 37.3019C318.593 36.8279 318.672 35.9475 319.017 35.9842C319.147 35.64 319.218 35.1998 319.475 34.9233C319.733 34.6439 320.151 34.1502 319.908 33.6084C319.665 33.0695 319.158 33.188 318.91 33.0582C318.661 32.9284 318.641 32.0791 319.178 32.0876C319.713 32.096 321.175 31.3342 321.175 31.3342C321.175 31.3342 322.159 30.973 322.131 30.6598C322.105 30.3466 322.363 29.9403 322.182 29.4352C322.001 28.9302 321.568 28.4505 321.582 27.6322C321.596 26.8139 320.974 26.3343 321.045 25.8631C321.115 25.3918 321.257 24.4833 321.257 24.4833C321.257 24.4833 322.148 25.9138 324.045 27.3585C325.943 28.8032 327.054 29.1051 327.054 29.1051C327.054 29.1051 325.813 31.0012 325.496 34.9571C325.179 38.9131 325.072 39.5084 325.072 39.5084" fill="#4E5050"/>
<path d="M338.484 15.1069L334.488 14.8643L334.426 18.634L336.815 18.8315L341.207 16.2948C341.207 16.2948 343.119 15.5274 341.73 16.9466C340.314 18.3941 339.389 20.1068 339.725 22.0538C339.725 22.0538 339.997 24.6666 340.636 26.0294C341.34 25.4764 342.876 24.0543 342.876 24.0543L346.255 27.2851L353.378 27.1214C353.378 27.1214 354.08 26.6615 353.896 26.2806C353.715 25.8996 352.103 22.3529 352.103 22.3529C352.103 22.3529 351.735 21.6559 352.335 21.6644C352.934 21.6757 355.426 21.5261 355.68 21.3258C355.935 21.1255 356.283 21.1001 356.283 21.1001C356.283 21.1001 355.963 19.5538 356.031 19.1165C356.102 18.6763 355.813 17.0059 354.292 15.66C352.77 14.3141 351.43 13.445 351.43 13.445C351.43 13.445 357.815 12.1978 365.883 15.8208C373.952 19.4438 376.536 21.2778 376.536 21.2778L376.915 21.2214C376.915 21.2214 377.119 18.3941 377.153 18.301C377.184 18.2079 377.95 15.7559 377.95 15.7559L372.945 15.5076L364.037 7.45751L363.386 10.6854L357.321 0.304688C357.321 0.304688 354.343 5.06477 352.901 6.52073C351.458 7.97386 349.697 9.83049 349.697 9.83049L348.424 8.64541C348.424 8.64541 346.792 8.30399 344.072 8.88807C341.354 9.47215 341.066 9.74866 341.066 9.74866L339.018 4.02359C339.018 4.02359 338.184 3.03602 338.094 4.76285C338 6.48969 338.292 11.8084 338.515 13.572C338.628 14.3592 338.489 15.1013 338.489 15.1013" fill="#575658"/>
<path d="M388.643 27.3415C388.292 27.7591 386.68 29.4747 385.889 29.9318C385.1 30.3889 384.596 30.6428 385.051 31.2579C385.507 31.8731 388.445 34.8724 389.93 39.6974C391.414 44.5224 391.386 46.3452 391.386 46.3452L393.498 46.6189C393.498 46.6189 393.422 44.2967 393.442 43.1088C393.462 41.9237 393.168 40.5016 393.329 39.4914C393.49 38.4813 393.47 36.1958 393.47 36.1958C393.47 36.1958 392.52 34.0683 391.312 32.6603C390.105 31.2523 388.117 30.3804 388.117 30.3804C388.117 30.3804 388.23 28.8793 388.581 28.5661C388.934 28.2557 389.319 27.6829 389.209 27.4205C389.098 27.1581 388.847 27.0989 388.646 27.3415" fill="#4D4F53"/>
<path d="M369.091 113.573C369.204 113.316 369.356 113.094 369.552 112.907C369.747 112.718 369.973 112.572 370.23 112.464C370.488 112.357 370.762 112.303 371.053 112.303C371.344 112.303 371.616 112.357 371.873 112.464C372.131 112.572 372.354 112.718 372.546 112.907C372.739 113.094 372.891 113.316 373.004 113.573C373.118 113.827 373.174 114.104 373.174 114.403C373.174 114.702 373.118 114.99 373.004 115.246C372.891 115.503 372.739 115.729 372.546 115.918C372.354 116.107 372.131 116.257 371.873 116.361C371.616 116.468 371.344 116.519 371.053 116.519C370.762 116.519 370.488 116.465 370.23 116.361C369.973 116.257 369.747 116.11 369.552 115.918C369.356 115.726 369.204 115.503 369.091 115.246C368.977 114.99 368.921 114.707 368.921 114.403C368.921 114.098 368.977 113.83 369.091 113.573ZM369.438 115.122C369.529 115.342 369.651 115.534 369.806 115.695C369.962 115.859 370.148 115.986 370.36 116.076C370.572 116.169 370.804 116.214 371.053 116.214C371.302 116.214 371.525 116.169 371.738 116.076C371.95 115.983 372.133 115.856 372.289 115.695C372.447 115.534 372.569 115.342 372.657 115.122C372.744 114.902 372.789 114.662 372.789 114.403C372.789 114.143 372.744 113.915 372.657 113.697C372.566 113.48 372.444 113.291 372.289 113.13C372.133 112.969 371.95 112.842 371.738 112.752C371.525 112.659 371.296 112.614 371.053 112.614C370.81 112.614 370.572 112.659 370.36 112.752C370.148 112.845 369.962 112.969 369.806 113.13C369.651 113.291 369.526 113.48 369.438 113.697C369.351 113.917 369.306 114.152 369.306 114.403C369.306 114.654 369.351 114.902 369.438 115.122ZM371.183 113.175C371.477 113.175 371.695 113.235 371.836 113.35C371.978 113.466 372.049 113.644 372.049 113.881C372.049 114.104 371.986 114.264 371.862 114.369C371.738 114.473 371.582 114.533 371.398 114.552L372.105 115.641H371.692L371.019 114.581H370.612V115.641H370.227V113.173H371.183V113.175ZM371.014 114.273C371.101 114.273 371.18 114.27 371.26 114.264C371.336 114.259 371.407 114.242 371.466 114.217C371.525 114.191 371.573 114.149 371.61 114.095C371.644 114.042 371.664 113.965 371.664 113.867C371.664 113.785 371.647 113.717 371.616 113.669C371.585 113.621 371.542 113.582 371.491 113.556C371.441 113.531 371.381 113.511 371.316 113.503C371.251 113.494 371.183 113.489 371.121 113.489H370.612V114.273H371.014Z" fill="white"/>
<path d="M476.509 136.008L463.286 147.323C463.286 147.323 467.454 156.064 476.795 149.634C486.136 143.203 476.507 136.008 476.507 136.008" fill="#FED296"/>
<path d="M484.45 82.9698C484.45 82.9698 497.58 81.6606 499.738 86.7508C501.896 91.841 492.374 94.4623 492.374 94.4623C492.374 94.4623 501.31 98.8245 500.623 104.372C499.936 109.919 493.336 108.082 493.336 108.082C493.336 108.082 501.257 118.407 497.903 121.846C494.552 125.286 488.177 121.598 488.177 121.598C488.177 121.598 490.231 135.404 486.727 136.694C483.223 137.983 479.162 131.386 479.162 131.386C479.162 131.386 476.696 142.294 470.958 142.492C465.22 142.692 466.617 137.029 466.617 137.029C466.617 137.029 456.511 146.631 451.941 143.017C447.371 139.402 451.384 135.133 451.384 135.133C451.384 135.133 439.399 138.511 436.681 135.686C433.966 132.862 437.826 126.44 437.826 126.44C437.826 126.44 430.918 130.452 428.633 128.643C426.348 126.838 427.14 112.574 427.14 112.574C427.14 112.574 420.893 115.751 419.55 111.982C418.204 108.212 425.319 96.9171 425.319 96.9171C425.319 96.9171 420.757 100.227 419.632 97.8313C416.518 91.2146 427.963 83.441 427.963 83.441C427.963 83.441 419.504 86.9765 418.947 83.0799C418.096 77.1263 437.357 73.9576 437.357 73.9576C437.357 73.9576 431.797 71.5902 431.775 66.1558C431.752 60.7241 448.759 67.4114 448.759 67.4114C448.759 67.4114 445.462 61.4183 449.195 58.2806C452.928 55.143 465.95 71.5338 465.95 71.5338C465.95 71.5338 463.77 61.012 468.798 60.9273C473.823 60.8427 478.925 77.0585 478.925 77.0585C478.925 77.0585 483.463 71.3532 485.451 72.7471C488.836 75.1173 484.453 82.9783 484.453 82.9783" fill="#DCA66D"/>
<path d="M462.986 151.549C459.301 154.419 455.504 157.142 451.624 159.741C450.094 160.768 448.55 161.775 446.997 162.763C444.927 164.083 442.837 165.37 440.731 166.631C438.949 167.695 437.17 168.86 435.244 169.662C431.933 171.038 428.186 170.959 425.316 168.561C422.768 166.428 422.923 163.344 424.068 160.545C424.088 160.494 424.108 160.443 424.128 160.395C425.169 157.94 426.537 155.678 427.434 153.152C427.592 152.709 427.739 152.261 427.883 151.806C427.79 151.118 427.592 150.441 427.329 149.794C426.43 147.594 424.682 145.7 422.618 144.515C420.392 143.245 417.949 143.144 415.474 143.576C414.759 143.7 414.029 143.88 413.325 144.126C412.675 144.885 412.055 145.675 411.447 146.487C410.424 147.853 409.191 149.464 407.664 150.477C406.804 151.047 405.851 151.428 404.793 151.465C400.933 151.603 398.233 147.568 397.56 144.222C397.096 141.911 397.396 139.603 398.018 137.36C398.521 135.52 399.245 133.72 399.941 131.998C401.674 127.69 403.691 123.508 405.192 119.109C406.626 114.911 408.108 110.721 409.742 106.593C413 96.8325 420.63 85.7125 420.63 85.7125C424.312 80.7352 428.814 76.4773 434.498 73.8589C435.663 73.3228 436.856 72.8798 438.078 72.5299C441.862 70.9639 446.005 70.3177 450.102 70.4109C459.234 70.6253 468.057 74.5981 475.299 80.0157C478.2 82.1855 480.98 84.6601 483.387 87.4196C484.283 88.283 485.134 89.1916 485.923 90.165C490.058 95.2722 492.153 101.677 492.108 108.187C492.06 114.685 490.075 121.073 486.919 126.705C485.494 129.25 483.822 131.615 481.993 133.847C481.993 133.847 472.443 143.581 462.986 151.544" fill="#FFECBA"/>
<path d="M430.154 84.0337C430.601 83.4468 430.309 82.3379 429.455 82.3069C428.613 82.2758 427.849 82.5157 427.213 83.0772C426.921 83.3339 426.642 83.6274 426.455 83.949C426.305 84.0929 426.161 84.2425 426.025 84.4005C425.59 84.8999 425.929 85.8621 426.63 85.8988C426.896 85.9129 427.151 85.8988 427.391 85.8649C427.529 85.8649 427.671 85.8452 427.798 85.7972C427.826 85.7859 427.849 85.7718 427.874 85.7605C428.791 85.4925 429.523 84.8689 430.154 84.0365" fill="#EBC17D"/>
<path d="M422.182 87.5551C422.035 87.5579 421.891 87.572 421.75 87.5974C420.593 87.6143 419.176 88.9659 418.862 89.8124C418.571 90.5996 419.301 91.2994 420.081 91.0623C420.206 91.0257 420.327 90.9833 420.449 90.9382C420.621 90.9777 420.802 90.9692 420.975 90.8789C421.181 90.7717 421.388 90.6758 421.535 90.4896C421.552 90.4698 421.563 90.4472 421.574 90.4246C422.061 90.1538 422.522 89.8321 422.943 89.4681C423.766 88.7571 423.265 87.5325 422.182 87.5522" fill="#EBC17D"/>
<path d="M427.343 91.1356C427.221 90.275 425.982 89.7982 425.439 90.5882C425.329 90.7519 425.193 90.9268 425.055 91.1074C423.952 91.9849 423.57 93.7005 424.308 94.9505C424.65 95.5289 425.431 95.3765 425.813 94.9843C426.786 93.9855 427.549 92.5775 427.345 91.1356M426.381 93.2039C426.392 93.1418 426.395 93.0797 426.395 93.012C426.407 92.9979 426.421 92.9838 426.429 92.9697C426.491 93.2123 426.429 93.2462 426.381 93.2039Z" fill="#EBC17D"/>
<path d="M483.05 123.158C483.163 122.34 482.119 121.615 481.435 122.19C480.977 122.574 480.59 123.023 480.295 123.531C479.668 124.233 479.28 125.148 479.342 126.098C479.385 126.73 480.25 127.137 480.745 126.714C481.823 125.785 482.846 124.617 483.047 123.158" fill="#EBC17D"/>
<path d="M476.122 127.377C475.248 127.56 473.444 128.432 473.175 129.459C473.113 129.572 473.053 129.685 473 129.803C472.66 130.573 473.458 131.183 474.165 130.997C475.313 130.698 476.246 129.848 477.044 129.016C477.629 128.404 476.964 127.199 476.122 127.374" fill="#EBC17D"/>
<path d="M481.201 131.366C481.074 130.619 480.183 130.13 479.532 130.636C479.244 130.861 478.972 131.126 478.718 131.411C478.506 131.544 478.316 131.742 478.172 131.933C478.019 132.142 477.904 132.368 477.822 132.605C477.807 132.625 477.796 132.647 477.782 132.667C477.434 133.212 477.245 133.88 477.765 134.411C478.164 134.82 478.692 134.831 479.114 134.591C480.451 134.112 481.45 132.845 481.201 131.366Z" fill="#EBC17D"/>
<path d="M413.947 124.552C414.179 124.132 414.388 123.709 414.566 123.274C414.577 123.254 414.592 123.234 414.603 123.215C414.676 123.076 414.725 122.927 414.753 122.775C414.911 122.306 415.03 121.824 415.089 121.313C415.245 120.004 413.721 119.047 412.629 119.837C411.919 120.351 411.45 121.22 411.453 122.097C411.274 122.769 411.26 123.491 411.345 124.168C411.419 124.764 411.911 125.269 412.507 125.356C413.144 125.449 413.653 125.08 413.947 124.552Z" fill="#EBC17D"/>
<path d="M419.877 125.105C419.965 124.281 419.535 123.711 418.856 123.313C418.036 122.831 417.038 122.924 416.419 123.68C416.15 124.01 416.043 124.439 416.051 124.857C416.051 124.877 416.054 124.891 416.054 124.908C415.485 125.701 415.197 126.691 414.957 127.639C414.671 128.77 416.113 129.857 417.137 129.363C418.947 128.488 419.671 127.044 419.874 125.105" fill="#EBC17D"/>
<path d="M412.095 131.728C412.072 130.616 410.415 129.837 409.584 130.624C408.942 131.234 408.549 131.801 408.357 132.673C408.292 132.958 408.235 133.26 408.215 133.556C408.105 134.148 408.102 134.764 408.144 135.367C408.235 136.64 409.802 136.829 410.548 136.059C411.719 134.854 412.129 133.373 412.095 131.728Z" fill="#EBC17D"/>
<path d="M444.797 149.989C445.346 148.705 444.003 147.371 442.71 147.85C441.703 148.223 441.098 148.965 440.77 149.935C440.456 150.37 440.19 150.844 439.981 151.335C439.529 152.399 440.688 153.759 441.822 153.223C443.25 152.548 444.186 151.42 444.797 149.989Z" fill="#EBC17D"/>
<path d="M450.173 156.284C450.631 155.85 450.917 155.339 450.738 154.681C450.572 154.058 450.096 153.663 449.469 153.525C448.533 153.319 447.563 153.533 447.051 154.394C447.02 154.444 446.997 154.495 446.972 154.549C446.494 154.856 446.072 155.254 445.801 155.596C445.071 156.515 445.877 157.785 446.991 157.718C447.526 157.684 448.009 157.576 448.462 157.401C448.762 157.348 449.033 157.204 449.254 157.004C449.573 156.803 449.879 156.569 450.173 156.287" fill="#EBC17D"/>
<path d="M440.136 160.22C440.931 159.758 441.638 159.182 442.257 158.457C443.21 157.337 441.853 155.311 440.45 156.027C440.128 156.191 439.811 156.36 439.494 156.538C438.968 156.674 438.473 157.009 438.06 157.43C437.435 157.856 436.864 158.338 436.762 159.148C436.641 160.102 437.206 161.067 438.216 161.213C438.849 161.307 439.375 161.024 439.8 160.59C439.836 160.55 439.873 160.517 439.907 160.491C439.831 160.533 439.726 160.59 439.585 160.658C439.808 160.55 439.992 160.398 440.136 160.223" fill="#EBC17D"/>
<path d="M439.907 160.488C440.071 160.35 440.15 160.35 439.907 160.488V160.488Z" fill="#EBC17D"/>
<path d="M440.888 90.8619C440.888 90.8619 448.809 98.0656 455.896 104.702C462.983 111.341 471.153 118.424 471.153 118.424C471.153 118.424 464.233 126.852 451.125 129.792C438.015 132.732 429.93 124.995 431.112 114.143C432.105 105.041 436.098 94.9815 440.888 90.8591" fill="#56585A"/>
<path d="M462.35 118.333C464.881 120.616 467.91 118.181 469.287 116.795C467.825 115.512 465.627 113.573 463.156 111.35C461.468 113.283 459.844 116.073 462.35 118.333Z" fill="#EDD180"/>
<path d="M446.861 101.815C448.824 103.232 450.786 101.449 451.513 100.647C449.76 99.0305 448.176 97.5774 447.048 96.5447C445.625 97.9809 444.593 100.176 446.861 101.813" fill="#EDD180"/>
<path d="M446.075 125.497C443.544 125.489 442.565 128.548 442.231 130.102C444.268 130.492 446.541 130.537 449.018 130.181C448.951 128.463 448.481 125.506 446.075 125.497Z" fill="#EDD180"/>
<path d="M436.322 116.807C436.053 114.338 433.123 113.917 431.141 113.917C431.133 113.994 431.121 114.07 431.113 114.146C430.844 116.612 431.056 118.915 431.695 120.972C433.98 120.235 436.551 118.926 436.322 116.807Z" fill="#EDD180"/>
<path d="M453.948 88.2238C452.933 89.502 451.064 89.7107 449.772 88.6865C448.479 87.6651 448.256 85.8 449.271 84.5218C450.286 83.2436 452.156 83.0348 453.448 84.059C454.74 85.0805 454.964 86.9456 453.948 88.2238Z" fill="#665A44"/>
<path d="M478.454 110.12C477.439 111.398 475.57 111.607 474.277 110.582C472.985 109.561 472.762 107.696 473.777 106.418C474.792 105.139 476.661 104.931 477.954 105.955C479.246 106.976 479.47 108.841 478.454 110.12Z" fill="#665A44"/>
<path d="M420.632 85.7181C420.632 85.7181 414.499 81.9371 408.371 89.6515C402.243 97.3658 413.862 104.047 413.862 104.047L420.632 85.7209V85.7181Z" fill="#FFECBA"/>
<path d="M406.009 120.859C406.009 120.859 394.384 140.554 399.943 147.673C401.041 148.956 402.729 150.294 405.152 149.907C404.038 146.513 397.141 145.872 406.012 120.859" fill="white"/>
<path d="M485.292 89.0815C485.292 89.0815 489.226 102.242 484.758 102.896C480.29 103.548 477.391 94.6175 481.972 87.3264C474.818 95.8731 469.111 96.6632 467.589 91.8297C466.068 86.9963 478.449 81.7142 478.449 81.7142C478.449 81.7142 464.385 91.2457 462.689 82.3688C460.995 73.492 475.242 77.225 475.242 77.225L485.292 89.0815Z" fill="#DCA66D"/>
<path d="M499.384 130.19C499.384 130.19 500.433 130.215 500.405 131.262L500.326 134.397C500.326 134.397 500.3 135.444 499.251 135.415L490.869 135.207C490.869 135.207 489.823 135.178 489.848 134.134L489.927 131C489.927 131 489.956 129.956 491.002 129.981L499.384 130.193V130.19Z" fill="#898D8D"/>
<path d="M498.205 135.39L497.105 137.456C497.105 137.456 503.363 138.66 503.179 145.977C502.783 161.657 482.982 156.973 482.982 156.973C482.982 156.973 492.518 153.028 492.569 150.937L490.527 148.793L484.241 148.635L484.374 143.406L489.611 143.539L489.716 139.357L492.911 137.345L491.916 135.229L498.202 135.387L498.205 135.39Z" fill="#B7BABB"/>
<path d="M459.567 150.105C456.956 150.04 454.906 147.884 454.971 145.283C455.036 142.678 457.194 140.633 459.804 140.698C460.568 140.717 463.941 140.983 468.308 141.42C473.237 141.911 479.438 142.616 484.602 143.418L484.469 148.643C479.272 149.182 473.042 149.574 468.093 149.817C463.709 150.031 460.327 150.127 459.564 150.108" fill="#F5896B"/>
<path d="M483.573 148.429C483.573 148.429 482.759 140.678 473.941 143.056C465.121 145.435 467.912 151.913 470.339 153.327C472.768 154.741 481.249 155.237 483.573 148.429Z" fill="#FFECBA"/>
<g opacity="0.4">
<mask id="mask0_679_3805" style="mask-type:luminance" maskUnits="userSpaceOnUse" x="431" y="72" width="60" height="56">
<path d="M490.94 72.5665H431.885V127.052H490.94V72.5665Z" fill="white"/>
</mask>
<g mask="url(#mask0_679_3805)">
<mask id="mask1_679_3805" style="mask-type:luminance" maskUnits="userSpaceOnUse" x="431" y="72" width="60" height="56">
<path d="M448.49 72.5367L431.86 93.4709L474.285 127.022L490.915 106.088L448.49 72.5367Z" fill="white"/>
</mask>
<g mask="url(#mask1_679_3805)">
<path d="M488.743 106.57L480.548 119.177C479.787 120.286 476.849 123.587 471.099 119.865C466.968 117.193 466.439 113.483 465.868 109.555C465.775 108.884 465.673 108.19 465.543 107.498C465.22 105.653 464.717 103.796 463.625 102.239C463.065 101.437 462.353 100.715 461.422 100.114L461.403 100.1C460.922 99.7896 460.433 99.5413 459.943 99.3551C456.943 98.1925 453.781 99.0842 450.942 99.894C447.124 100.98 443.51 102.007 439.379 99.3353C433.63 95.6136 435.454 91.5899 436.158 90.4472L444.353 77.8402C444.61 77.4451 445.382 76.2572 446.969 77.2843L488.191 103.963C489.778 104.99 489.006 106.178 488.748 106.57" fill="white"/>
</g>
</g>
</g>
<path d="M441.179 75.8227L438.009 73.7713C438.009 73.7713 436.426 72.7443 435.396 74.3272L429.229 83.8135C429.229 83.8135 428.199 85.3936 429.786 86.4207L432.956 88.472L441.179 75.8227Z" fill="#B7BABB"/>
<path d="M430.258 82.2335L425.505 79.1551C425.505 79.1551 422.337 77.1037 424.391 73.9407C426.446 70.7777 429.617 72.829 429.617 72.829L434.37 75.9045L430.258 82.2306V82.2335Z" fill="#CDCFCE"/>
<path d="M490.244 100.836L469.642 87.5042L469.62 87.4901L449.018 74.1551C449.018 74.1551 444.265 71.0767 441.179 75.8227L432.956 88.472C432.956 88.472 427.815 96.3782 437.325 102.532C446.832 108.686 454.587 100.224 459.34 103.3L459.363 103.314C464.117 106.389 459.533 116.903 469.043 123.057C478.55 129.211 483.691 121.304 483.691 121.304L491.915 108.655C495 103.912 490.244 100.834 490.244 100.834M488.745 106.604L480.55 119.211C479.789 120.32 476.851 123.621 471.102 119.899C466.97 117.227 466.441 113.517 465.87 109.589C465.774 108.918 465.675 108.223 465.545 107.532C465.222 105.687 464.719 103.83 463.627 102.273C463.067 101.471 462.355 100.749 461.424 100.148L461.405 100.134C460.924 99.8234 460.435 99.5751 459.945 99.3889C456.945 98.2264 453.783 99.118 450.944 99.9278C447.127 101.014 443.512 102.041 439.381 99.3692C433.632 95.6474 435.456 91.6238 436.16 90.481L444.355 77.874C444.613 77.479 445.385 76.2911 446.971 77.3182L488.193 103.997C489.78 105.024 489.008 106.212 488.751 106.604" fill="#F5896B"/>
<path d="M491.916 108.658L495.086 110.709C495.086 110.709 496.67 111.736 495.643 113.316L489.475 122.803C489.475 122.803 488.446 124.383 486.862 123.359L483.692 121.307L491.916 108.658Z" fill="#B7BABB"/>
<path d="M490.502 121.223L495.256 124.301C495.256 124.301 498.426 126.352 500.482 123.189C502.538 120.026 499.367 117.975 499.367 117.975L494.614 114.897L490.502 121.223Z" fill="#CDCFCE"/>
<path d="M458.023 171.744C458.705 184.602 457.014 197.003 452.814 209.012C450.408 215.891 452.351 216.571 458.702 215.296C474.762 212.068 490.923 210.434 507.328 213.318C530.124 217.327 549.552 226.153 558.542 249.274C566.126 268.779 558.477 289.507 539.501 302.93C525.907 312.543 510.453 316.361 494.091 316.473C460.303 316.705 426.509 316.773 392.721 316.462C385.106 316.392 204.894 316.349 200.013 316.346C166.785 316.321 133.469 314.752 100.355 316.685C64.3072 318.787 37.5919 275.921 41.0843 250.069C43.3071 233.625 52.6505 222.448 68.1786 216.399C80.8759 211.453 94.136 209.587 108.004 208.806C108.004 208.806 130.404 207.861 141.26 209.091C137.79 205.036 137.038 196.56 137.038 196.56C131.592 160.689 156.989 124.894 185.141 116.051C203.986 110.131 221.887 113.054 238.965 121.999C253.316 129.515 265.672 139.735 276.2 152.009C280.264 156.747 282.215 156.262 284.65 150.615C291.83 133.979 301.382 118.957 314.504 106.11C346.355 74.9169 391.76 74.2651 424.646 104.784C435.338 114.707 443.485 126.302 449.54 139.484C449.54 139.484 457.348 159.094 458.018 171.752" fill="#B9DFF6"/>
<path d="M141.274 196.6C141.274 196.6 139.973 151.499 169.714 129.775C198.358 108.85 239.063 123.198 253.754 136.832C254.521 137.543 254.591 138.717 253.969 139.555C253.429 140.28 252.765 141.163 252.123 142.012C250.825 143.728 248.421 144.137 246.639 142.929C237.463 136.716 209.113 120.486 178.964 133.2C142.252 148.683 141.274 196.6 141.274 196.6Z" fill="white"/>
<path d="M291.026 147.754C291.026 147.754 306.201 122.887 334.638 99.9166C367.14 73.6642 404.236 92.1938 418.574 106.085C419.224 106.714 419.306 107.716 418.814 108.475L416.543 111.965C415.22 114.002 412.446 114.459 410.517 112.978C401.021 105.687 373.508 88.0488 344.629 102.281C308.673 120.004 291.026 147.752 291.026 147.752" fill="white"/>
<path d="M486.65 312.884C486.65 312.884 514.938 317.771 538.483 299.798C562.028 281.821 558.711 263.531 558.711 263.531C558.711 263.531 553.867 286.92 532.31 299.476C510.753 312.032 486.65 312.884 486.65 312.884Z" fill="#5F83A6"/>
<path d="M227.732 307.636C222.743 319.563 217.857 331.532 212.942 343.488C210.677 348.995 207.934 348.293 204.232 344.611C200.867 341.264 197.205 338.064 193.2 335.55C188.039 332.308 182.197 330.624 176.484 334.267C170.28 338.225 167.509 344.114 168.182 351.532C168.886 359.325 172.851 365.254 178.857 369.938C186.105 375.586 194.835 378.081 203.324 381.049C210.091 383.414 214.11 381.453 216.847 374.368C224.239 355.234 232.63 336.487 240.019 317.351C242.983 309.67 246.286 307.597 254.391 311.025" fill="#B9DFF6"/>
<path d="M327.258 306.547C334.576 304.312 337.862 305.737 339.969 313.285C345.707 333.852 352.327 354.17 358.204 374.7C359.985 380.922 363.444 382.872 369.363 381.659C377.1 380.073 384.913 378.388 391.952 374.861C401.471 370.09 408.492 363.05 408.023 351.27C407.52 338.643 397.486 331.99 385.739 336.575C380.168 338.75 375.349 342.266 371.048 346.323C366.88 350.254 365.121 348.888 363.729 344.049C360.392 332.435 357.197 320.76 353.201 309.369C350.577 301.888 352.848 298.977 360.161 296.863" fill="#B9DFF6"/>
<path d="M278.601 230.154C278.601 245.555 266.09 258.038 250.655 258.038C235.221 258.038 222.707 245.555 222.707 230.154C222.707 214.754 235.218 202.271 250.655 202.271C266.093 202.271 278.601 214.754 278.601 230.154Z" fill="white"/>
<path d="M340.478 230.154C340.478 245.555 327.967 258.038 312.532 258.038C297.098 258.038 284.584 245.555 284.584 230.154C284.584 214.754 297.095 202.271 312.532 202.271C327.97 202.271 340.478 214.754 340.478 230.154Z" fill="white"/>
<mask id="mask2_679_3805" style="mask-type:luminance" maskUnits="userSpaceOnUse" x="222" y="202" width="57" height="57">
<path d="M222.707 230.154C222.707 245.555 235.218 258.038 250.652 258.038C266.087 258.038 278.601 245.552 278.601 230.154C278.601 214.757 266.09 202.268 250.652 202.268C235.215 202.268 222.707 214.751 222.707 230.154Z" fill="white"/>
</mask>
<g mask="url(#mask2_679_3805)">
<path d="M264.988 212.169C264.988 219.762 258.817 225.919 251.207 225.919C243.597 225.919 237.427 219.762 237.427 212.169C237.427 204.576 243.597 198.42 251.207 198.42C258.817 198.42 264.988 204.576 264.988 212.169Z" fill="#5F83A6"/>
</g>
<mask id="mask3_679_3805" style="mask-type:luminance" maskUnits="userSpaceOnUse" x="284" y="202" width="57" height="57">
<path d="M284.584 230.154C284.584 245.555 297.098 258.038 312.529 258.038C327.961 258.038 340.475 245.552 340.475 230.154C340.475 214.757 327.964 202.268 312.529 202.268C297.095 202.268 284.584 214.751 284.584 230.154Z" fill="white"/>
</mask>
<g mask="url(#mask3_679_3805)">
<path d="M326.313 212.169C326.313 219.762 320.142 225.919 312.532 225.919C304.922 225.919 298.752 219.762 298.752 212.169C298.752 204.576 304.922 198.42 312.532 198.42C320.142 198.42 326.313 204.576 326.313 212.169Z" fill="#5F83A6"/>
</g>
<path d="M108.007 206.794C95.8691 195.259 82.7363 185.556 71.6452 173.617C63.2322 164.563 54.8446 155.469 46.8444 146.053C42.9164 141.428 38.7735 138.688 32.4588 139.016C21.8739 139.566 12.7652 135.116 4.04112 129.71C0.83709 127.724 -1.37434 125.351 0.989797 121.482C3.05135 118.11 6.32041 117.272 9.81006 118.771C12.6267 119.981 15.1209 121.914 17.83 123.398C19.7445 124.448 22.3603 126.412 23.828 124.044C25.5813 121.214 22.1256 120.438 20.344 119.566C15.9551 117.416 11.8716 114.981 9.73653 110.371C8.62516 107.969 6.10832 105.28 9.0041 102.789C11.7557 100.424 15.0219 101.468 17.5557 103.458C22.4169 107.275 27.0207 111.417 31.7631 115.385C32.784 116.24 33.9463 116.922 35.9428 118.313C36.203 111.022 31.2796 107.769 28.0925 103.678C24.3399 98.8612 17.8922 93.2857 24.945 88.139C31.4238 83.4128 35.1991 91.2372 38.5219 95.6671C42.2095 100.585 45.3202 106 48.1424 111.477C50.3199 115.703 51.6971 116.866 54.6975 112.095C57.9807 106.88 62.7175 103.469 69.2726 103.463C72.5445 103.46 75.4487 104.358 77.154 107.397C79.043 110.766 76.9928 113.336 75.0726 115.768C72.0043 119.657 67.7314 121.821 63.1869 123.483C57.8733 125.424 57.1691 128.725 59.9546 133.35C77.1342 161.888 99.404 185.073 129.753 199.867C132.895 201.399 136.311 202.279 140.279 202.607C144.246 202.937 159.786 216.571 141.712 218.882C123.639 221.19 108.004 206.8 108.004 206.8" fill="#B9DFF6"/>
<path d="M448.62 200.335C450.594 199.511 457.862 195.572 459.287 194.291C470.913 183.854 479.71 171.137 488.327 158.285C491.593 153.412 491.681 149.521 485.134 147.269C480.262 145.593 476.079 142.656 473.042 138.429C468.783 132.503 471.195 127.278 478.497 126.75C485.929 126.211 490.51 130.777 494.215 136.358C496.819 140.28 498.352 139.859 500.617 135.92C504.534 129.115 508.677 122.394 513.317 116.068C516.111 112.261 520.229 108.032 525.288 112.196C529.86 115.957 526.682 120.438 524.148 124.199C520.46 129.668 514.839 133.813 513.953 141.973C518.636 138.133 523.218 134.157 528.039 130.494C531.639 127.76 535.929 122.202 540.171 127.075C544.633 132.202 538.565 136.129 535.143 139.47C533.008 141.555 529.925 142.681 527.259 144.222C525.641 145.153 522.791 145.632 523.735 148.053C524.866 150.951 527.711 149.583 529.6 148.733C532.137 147.591 534.368 145.788 536.775 144.337C540.906 141.846 545.024 141.527 547.832 145.991C550.597 150.387 546.87 152.641 543.873 154.715C535.259 160.677 525.522 163.18 515.175 163.149C510.67 163.135 507.11 164.061 504.058 167.715C489.065 185.654 472.273 201.848 454.737 217.279C454.737 217.279 442.916 226.867 438.694 218.196C434.472 209.523 438.397 204.596 448.623 200.332" fill="#B9DFF6"/>
<path d="M365.355 374.404C364.634 375.809 364.083 380.615 370.872 379.486C377.662 378.357 392.37 373.699 396.898 369.749C401.425 365.798 406.94 358.318 403.546 352.672C400.153 347.026 393.363 347.026 385.442 352.672C377.521 358.318 368.186 368.902 365.358 374.404" fill="#5F83A6"/>
<path d="M209.319 373.685C209.902 375.152 209.984 379.988 203.335 378.208C196.687 376.43 182.499 370.375 178.376 366.004C174.253 361.634 169.491 353.657 173.416 348.366C177.341 343.076 184.1 343.73 191.436 350.113C198.771 356.495 207.037 367.931 209.319 373.682" fill="#5F83A6"/>
<path d="M256.846 267.572C252.988 267.493 250.514 271.686 252.51 274.981C256.209 281.093 264.47 288.658 282.681 288.508C301.046 288.359 308.116 280.774 310.836 274.767C312.335 271.457 309.813 267.744 306.173 267.848C292.882 268.224 268.859 267.817 256.846 267.572Z" fill="#5F83A6"/>
<mask id="mask4_679_3805" style="mask-type:luminance" maskUnits="userSpaceOnUse" x="250" y="267" width="63" height="22">
<path d="M250.808 271.601C253.33 277.803 260.869 288.689 282.678 288.511C304.674 288.333 310.468 277.484 311.99 271.463C312.482 269.519 310.946 267.668 308.941 267.755C295.376 268.337 264.744 267.75 253.678 267.507C253.655 267.507 253.633 267.507 253.61 267.507C251.495 267.507 250.007 269.634 250.808 271.601Z" fill="white"/>
</mask>
<g mask="url(#mask4_679_3805)">
<path d="M293.497 268.96C293.497 274.993 288.421 279.883 282.16 279.883C275.899 279.883 270.823 274.993 270.823 268.96C270.823 262.927 275.899 258.038 282.16 258.038C288.421 258.038 293.497 262.927 293.497 268.96Z" fill="white"/>
</g>
<path d="M513.24 320.429C513.39 320.28 513.441 320.029 513.351 319.792C513.232 319.484 512.924 319.318 512.661 319.416C512.601 319.439 512.55 319.473 512.508 319.515C512.358 319.665 512.307 319.916 512.4 320.153C512.519 320.46 512.825 320.627 513.09 320.528C513.15 320.506 513.201 320.472 513.243 320.429" fill="#FBC683"/>
<path d="M498.929 350.889C488.149 338.86 486.868 307.433 486.868 307.433C486.045 304.563 485.233 302.055 484.478 300.249C480.581 290.918 475.366 276.863 473.763 271.107C472.16 265.351 474.459 263.607 476.532 262.36C478.604 261.113 481.91 259.948 484.501 263.447C485.598 264.931 486.735 266.466 487.682 267.741C489.673 266.164 492.707 264.33 497.215 262.767C501.762 261.189 507.175 260.233 511.827 259.66C511.072 259.053 510.269 258.368 509.513 257.634C506.932 255.129 504.37 252.217 507.944 250.555C511.516 248.893 514.714 249.75 515.531 249.79C516.349 249.832 519.796 250.62 523.744 253.684C527.691 256.748 536.509 263.291 544.407 274.251C547.458 278.489 550.289 284.011 552.611 289.191C555.255 294.744 559.095 305.881 559.095 305.881C559.876 308.113 561.544 313.13 561.652 315.359C561.652 315.359 567.361 340.141 551.924 347.441C536.483 354.743 538.966 347.108 525.262 353.583C516.001 357.963 506.12 358.911 498.929 350.886" fill="#72DAC6"/>
<path d="M479.831 263.153C479.831 263.153 476.249 262.961 474.987 265.19C473.729 267.419 475.53 273.624 476.89 276.942C478.251 280.264 486.084 298.201 486.084 298.201C486.084 298.201 487.637 299.651 486.276 296.079C484.919 292.507 480.369 281.113 479.636 273.297C478.904 265.481 479.831 263.15 479.831 263.15" fill="#FFFFFA"/>
<path d="M532.306 339.473C530.005 335.816 531.107 330.991 534.772 328.694C538.437 326.397 543.273 327.498 545.575 331.154C547.877 334.811 546.774 339.636 543.109 341.933C539.444 344.23 534.608 343.129 532.306 339.473Z" fill="#FCFDFA"/>
<path d="M540.812 336.301C540.165 335.271 540.476 333.914 541.508 333.268C542.54 332.622 543.901 332.932 544.548 333.959C545.196 334.989 544.885 336.346 543.852 336.992C542.82 337.638 541.46 337.328 540.812 336.298" fill="#121617"/>
<path d="M521.912 333.598C518.812 330.584 513.852 330.649 510.832 333.742C507.812 336.834 507.877 341.783 510.976 344.797C514.075 347.81 519.036 347.745 522.056 344.653C525.076 341.56 525.011 336.611 521.912 333.598Z" fill="#FCFDFA"/>
<path d="M517.019 341.227C516.148 340.378 514.751 340.398 513.9 341.267C513.051 342.136 513.068 343.53 513.939 344.379C514.81 345.226 516.207 345.209 517.058 344.34C517.91 343.471 517.89 342.077 517.019 341.227Z" fill="#121617"/>
<path d="M544.865 320.98C544.865 320.98 535.137 322.853 526.286 324.416C517.437 325.982 507.661 328.107 507.661 328.107C507.661 328.107 505.204 318.248 510.24 306.849C515.277 295.449 525.497 293.754 532.923 300.695C539.153 306.519 544.438 315.111 544.865 320.977" fill="#FF5100"/>
<path d="M520.254 322.901C518.6 323.226 518.676 325.158 518.823 326.121C519.765 325.923 521.182 325.627 522.796 325.308C522.525 324.061 521.894 322.579 520.254 322.904" fill="#E7E9B2"/>
<path d="M531.956 318.214C529.006 319.137 529.348 322.529 529.614 323.891C532.609 323.338 535.307 322.83 537.224 322.469C536.828 319.899 535.361 317.148 531.956 318.214Z" fill="#E7E9B2"/>
<path d="M516.224 305.492C517.627 303.613 515.888 301.177 514.915 300.057C513.504 301.355 512.217 303.023 511.114 305.063C512.432 305.971 514.89 307.275 516.224 305.489" fill="#E7E9B2"/>
<path d="M528.07 303.088C530.055 304.267 531.987 302.32 533.075 300.844C533.022 300.796 532.971 300.746 532.92 300.698C531.232 299.12 529.399 297.992 527.518 297.317C526.809 299.428 526.362 302.075 528.067 303.088" fill="#E7E9B2"/>
<path d="M486.084 315.827C486.257 315.664 486.387 315.463 486.472 315.226C487.685 311.804 489.76 308.469 491.822 305.37C495.832 299.346 500.863 293.463 506.773 287.885C508.515 286.24 510.365 284.592 512.271 282.989C519.971 276.508 526.676 272.087 533.367 269.081C535.847 267.967 538.273 266.937 540.691 266.576C541.008 266.528 541.271 266.407 541.475 266.212C541.89 265.82 541.984 265.176 541.706 264.618C541.412 264.022 540.787 263.703 540.114 263.805C537.267 264.234 534.405 265.484 531.718 266.731C524.73 269.97 517.717 274.623 510.277 280.955C508.331 282.611 506.456 284.287 504.709 285.938C498.27 292.016 493.148 298.037 489.056 304.34C487.125 307.314 484.959 310.796 483.649 314.481C483.429 315.102 483.635 315.692 484.19 316.019C484.792 316.375 485.589 316.293 486.087 315.827" fill="#AAACAC"/>
<path d="M520.37 286.262C522.364 284.51 522.559 281.468 520.806 279.479L515.549 273.517C513.795 271.528 510.744 271.333 508.75 273.082L498.019 282.504C496.025 284.253 495.83 287.298 497.583 289.287L502.84 295.249C504.593 297.238 507.645 297.433 509.638 295.684L520.37 286.265V286.262Z" fill="#AAACAC"/>
<path d="M504.944 284.493L510.283 279.806C511.479 278.757 513.306 278.872 514.361 280.066C515.413 281.26 515.294 283.085 514.101 284.132L508.762 288.819C507.565 289.868 505.736 289.753 504.684 288.559C503.632 287.366 503.748 285.543 504.944 284.49" fill="white"/>
<path d="M513.317 280.275L513.464 280.145C514.361 279.358 515.735 279.445 516.527 280.34L519.114 283.274C519.906 284.171 519.819 285.543 518.919 286.33L518.775 286.457C517.876 287.244 516.501 287.157 515.712 286.262L513.125 283.328C512.336 282.433 512.424 281.062 513.32 280.272" fill="white"/>
<path d="M508.419 274.722L508.566 274.592C509.462 273.805 510.837 273.892 511.628 274.787L514.216 277.724C515.005 278.619 514.917 279.99 514.021 280.78L513.877 280.907C512.977 281.694 511.603 281.607 510.814 280.712L508.226 277.778C507.437 276.883 507.525 275.512 508.422 274.722" fill="white"/>
<path d="M504.947 287.622L505.091 287.495C505.99 286.705 507.365 286.796 508.154 287.69L510.741 290.625C511.533 291.522 511.445 292.893 510.546 293.68L510.402 293.807C509.503 294.595 508.128 294.507 507.339 293.613L504.752 290.678C503.963 289.784 504.05 288.412 504.947 287.622Z" fill="white"/>
<path d="M500.049 282.069L500.196 281.94C501.092 281.152 502.466 281.24 503.258 282.134L505.846 285.072C506.635 285.966 506.547 287.337 505.651 288.127L505.506 288.254C504.607 289.042 503.233 288.954 502.444 288.06L499.856 285.125C499.067 284.231 499.155 282.859 500.051 282.069" fill="white"/>
<path d="M495.14 334.876C493.259 332.557 493.621 329.154 495.948 327.28C498.273 325.404 501.683 325.765 503.561 328.087C505.442 330.407 505.08 333.809 502.752 335.683C500.428 337.559 497.017 337.198 495.14 334.876Z" fill="#F1C6C5"/>
<path d="M550.476 323.403C548.595 321.084 548.957 317.681 551.284 315.808C553.609 313.931 557.019 314.292 558.897 316.615C560.778 318.934 560.416 322.337 558.088 324.21C555.764 326.087 552.353 325.726 550.476 323.403Z" fill="#F1C6C5"/>
<path d="M564.93 328.764L542.815 352.768L557.079 365.739L555.62 354.791L569.234 358.044L565.286 344.012L578 344.901L564.93 328.764Z" fill="#FFE800"/>
<path d="M552.275 298.342L555.606 295.655C558.177 293.582 561.946 293.982 564.025 296.547L566.717 299.871C568.795 302.439 568.397 306.2 565.823 308.271L562.492 310.957C559.921 313.031 556.152 312.63 554.073 310.066L551.381 306.742C549.303 304.177 549.704 300.416 552.275 298.342Z" fill="#72DAC6"/>
<path d="M477.999 311.922L481.331 309.236C483.901 307.162 487.671 307.563 489.749 310.128L492.441 313.451C494.52 316.019 494.121 319.78 491.548 321.851L488.217 324.538C485.646 326.612 481.876 326.211 479.798 323.646L477.106 320.322C475.027 317.757 475.429 313.996 477.999 311.922Z" fill="#72DAC6"/>
<path d="M514.528 253.3C514.601 253.571 514.621 253.839 514.587 254.107C514.556 254.375 514.471 254.632 514.338 254.877C514.205 255.123 514.024 255.337 513.798 255.521C513.572 255.701 513.326 255.831 513.06 255.91C512.794 255.989 512.526 256.012 512.257 255.986C511.988 255.961 511.731 255.885 511.482 255.755C511.233 255.628 511.016 255.447 510.829 255.216C510.637 254.979 510.504 254.725 510.427 254.454C510.354 254.183 510.331 253.912 510.359 253.644C510.391 253.376 510.47 253.119 510.605 252.877C510.738 252.634 510.917 252.42 511.143 252.239C511.369 252.056 511.615 251.926 511.884 251.847C512.152 251.765 512.418 251.74 512.69 251.765C512.961 251.79 513.221 251.869 513.47 251.999C513.719 252.129 513.942 252.312 514.135 252.549C514.321 252.781 514.451 253.032 514.525 253.3M513.281 252.312C513.074 252.197 512.856 252.126 512.633 252.098C512.41 252.07 512.186 252.087 511.963 252.149C511.739 252.211 511.53 252.321 511.335 252.476C511.146 252.628 510.996 252.809 510.891 253.012C510.784 253.215 510.721 253.43 510.702 253.656C510.682 253.878 510.707 254.104 510.775 254.333C510.846 254.561 510.962 254.773 511.126 254.976C511.284 255.174 511.468 255.326 511.674 255.442C511.881 255.554 512.096 255.625 512.319 255.65C512.543 255.676 512.763 255.659 512.987 255.6C513.21 255.54 513.416 255.43 513.606 255.278C513.801 255.123 513.951 254.939 514.058 254.736C514.166 254.53 514.231 254.316 514.251 254.093C514.273 253.87 514.248 253.647 514.18 253.421C514.112 253.196 513.996 252.984 513.838 252.789C513.674 252.586 513.49 252.428 513.281 252.312ZM513.151 254.92C512.922 255.106 512.715 255.196 512.531 255.193C512.347 255.193 512.181 255.097 512.031 254.914C511.889 254.742 511.836 254.575 511.867 254.417C511.898 254.259 511.98 254.113 512.113 253.983L510.877 253.579L511.199 253.32L512.393 253.723L512.709 253.466L512.042 252.64L512.342 252.397L513.897 254.316L513.153 254.914L513.151 254.92ZM512.591 253.963C512.523 254.017 512.461 254.07 512.404 254.124C512.347 254.178 512.305 254.231 512.274 254.29C512.243 254.35 512.232 254.409 512.237 254.477C512.243 254.542 512.277 254.612 512.339 254.688C512.39 254.753 512.446 254.793 512.5 254.812C512.557 254.829 512.613 254.832 512.667 254.821C512.724 254.81 512.78 254.787 512.837 254.753C512.893 254.719 512.947 254.68 512.998 254.64L513.394 254.321L512.899 253.712L512.588 253.963H512.591Z" fill="white"/>
<path d="M495.864 277.749C495.864 290.373 485.728 300.607 473.223 300.607C460.718 300.607 450.583 290.373 450.583 277.749C450.583 265.126 460.718 254.891 473.223 254.891C485.728 254.891 495.864 265.126 495.864 277.749Z" fill="#B9DFF6"/>
<path d="M509.288 260.447C509.288 273.071 499.152 283.305 486.65 283.305C474.148 283.305 464.01 273.071 464.01 260.447C464.01 247.823 474.145 237.589 486.65 237.589C499.155 237.589 509.288 247.823 509.288 260.447Z" fill="#B9DFF6"/>
<path d="M510.227 284.313C510.227 292.732 503.465 299.558 495.125 299.558C486.786 299.558 480.024 292.732 480.024 284.313C480.024 275.893 486.786 269.067 495.125 269.067C503.465 269.067 510.227 275.893 510.227 284.313Z" fill="#B9DFF6"/>
<path d="M522.536 281.206C522.536 286.336 518.419 290.492 513.337 290.492C508.255 290.492 504.138 286.333 504.138 281.206C504.138 276.079 508.255 271.92 513.337 271.92C518.419 271.92 522.536 276.079 522.536 281.206Z" fill="#B9DFF6"/>
<path d="M526.382 255.337C526.382 263.757 519.62 270.583 511.281 270.583C502.941 270.583 496.18 263.757 496.18 255.337C496.18 246.918 502.941 240.092 511.281 240.092C519.62 240.092 526.382 246.918 526.382 255.337Z" fill="#B9DFF6"/>
<path d="M530.582 263.788C530.582 272.208 523.82 279.033 515.481 279.033C507.141 279.033 500.38 272.208 500.38 263.788C500.38 255.368 507.141 248.543 515.481 248.543C523.82 248.543 530.582 255.368 530.582 263.788Z" fill="#B9DFF6"/>
<path d="M543.477 254.268C543.477 262.688 536.715 269.513 528.375 269.513C520.036 269.513 513.274 262.688 513.274 254.268C513.274 245.848 520.036 239.023 528.375 239.023C536.715 239.023 543.477 245.848 543.477 254.268Z" fill="#B9DFF6"/>
</g>
<defs>
<clipPath id="clip0_679_3805">
<rect width="578" height="382" fill="white"/>
</clipPath>
</defs>
</svg>
