<svg width="169" height="274" viewBox="0 0 169 274" fill="none" xmlns="http://www.w3.org/2000/svg">
<g clip-path="url(#clip0_751_3332)">
<path d="M144.695 70.6223C144.695 70.6223 162.654 63.5481 163.932 39.1571C169.04 45.6932 176.603 66.0589 150.222 80.4663C148.526 75.5842 144.695 70.6223 144.695 70.6223Z" fill="#535655"/>
<path d="M33.2651 59.3235L25.5026 67.8923C25.5026 67.8923 -0.0799017 45.773 22.8286 24.0323C18.4385 45.9523 30.5712 57.6895 33.2651 59.3036" fill="#535655"/>
<path d="M161.357 156.628C160.599 146.505 152.737 139.451 140.963 137.817C141.043 136.223 141.083 134.629 141.023 133.015C140.804 124.745 138.848 116.933 135.535 109.919C143.138 105.495 148.127 97.1853 147.868 87.7796C147.489 74.0896 136.054 63.289 122.345 63.6676C112.168 63.9466 103.607 70.3034 100.015 79.1312C94.1285 77.3178 87.8426 76.4211 81.3373 76.6004C79.5213 76.6602 77.7453 76.7798 75.9893 76.999C74.6124 64.2655 63.657 54.5011 50.6064 54.8598C36.8972 55.2384 26.0815 66.6567 26.4607 80.3468C26.6802 88.2978 30.6313 95.2723 36.5779 99.6364C31.2898 106.631 27.5382 114.861 25.862 123.808C24.1858 123.589 22.5894 123.469 21.392 123.489C17.1017 123.629 0.0799711 126.379 0.000150555 143.755C-0.0397597 153.4 7.86247 158.262 14.9066 160.674C11.9134 169.96 7.66292 185.244 4.03109 206.247C-2.35456 243.133 0.399253 250.446 3.05329 253.794C5.72727 257.142 19.6759 266.707 28.3763 262.482C36.3983 258.596 36.7974 249.629 36.518 245.564C42.5844 248.792 51.3048 251.801 63.657 253.136C78.2243 254.71 90.6364 253.933 99.9155 252.598C99.3368 254.491 98.3989 259.254 98.6783 261.605C99.4366 268.121 101.711 273.861 109.115 273.94C116.518 274.02 121.986 274.379 128.092 269.935C134.198 265.491 138.15 254.292 138.788 246.301C139.407 238.629 144.116 199.034 142.4 175.32C153.375 173.009 162.275 168.485 161.377 156.608" fill="#78B843"/>
<path d="M15.9642 177.412C15.9642 177.412 6.44557 211.408 4.62966 231.296C2.81374 251.183 7.18391 252.459 11.2548 252.658C15.3256 252.857 17.5406 252.259 17.5406 252.259C17.5406 252.259 11.0752 246.142 12.0131 225.377C12.9509 204.613 15.9642 177.412 15.9642 177.412Z" fill="#FFFDFA"/>
<path d="M6.86454 138.674L3.47217 135.326C3.47217 135.326 9.43875 124.944 21.4318 126.498C13.0706 129.667 8.56073 135.466 6.86454 138.694" fill="#FFFDFA"/>
<path d="M37.0767 106.611C37.0767 106.611 62.4197 110.138 85.3482 113.685C108.277 117.232 133.959 120.181 133.959 120.181C133.959 120.181 131.724 146.346 109.873 170.019C88.0221 193.693 61.6415 189.329 49.2892 166.154C38.9325 146.724 33.2054 121.297 37.0767 106.591" fill="#066635"/>
<path d="M116.478 131.978C124.56 133.074 127.234 124.107 128.072 119.484C123.462 118.926 116.518 118.069 108.636 117.013C107.917 123.151 108.496 130.902 116.498 131.978" fill="#E9E9B4"/>
<path d="M54.0783 122.493C62.0603 122.692 64.0558 114.124 64.5547 110.557C56.7722 109.421 49.748 108.404 44.7592 107.687C43.5819 114.303 44.859 122.254 54.0783 122.473" fill="#E9E9B4"/>
<path d="M94.1082 168.365C89.1194 171.793 91.3145 179.206 92.7712 182.753C97.301 180.76 101.851 177.751 106.241 173.686C103.786 170.358 98.8575 165.117 94.1082 168.385" fill="#E9E9B4"/>
<path d="M63.1381 164.36C59.2668 159.817 52.921 162.965 49.0298 165.675C49.1096 165.835 49.2094 166.014 49.2892 166.173C52.0829 171.434 55.615 175.739 59.6659 178.947C63.178 174.364 66.4706 168.266 63.158 164.38" fill="#E9E9B4"/>
<path d="M64.9741 75.7636C65.2136 84.3721 58.4089 91.5659 49.7883 91.805C41.1477 92.0441 33.9639 85.2489 33.7244 76.6404C33.4849 68.0318 40.2896 60.838 48.9102 60.5989C57.5309 60.3598 64.7347 67.155 64.9741 75.7636Z" fill="#FEFEFA"/>
<path d="M47.1341 72.595C47.194 75.0261 45.2982 77.0388 42.8637 77.1185C40.4292 77.1783 38.4137 75.2653 38.3339 72.8541C38.274 70.4229 40.1897 68.4103 42.6043 68.3505C45.0388 68.2907 47.0543 70.1838 47.1341 72.6149" fill="#2D2967"/>
<path d="M142.36 85.0297C142.599 93.6382 135.795 100.832 127.174 101.071C118.533 101.31 111.35 94.515 111.11 85.9065C110.871 77.2979 117.675 70.1041 126.296 69.865C134.917 69.6259 142.12 76.4211 142.36 85.0297Z" fill="#FEFEFA"/>
<path d="M137.271 79.5098C137.331 81.9409 135.435 83.9536 133.001 84.0333C130.566 84.0931 128.551 82.1801 128.471 79.7689C128.411 77.3377 130.327 75.3251 132.741 75.2653C135.176 75.2055 137.191 77.0986 137.271 79.5297" fill="#2D2967"/>
<path d="M162.595 121.497C162.654 123.908 160.759 125.92 158.324 126C155.91 126.06 153.894 124.167 153.814 121.756C153.755 119.344 155.65 117.332 158.085 117.252C160.499 117.192 162.515 119.085 162.595 121.517" fill="#D8E085"/>
<path d="M62.8389 46.7294C62.8389 46.7294 56.154 46.5501 55.7349 40.253C55.3158 33.956 62.5396 31.6843 62.2802 26.7224C62.0208 21.7605 60.4443 21.5613 57.3513 19.708C54.2582 17.8548 48.7706 18.7316 48.2717 14.8657C47.7728 10.9998 53.1806 11.9364 54.2582 10.2027C55.3358 8.48897 62.2602 0.0398073 63.7169 -4.72485e-05C65.1737 -0.0399018 65.2535 2.63035 63.8367 4.36403C62.4199 6.0977 59.6461 10.7806 57.6107 12.056C55.5753 13.3313 53.7992 14.4672 54.0387 14.9454C54.2981 15.4237 65.912 18.3729 66.0717 24.0721C66.351 33.8962 57.3912 34.2549 57.6905 38.9777C57.9898 43.7005 61.3024 44.7566 63.0185 44.8562C64.7147 44.9559 64.5351 46.9885 62.819 46.7095" fill="#D0D78A"/>
<path d="M81.6564 36.0086C81.6564 36.0086 72.2575 32.4217 75.3905 27.5794C78.5234 22.7371 84.8293 26.9019 90.5364 25.0686C96.2436 23.2352 95.8046 16.5795 94.1683 14.7064C92.5319 12.8332 87.9822 8.94739 89.4189 6.49634C90.8557 4.04528 91.7537 3.50725 92.9909 3.04892C94.2281 2.59059 94.268 0.757284 91.8535 1.25547C89.4389 1.73372 84.3104 2.47103 84.071 6.47641C83.8315 10.4818 90.1972 13.8096 89.9178 16.1611C89.6584 18.5125 87.2837 20.2462 86.705 20.9237C86.1463 21.6012 84.3902 21.9001 81.6364 21.9798C78.8826 22.0595 72.1777 21.661 71.8584 28.0975C71.5391 34.534 76.3483 36.5666 78.4636 37.1843C80.5788 37.8021 82.5544 36.9054 81.6165 36.0086" fill="#D0D78A"/>
<path d="M117.955 55.5971C117.955 55.5971 113.545 52.887 116.438 48.8816C119.332 44.8763 121.826 47.2277 127.852 44.8165C133.879 42.4053 137.291 38.7187 133.979 33.9561C130.666 29.2134 126.735 25.9852 131.584 26.1048C136.433 26.2243 142.839 24.8693 145.513 22.4581C148.207 20.0469 151.399 14.6267 147.608 10.6412C143.816 6.65575 142.08 7.29342 140.943 8.15029C139.805 9.00717 140.444 10.9202 141.981 12.3749C143.517 13.8296 143.916 16.3404 143.198 17.6955C142.499 19.0505 139.227 22.1392 135.894 22.3186C132.562 22.4979 130.147 22.8965 128.232 22.8566C126.316 22.8367 121.447 22.1193 125.019 27.3602C128.591 32.6011 130.267 36.0684 129.329 37.8419C128.371 39.6155 127.353 41.7277 122.285 42.8835C117.216 44.0194 110.851 46.5302 111.649 51.3526C112.447 56.175 115.141 57.0917 116.079 57.2312C116.997 57.3707 118.733 56.733 117.955 55.5971Z" fill="#D0D78A"/>
<path d="M111.369 259.373C111.609 258.815 111.948 258.337 112.367 257.939C112.786 257.54 113.265 257.221 113.824 256.982C114.383 256.743 114.961 256.643 115.6 256.643C116.238 256.643 116.817 256.763 117.356 256.982C117.915 257.221 118.394 257.54 118.793 257.939C119.212 258.337 119.531 258.815 119.771 259.373C120.01 259.911 120.13 260.509 120.13 261.147C120.13 261.785 120.01 262.402 119.771 262.96C119.531 263.518 119.192 263.996 118.793 264.395C118.374 264.813 117.895 265.112 117.356 265.352C116.797 265.571 116.219 265.69 115.6 265.69C114.981 265.69 114.383 265.571 113.824 265.352C113.265 265.132 112.786 264.813 112.367 264.395C111.948 263.996 111.629 263.498 111.369 262.96C111.13 262.402 111.01 261.804 111.01 261.147C111.01 260.489 111.13 259.911 111.369 259.373ZM112.128 262.701C112.327 263.179 112.587 263.578 112.926 263.937C113.265 264.295 113.664 264.554 114.123 264.754C114.582 264.953 115.081 265.053 115.62 265.053C116.159 265.053 116.638 264.953 117.097 264.754C117.556 264.554 117.955 264.275 118.274 263.937C118.613 263.598 118.873 263.179 119.072 262.701C119.272 262.223 119.351 261.705 119.351 261.147C119.351 260.589 119.252 260.091 119.072 259.632C118.873 259.174 118.613 258.756 118.274 258.417C117.935 258.078 117.536 257.799 117.097 257.6C116.638 257.401 116.159 257.301 115.62 257.301C115.081 257.301 114.582 257.401 114.123 257.6C113.664 257.799 113.265 258.078 112.926 258.417C112.587 258.756 112.327 259.174 112.128 259.632C111.928 260.111 111.848 260.609 111.848 261.147C111.848 261.685 111.948 262.223 112.128 262.701ZM115.879 258.516C116.518 258.516 116.977 258.636 117.276 258.895C117.575 259.154 117.735 259.533 117.735 260.031C117.735 260.509 117.595 260.868 117.336 261.087C117.077 261.306 116.737 261.446 116.338 261.486L117.855 263.837H116.977L115.54 261.565H114.662V263.837H113.844V258.536H115.899L115.879 258.516ZM115.5 260.868C115.68 260.868 115.859 260.868 116.039 260.868C116.199 260.868 116.358 260.828 116.478 260.768C116.618 260.708 116.717 260.629 116.777 260.509C116.857 260.39 116.897 260.23 116.897 260.011C116.897 259.832 116.857 259.692 116.797 259.593C116.737 259.493 116.638 259.413 116.538 259.353C116.438 259.294 116.298 259.254 116.159 259.234C116.019 259.214 115.879 259.194 115.74 259.194H114.642V260.888H115.5V260.868Z" fill="white"/>
</g>
<defs>
<clipPath id="clip0_751_3332">
<rect width="169" height="274" fill="white"/>
</clipPath>
</defs>
</svg>
