<svg width="186" height="186" viewBox="0 0 186 186" fill="none" xmlns="http://www.w3.org/2000/svg">
<g clip-path="url(#clip0_710_3636)">
<path d="M93 0L106.094 10.3305L121.739 4.55174L130.999 18.4228L147.664 17.7614L152.185 33.8152L168.239 38.336L167.577 55.001L181.448 64.2614L175.67 79.9064L186 93L175.67 106.094L181.448 121.739L167.577 130.999L168.239 147.664L152.185 152.185L147.664 168.239L130.999 167.577L121.739 181.448L106.094 175.67L93 186L79.9064 175.67L64.2614 181.448L55.001 167.577L38.336 168.239L33.8152 152.185L17.7614 147.664L18.4228 130.999L4.55174 121.739L10.3305 106.094L0 93L10.3305 79.9064L4.55174 64.2614L18.4228 55.001L17.7614 38.336L33.8152 33.8152L38.336 17.7614L55.001 18.4228L64.2614 4.55174L79.9064 10.3305L93 0Z" fill="white"/>
<path d="M66.3976 94.4572C64.7255 91.5026 63.877 88.0405 63.877 84.1701C63.877 80.2996 64.7317 76.8004 66.4163 73.8334C68.104 70.8601 70.4972 68.5212 73.5307 66.8845C73.8508 66.7112 74.1803 66.5534 74.5128 66.3988H64.5359C64.0355 66.3988 63.8801 66.606 63.8024 66.9154L59.8303 83.5111L55.709 66.9154C55.625 66.5627 55.5442 66.4668 55.5349 66.4544C55.5287 66.4544 55.4075 66.3988 55.0438 66.3988H44.638C44.15 66.3833 44.0101 66.5689 43.9418 66.8938L39.8515 83.5203L35.8763 66.9092C35.7986 66.606 35.6401 66.3988 35.1117 66.3988H21.6755C21.5605 66.3988 21.5263 66.4328 21.4952 66.4761C21.4548 66.5318 21.4548 66.5534 21.4735 66.5999L32.3455 101.239C32.4605 101.66 32.6594 101.818 33.0542 101.818H43.3606C43.7801 101.818 44.035 101.632 44.2153 101.196L49.8316 81.9363L55.4665 101.251C55.6157 101.638 55.8581 101.818 56.2684 101.818H66.609C67.0037 101.818 67.1995 101.66 67.3114 101.258L68.508 97.4459C67.7124 96.5363 67.0037 95.5432 66.3914 94.4634L66.3976 94.4572Z" fill="#FF3D81"/>
<path d="M149.616 121.615C147.158 121.615 145.181 120.888 143.683 119.437C142.185 117.986 141.436 116.077 141.436 113.714C141.436 112.13 141.772 110.731 142.449 109.521C143.124 108.312 144.081 107.371 145.324 106.7C146.564 106.028 147.997 105.691 149.616 105.691C151.236 105.691 152.666 106.028 153.909 106.7C155.149 107.371 156.115 108.312 156.805 109.521C157.495 110.731 157.837 112.13 157.837 113.714C157.837 116.077 157.088 117.986 155.59 119.437C154.092 120.888 152.1 121.615 149.616 121.615Z" fill="#FF3D81"/>
<path d="M140.476 66.3988H135.307C134.807 66.3988 134.651 66.606 134.574 66.9154L130.601 83.5111L126.48 66.9154C126.396 66.5627 126.315 66.4668 126.306 66.4544C126.3 66.4544 126.179 66.3988 125.815 66.3988H115.409C114.918 66.3833 114.781 66.5689 114.713 66.8938L110.623 83.5203L106.647 66.9092C106.57 66.606 106.411 66.3988 105.883 66.3988H92.4528C92.3378 66.3988 92.3036 66.4328 92.2726 66.4761C92.2322 66.5318 92.2322 66.5534 92.2508 66.5999L103.123 101.239C103.238 101.66 103.437 101.818 103.832 101.818H114.138C114.557 101.818 114.812 101.632 114.993 101.196L120.609 81.9363L126.244 101.251C126.393 101.638 126.635 101.818 127.046 101.818H137.386C137.781 101.818 137.977 101.66 138.089 101.258L141.33 90.9333L140.476 66.4018V66.3988Z" fill="#FF3D81"/>
<path d="M142.179 64.3846C142.048 64.3846 141.927 64.4186 141.781 64.5795C141.622 64.7528 141.551 64.926 141.551 65.121L142.766 99.9705C142.766 100.085 142.791 100.234 142.99 100.419C143.151 100.571 143.313 100.642 143.506 100.642H155.534C155.649 100.642 155.832 100.617 156.059 100.391C156.227 100.224 156.28 100.1 156.274 100.045L157.567 65.1024C157.582 64.8889 157.526 64.7435 157.383 64.6105C157.225 64.4589 157.06 64.3908 156.871 64.3908H142.25C142.228 64.3908 142.207 64.3908 142.182 64.3908L142.179 64.3846Z" fill="#FF3D81"/>
<path d="M91.2686 66.9432C91.2251 66.835 91.2065 66.7205 91.2002 66.606C88.9997 65.8511 86.5816 65.4613 83.9677 65.4613C80.2349 65.4613 76.8906 66.2471 74.0219 67.7941C71.1625 69.3379 68.906 71.5408 67.3178 74.3438C65.7233 77.1531 64.9121 80.4605 64.9121 84.1731C64.9121 87.8858 65.714 91.1529 67.2991 93.9529C68.878 96.7467 71.1314 98.9433 73.9877 100.484C76.8565 102.031 80.2132 102.817 83.9677 102.817C87.7223 102.817 91.0759 102.028 93.9478 100.469C96.4622 99.1011 98.5073 97.2262 100.04 94.8842L91.2686 66.9432ZM90.2057 88.1055C89.612 89.2997 88.7604 90.2433 87.6726 90.9054C86.5847 91.5675 85.3415 91.9047 83.9708 91.9047C82.6002 91.9047 81.3601 91.5737 80.2722 90.924C79.1844 90.2712 78.3297 89.3399 77.736 88.155C77.1486 86.9886 76.8533 85.6365 76.8533 84.136C76.8533 82.6355 77.1517 81.2865 77.736 80.117C78.3328 78.9321 79.1844 78.0008 80.2722 77.348C81.357 76.6983 82.6002 76.3672 83.9708 76.3672C86.0626 76.3672 87.7969 77.0881 89.1303 78.5051L89.1365 78.5113C90.4326 79.9407 91.0915 81.8094 91.0915 84.0679C91.0915 85.5654 90.7931 86.9236 90.2088 88.0993L90.2057 88.1055Z" fill="#FF3D81"/>
<path d="M164.535 105.267C164.535 106.997 163.137 108.37 161.362 108.37C159.587 108.37 158.17 106.997 158.17 105.267C158.17 103.538 159.587 102.183 161.384 102.183C163.18 102.183 164.538 103.538 164.538 105.267H164.535ZM158.959 105.267C158.959 106.641 159.997 107.73 161.377 107.73C162.72 107.749 163.74 106.638 163.74 105.286C163.74 103.934 162.72 102.801 161.34 102.801C159.96 102.801 158.959 103.912 158.959 105.264V105.267ZM160.868 106.867H160.15V103.782C160.433 103.745 160.83 103.686 161.34 103.686C161.928 103.686 162.192 103.782 162.4 103.931C162.59 104.064 162.72 104.29 162.72 104.59C162.72 104.967 162.437 105.212 162.077 105.323V105.36C162.378 105.453 162.531 105.697 162.624 106.112C162.717 106.582 162.795 106.752 162.851 106.864H162.095C162.002 106.752 161.943 106.486 161.85 106.112C161.794 105.793 161.604 105.642 161.207 105.642H160.868V106.864V106.867ZM160.886 105.134H161.225C161.623 105.134 161.943 105.001 161.943 104.683C161.943 104.401 161.735 104.212 161.281 104.212C161.092 104.212 160.961 104.231 160.883 104.249V105.134H160.886Z" fill="#FF3D81"/>
<path d="M33.8252 120.028V107.643H39.9885V108.701H34.9565V112.575H39.9885V113.633H34.9565V118.97H39.9885V120.028H33.8252Z" fill="#FF3D81"/>
<path d="M43.892 120.028H42.6519L46.4499 113.512L43.0155 107.64H44.2898L47.0933 112.556L49.9248 107.64H51.1493L47.7149 113.478L51.4974 120.028H50.2387L47.0778 114.537L43.892 120.028Z" fill="#FF3D81"/>
<path d="M54.4849 120.028V107.643H56.7538C57.6489 107.643 58.3078 107.693 58.7305 107.786C59.1532 107.882 59.52 108.039 59.8308 108.259C60.2224 108.541 60.5239 108.927 60.7414 109.419C60.9559 109.911 61.0647 110.456 61.0647 111.053C61.0647 112.232 60.7321 113.095 60.0701 113.646C59.4081 114.196 58.3575 114.472 56.9247 114.472H55.6162V120.031H54.4849V120.028ZM55.6162 113.482H56.3901C57.7608 113.482 58.6839 113.308 59.1563 112.962C59.6287 112.615 59.8649 112.006 59.8649 111.139C59.8649 110.774 59.8121 110.437 59.7033 110.128C59.5945 109.818 59.4329 109.546 59.2185 109.302C58.9978 109.054 58.6963 108.878 58.3171 108.776C57.9379 108.674 57.2946 108.624 56.387 108.624H55.6131V113.482H55.6162Z" fill="#FF3D81"/>
<path d="M64.8438 120.028V107.643H71.0071V108.701H65.9751V112.575H71.0071V113.633H65.9751V118.97H71.0071V120.028H64.8438Z" fill="#FF3D81"/>
<path d="M82.9856 120.028H81.6087L77.2388 114.122H76.5581V120.028H75.4268V107.643H77.7143C79.0632 107.643 80.0733 107.922 80.7447 108.482C81.416 109.042 81.7517 109.886 81.7517 111.019C81.7517 111.984 81.4626 112.742 80.8877 113.296C80.3127 113.85 79.5201 114.125 78.5131 114.125L82.9825 120.031L82.9856 120.028ZM76.5581 108.624V113.2H77.6957C78.7493 113.2 79.4859 113.033 79.9024 112.696C80.3189 112.362 80.5271 111.789 80.5271 110.982C80.5271 110.131 80.3127 109.524 79.8806 109.162C79.4486 108.8 78.7213 108.621 77.6957 108.621H76.5581V108.624Z" fill="#FF3D81"/>
<path d="M86.271 120.028V107.643H87.4023V120.028H86.271Z" fill="#FF3D81"/>
<path d="M92.1548 120.028V107.643H98.3181V108.701H93.2861V112.575H98.3181V113.633H93.2861V118.97H98.3181V120.028H92.1548Z" fill="#FF3D81"/>
<path d="M102.741 120.028V107.117L111.555 117.482V107.643H112.609V120.393L103.804 110.013V120.031H102.741V120.028Z" fill="#FF3D81"/>
<path d="M127.36 109.911C126.741 109.382 126.11 108.989 125.464 108.736C124.817 108.482 124.136 108.355 123.425 108.355C121.815 108.355 120.509 108.862 119.502 109.877C118.495 110.892 117.995 112.216 117.995 113.844C117.995 114.66 118.119 115.397 118.365 116.053C118.61 116.705 118.986 117.287 119.49 117.794C119.987 118.289 120.559 118.67 121.202 118.927C121.846 119.187 122.536 119.317 123.272 119.317C124.009 119.317 124.683 119.196 125.364 118.952C126.045 118.71 126.688 118.351 127.294 117.878V119.199C126.682 119.57 126.035 119.858 125.352 120.059C124.668 120.26 123.993 120.359 123.325 120.359C122.424 120.359 121.563 120.198 120.742 119.877C119.922 119.555 119.216 119.103 118.626 118.522C118.02 117.924 117.56 117.231 117.249 116.439C116.938 115.65 116.783 114.784 116.783 113.844C116.783 112.903 116.941 112.055 117.261 111.254C117.581 110.453 118.041 109.763 118.641 109.181C119.226 108.612 119.928 108.166 120.752 107.844C121.575 107.523 122.433 107.362 123.322 107.362C124.115 107.362 124.851 107.47 125.529 107.687C126.206 107.903 126.822 108.228 127.378 108.664L127.363 109.908L127.36 109.911Z" fill="#FF3D81"/>
<path d="M131.462 120.028V107.643H137.623V108.701H132.591V112.575H137.623V113.633H132.591V118.97H137.623V120.028H131.462Z" fill="#FF3D81"/>
</g>
<defs>
<clipPath id="clip0_710_3636">
<rect width="186" height="186" fill="white"/>
</clipPath>
</defs>
</svg>
