<svg width="648" height="428" viewBox="0 0 648 428" fill="none" xmlns="http://www.w3.org/2000/svg">
<g clip-path="url(#clip0_773_2954)">
<path d="M211.896 99.8118C206.116 94.0738 199.389 97.3174 195.657 99.9983C194.18 98.0256 190.822 93.6597 188.955 92.2655C186.517 90.4445 177.63 85.4274 169.2 87.8016C160.767 90.1758 141.485 95.2056 132.078 102.47C122.675 109.732 119.885 121.641 121.581 125.501C123.277 129.365 125.709 135.403 130.103 137.613C130.103 137.613 134.357 141.877 139.566 147.369C135.42 151.112 133.302 156.875 137.541 162.578C142.417 169.138 152.118 161.247 152.118 161.247C154.122 163.631 155.815 165.797 156.937 167.501C162.732 176.302 171.841 188.992 175.883 193.734C179.922 198.476 182.776 197.515 185.065 196.459C187.354 195.403 190.296 193.241 188.78 188.966C188.137 187.155 187.474 185.28 186.923 183.722C189.449 182.928 192.81 181.385 196.795 178.423C200.815 175.432 204.804 171.329 208.018 167.665C208.101 168.667 208.224 169.758 208.418 170.839C209.074 174.522 210.098 178.426 213.624 176.324C217.149 174.222 218.275 170.969 218.718 170.241C219.162 169.511 220.494 166.084 220.151 160.9C219.806 155.712 219.299 144.305 214.435 131.11C212.555 126.01 209.429 120.351 206.306 115.328C211.693 110.608 216.518 104.405 211.896 99.8181" fill="#C4DDDE"/>
<path d="M140.021 149.126C140.021 149.126 137.304 151.283 136.774 154.754C136.245 158.225 141.767 157.827 141.767 157.827C141.767 157.827 138.239 153.739 140.021 149.123" fill="#FFFFFA"/>
<path d="M127.587 124.894C127.587 124.894 124.641 125.789 123.408 123.582C122.178 121.373 128.087 107.257 142.674 95.5471C134.799 104.93 128.325 116.434 127.583 124.894" fill="#FAFCF7"/>
<path d="M186.276 193.108C186.276 193.108 184.466 196.443 181.616 196.004C178.765 195.568 173.791 189.618 171.347 186.08C168.902 182.543 155.977 162.996 155.977 162.996C155.977 162.996 155.444 160.596 158.129 164.308C160.815 168.019 169.264 180.055 176.388 186.178C183.515 192.305 186.276 193.105 186.276 193.105" fill="#FFFFFA"/>
<path d="M145.398 140.129C145.398 140.129 154.951 135.842 164.928 124.992C175.875 113.087 179.829 99.6411 179.829 99.6411C179.829 99.6411 184.011 111.133 170.096 126.611C157.652 140.452 146.508 140.6 145.398 140.129Z" fill="#575858"/>
<path d="M139.5 138.874C140.027 139.491 139.951 140.417 139.332 140.942C138.714 141.466 137.785 141.391 137.262 140.774C136.736 140.158 136.812 139.231 137.43 138.71C138.048 138.185 138.977 138.261 139.5 138.877" fill="#575858"/>
<path d="M180.294 93.451C180.821 94.0674 180.745 94.9937 180.126 95.5185C179.508 96.0433 178.579 95.9674 178.056 95.351C177.53 94.7345 177.606 93.8082 178.224 93.2866C178.842 92.7618 179.771 92.8376 180.294 93.4541" fill="#575858"/>
<path d="M123.195 131.9C123.195 131.9 112.495 133.86 103.821 127.433C95.1432 121.006 95.2129 113.406 95.2129 113.406C95.2129 113.406 104.597 125.612 119.837 123.867C121.128 128.283 121.99 130.31 123.195 131.9Z" fill="#A1C2C3"/>
<path d="M179.497 85.497C179.497 85.497 182.509 72.6459 171.803 60.2532C181.599 63.5568 189.643 71.9693 187.106 88.6204C187.106 88.6204 182.246 86.5023 179.497 85.497Z" fill="#A1C2C3"/>
<path d="M131.878 101.12C131.878 101.12 126.137 103.058 121.305 106.827C116.473 110.595 117.174 112.821 120.918 113.007C124.662 113.194 130.077 112.508 130.077 112.508L143.796 102.859C143.796 102.859 144.011 104.007 146.072 102.723C148.13 101.44 156.706 96.4479 157.01 96.2993C157.314 96.1475 159.794 94.589 162.343 92.8628C164.892 91.1336 171.337 86.3251 171.337 86.3251C171.337 86.3251 172.206 84.2891 171.023 82.5788C169.841 80.8685 167.285 76.8567 164.888 75.6364C162.492 74.4161 157.679 71.4475 148.098 75.7691C138.52 80.0908 134.288 82.3765 132.275 84.2986C130.261 86.2207 129.45 88.968 129.716 92.2116C129.982 95.4552 130.924 99.7515 131.872 101.117" fill="#661712"/>
<path d="M134.126 100.694C134.126 100.694 139.205 98.5946 143.98 98.0224C148.751 97.447 154.185 96.4227 154.185 96.4227C154.185 96.4227 156.306 89.8565 154.848 86.1039C153.389 82.3544 151.998 78.5481 143.174 82.228C134.354 85.911 131.78 88.6298 131.799 90.5678C131.818 92.5026 132.798 97.9907 134.126 100.697" fill="#FEF5F7"/>
<path d="M155.866 133.705C154.515 134.85 154.106 136.683 154.708 138.245C156.798 137.344 159.147 136.061 161.661 134.262C161.636 134.23 161.617 134.198 161.591 134.17C160.139 132.466 157.574 132.257 155.866 133.705Z" fill="#F3E0AA"/>
<path d="M211.506 169.347C211.421 169.046 211.396 168.743 211.427 168.443C211.459 168.142 211.551 167.851 211.697 167.576C211.843 167.298 212.042 167.058 212.293 166.849C212.543 166.644 212.819 166.495 213.117 166.404C213.415 166.312 213.716 166.28 214.017 166.306C214.319 166.331 214.61 166.413 214.889 166.555C215.168 166.694 215.416 166.894 215.628 167.15C215.847 167.412 215.999 167.697 216.085 168C216.17 168.304 216.199 168.604 216.17 168.907C216.142 169.208 216.053 169.495 215.907 169.77C215.761 170.045 215.561 170.286 215.311 170.491C215.06 170.7 214.785 170.848 214.487 170.94C214.189 171.035 213.887 171.067 213.583 171.041C213.279 171.016 212.987 170.931 212.705 170.788C212.423 170.646 212.172 170.444 211.953 170.181C211.741 169.925 211.592 169.644 211.506 169.344M212.914 170.434C213.149 170.561 213.393 170.64 213.643 170.665C213.894 170.694 214.144 170.671 214.395 170.599C214.645 170.526 214.877 170.403 215.092 170.222C215.305 170.049 215.469 169.846 215.584 169.616C215.701 169.385 215.767 169.144 215.786 168.895C215.806 168.642 215.774 168.392 215.695 168.139C215.612 167.886 215.479 167.646 215.295 167.421C215.114 167.203 214.908 167.033 214.674 166.906C214.439 166.783 214.201 166.704 213.951 166.679C213.7 166.65 213.453 166.672 213.203 166.745C212.955 166.815 212.724 166.938 212.511 167.112C212.296 167.289 212.128 167.494 212.011 167.725C211.893 167.956 211.824 168.196 211.801 168.446C211.779 168.696 211.811 168.945 211.89 169.198C211.969 169.451 212.099 169.685 212.28 169.903C212.467 170.128 212.676 170.302 212.911 170.431M213.028 167.513C213.282 167.305 213.513 167.2 213.719 167.2C213.925 167.2 214.113 167.305 214.284 167.507C214.442 167.7 214.506 167.883 214.474 168.06C214.442 168.237 214.35 168.402 214.204 168.55L215.596 168.99L215.241 169.284L213.9 168.847L213.548 169.138L214.309 170.055L213.976 170.33L212.21 168.199L213.035 167.52L213.028 167.513ZM213.669 168.579C213.745 168.518 213.811 168.455 213.875 168.395C213.938 168.335 213.986 168.272 214.017 168.206C214.052 168.139 214.062 168.073 214.055 167.997C214.046 167.924 214.008 167.845 213.938 167.763C213.878 167.69 213.818 167.646 213.754 167.627C213.691 167.608 213.627 167.605 213.564 167.618C213.501 167.633 213.437 167.659 213.374 167.697C213.31 167.734 213.25 167.779 213.196 167.823L212.756 168.187L213.317 168.863L213.662 168.575L213.669 168.579Z" fill="white"/>
<path d="M195.791 60.8318C195.845 62.7634 194.317 64.3725 192.38 64.4263C190.442 64.48 188.829 62.9562 188.775 61.0278C188.721 59.0962 190.249 57.487 192.186 57.4333C194.123 57.3795 195.737 58.9033 195.791 60.8318Z" fill="#D8E085"/>
<path d="M199.811 69.4719C199.846 70.7649 198.825 71.8429 197.525 71.8809C196.228 71.9156 195.147 70.8977 195.109 69.6015C195.074 68.3085 196.095 67.2305 197.395 67.1925C198.692 67.1577 199.773 68.1757 199.811 69.4719Z" fill="#D8E085"/>
<path d="M269.205 56.2477C269.205 56.2477 278.583 52.5552 279.258 39.8369C281.925 43.2512 285.872 53.8704 272.093 61.385C271.206 58.8369 269.205 56.2477 269.205 56.2477Z" fill="#535655"/>
<path d="M211.003 50.3517L206.951 54.8156C206.951 54.8156 193.585 43.2892 205.546 31.946C203.254 43.3808 209.592 49.4981 211 50.3486" fill="#535655"/>
<path d="M277.911 101.114C277.511 95.8378 273.402 92.158 267.261 91.2981C267.306 90.4698 267.318 89.6352 267.296 88.7911C267.176 84.4821 266.158 80.407 264.424 76.743C268.39 74.4351 271.002 70.0977 270.866 65.1975C270.666 58.0528 264.696 52.4223 257.531 52.6183C252.221 52.7637 247.744 56.0769 245.864 60.6894C242.786 59.7473 239.504 59.2794 236.109 59.3742C235.164 59.4027 234.232 59.4722 233.309 59.5829C232.593 52.9376 226.864 47.8509 220.048 48.0374C212.883 48.2366 207.236 54.1895 207.433 61.3343C207.55 65.482 209.611 69.1177 212.721 71.4002C209.953 75.0516 208 79.3448 207.122 84.0047C206.244 83.8972 205.41 83.8277 204.789 83.8435C202.557 83.9067 193.667 85.3388 193.619 94.3931C193.594 99.4229 197.725 101.955 201.403 103.213C199.84 108.053 197.617 116.03 195.718 126.987C192.383 146.227 193.819 150.046 195.214 151.788C196.609 153.53 203.891 158.522 208.444 156.319C212.632 154.292 212.841 149.616 212.696 147.495C215.866 149.18 220.422 150.751 226.874 151.444C234.482 152.263 240.966 151.861 245.813 151.169C245.512 152.152 245.027 154.637 245.167 155.87C245.56 159.271 246.749 162.262 250.62 162.303C254.491 162.344 257.347 162.531 260.53 160.217C263.713 157.902 265.784 152.057 266.117 147.89C266.434 143.888 268.9 123.241 267.997 110.864C273.729 109.659 278.38 107.298 277.911 101.105" fill="#78B843"/>
<path d="M201.964 111.958C201.964 111.958 196.989 129.687 196.038 140.06C195.087 150.432 197.376 151.099 199.5 151.2C201.624 151.302 202.781 150.995 202.781 150.995C202.781 150.995 199.402 147.802 199.893 136.974C200.385 126.143 201.96 111.958 201.96 111.958" fill="#FFFDFA"/>
<path d="M197.209 91.7501L195.437 89.9987C195.437 89.9987 198.547 84.5864 204.815 85.3894C200.443 87.0428 198.09 90.0714 197.206 91.7501" fill="#FFFDFA"/>
<path d="M212.99 75.02C212.99 75.02 226.226 76.8631 238.207 78.7157C250.188 80.5683 263.596 82.1079 263.596 82.1079C263.596 82.1079 262.426 95.7525 251.012 108.104C239.599 120.456 225.814 118.176 219.369 106.09C213.963 95.9517 210.97 82.6927 212.99 75.02Z" fill="#066635"/>
<path d="M254.468 88.2569C258.685 88.826 260.083 84.1534 260.521 81.7381C258.111 81.4472 254.481 80.9952 250.366 80.4482C249.995 83.6476 250.293 87.6942 254.468 88.2569Z" fill="#E9E9B4"/>
<path d="M221.87 83.3029C226.04 83.4072 227.086 78.9339 227.339 77.0781C223.275 76.4806 219.61 75.9558 217.004 75.5859C216.386 79.035 217.058 83.1828 221.87 83.3029Z" fill="#E9E9B4"/>
<path d="M242.779 107.235C240.17 109.021 241.321 112.887 242.075 114.733C244.443 113.69 246.815 112.125 249.117 109.998C247.833 108.265 245.261 105.534 242.779 107.231" fill="#E9E9B4"/>
<path d="M226.604 105.148C224.587 102.78 221.271 104.424 219.232 105.831C219.277 105.916 219.321 106.005 219.366 106.09C220.83 108.838 222.675 111.076 224.784 112.751C226.613 110.364 228.338 107.184 226.604 105.151" fill="#E9E9B4"/>
<path d="M227.561 58.9285C227.688 63.424 224.134 67.1671 219.626 67.2935C215.117 67.42 211.36 63.8761 211.237 59.3806C211.11 54.885 214.664 51.1419 219.172 51.0155C223.68 50.889 227.434 54.433 227.561 58.9285Z" fill="#FEFEFA"/>
<path d="M218.247 57.2783C218.282 58.5428 217.283 59.5956 216.015 59.6335C214.747 59.6683 213.688 58.6693 213.653 57.4047C213.618 56.1402 214.617 55.0874 215.885 55.0526C217.153 55.0179 218.209 56.0137 218.247 57.2783Z" fill="#2D2967"/>
<path d="M267.987 63.7654C268.114 68.2609 264.56 72.004 260.051 72.1305C255.543 72.2569 251.786 68.713 251.662 64.2175C251.536 59.722 255.09 55.9789 259.598 55.8524C264.106 55.7259 267.86 59.2699 267.987 63.7654Z" fill="#FEFEFA"/>
<path d="M265.323 60.8886C265.358 62.1532 264.36 63.2059 263.091 63.2439C261.823 63.2786 260.764 62.2796 260.729 61.0151C260.695 59.7505 261.693 58.6978 262.961 58.663C264.23 58.6282 265.285 59.6241 265.323 60.8886Z" fill="#2D2967"/>
<path d="M278.554 82.7812C278.588 84.0426 277.593 85.0922 276.328 85.127C275.063 85.1618 274.01 84.1691 273.975 82.9077C273.941 81.6463 274.936 80.5967 276.201 80.5619C277.466 80.5271 278.519 81.5198 278.554 82.7812Z" fill="#D8E085"/>
<path d="M226.443 43.7916C226.443 43.7916 222.949 43.6968 222.73 40.4121C222.511 37.1274 226.287 35.9482 226.151 33.3559C226.015 30.7635 225.187 30.6623 223.574 29.695C221.96 28.7276 219.091 29.186 218.824 27.169C218.558 25.152 221.386 25.642 221.953 24.741C222.521 23.84 226.142 19.4362 226.902 19.4141C227.663 19.3919 227.705 20.783 226.966 21.6903C226.23 22.5976 224.775 25.0414 223.716 25.7021C222.654 26.3628 221.719 26.9603 221.855 27.2101C221.988 27.4598 228.06 28.9994 228.142 31.9712C228.285 37.0926 223.602 37.2855 223.761 39.7514C223.919 42.2141 225.65 42.7674 226.541 42.8211C227.432 42.8748 227.33 43.9307 226.44 43.7885" fill="#D0D78A"/>
<path d="M236.273 38.1897C236.273 38.1897 231.365 36.3245 233.005 33.7985C234.64 31.2725 237.931 33.4444 240.918 32.4897C243.904 31.5349 243.676 28.0605 242.817 27.0837C241.961 26.1068 239.589 24.0835 240.341 22.8C241.089 21.5164 241.561 21.2446 242.211 21.0075C242.858 20.7735 242.877 19.8156 241.619 20.0654C240.36 20.3183 237.675 20.6945 237.554 22.7905C237.43 24.8833 240.753 26.6189 240.614 27.8392C240.474 29.0627 239.231 29.9669 238.936 30.3241C238.642 30.6813 237.728 30.8363 236.289 30.8774C234.85 30.9153 231.353 30.7098 231.185 34.064C231.017 37.4215 233.534 38.4805 234.634 38.7998C235.734 39.1191 236.768 38.6544 236.276 38.1897" fill="#D0D78A"/>
<path d="M255.238 48.4168C255.238 48.4168 252.93 47.0005 254.442 44.914C255.955 42.8274 257.255 44.0541 260.406 42.7895C263.557 41.5281 265.336 39.606 263.608 37.1306C261.88 34.6552 259.826 32.9702 262.359 33.0303C264.892 33.0903 268.234 32.3885 269.638 31.1303C271.043 29.872 272.71 27.0426 270.732 24.9624C268.754 22.8853 267.847 23.2141 267.248 23.6662C266.648 24.1183 266.981 25.111 267.79 25.8697C268.598 26.6316 268.801 27.9372 268.43 28.6422C268.062 29.3441 266.36 30.9595 264.616 31.0512C262.872 31.1429 261.614 31.3516 260.609 31.3358C259.604 31.3199 257.064 30.9564 258.929 33.6878C260.793 36.4224 261.674 38.2244 261.176 39.1539C260.679 40.0802 260.143 41.1835 257.495 41.781C254.848 42.3754 251.526 43.6873 251.944 46.2007C252.363 48.714 253.773 49.1977 254.255 49.2704C254.737 49.3431 255.644 49.0143 255.235 48.4168" fill="#D0D78A"/>
<path d="M251.803 154.7C251.929 154.412 252.101 154.163 252.319 153.954C252.538 153.742 252.792 153.578 253.08 153.458C253.369 153.337 253.676 153.277 254.003 153.277C254.329 153.277 254.634 153.337 254.922 153.458C255.211 153.578 255.461 153.742 255.677 153.954C255.892 154.163 256.064 154.412 256.19 154.7C256.317 154.985 256.381 155.294 256.381 155.629C256.381 155.965 256.317 156.287 256.19 156.575C256.064 156.862 255.892 157.115 255.677 157.327C255.461 157.539 255.211 157.706 254.922 157.823C254.634 157.944 254.329 158 254.003 158C253.676 158 253.369 157.94 253.08 157.823C252.792 157.706 252.538 157.542 252.319 157.327C252.101 157.112 251.929 156.862 251.803 156.575C251.676 156.287 251.612 155.971 251.612 155.629C251.612 155.288 251.676 154.988 251.803 154.7ZM252.192 156.436C252.294 156.682 252.43 156.897 252.605 157.077C252.779 157.261 252.988 157.403 253.226 157.504C253.464 157.608 253.724 157.659 254.003 157.659C254.282 157.659 254.532 157.608 254.77 157.504C255.008 157.4 255.214 157.258 255.388 157.077C255.566 156.897 255.702 156.682 255.8 156.436C255.899 156.189 255.949 155.92 255.949 155.629C255.949 155.339 255.899 155.083 255.8 154.839C255.699 154.596 255.563 154.384 255.388 154.204C255.214 154.023 255.008 153.881 254.77 153.78C254.532 153.676 254.275 153.625 254.003 153.625C253.73 153.625 253.464 153.676 253.226 153.78C252.988 153.881 252.779 154.023 252.605 154.204C252.427 154.384 252.291 154.596 252.192 154.839C252.094 155.086 252.043 155.348 252.043 155.629C252.043 155.911 252.094 156.189 252.192 156.436ZM254.149 154.254C254.478 154.254 254.722 154.321 254.881 154.45C255.039 154.58 255.119 154.779 255.119 155.045C255.119 155.294 255.049 155.475 254.91 155.591C254.77 155.708 254.596 155.775 254.39 155.797L255.182 157.017H254.719L253.965 155.829H253.508V157.017H253.077V154.251H254.149V154.254ZM253.958 155.484C254.057 155.484 254.145 155.481 254.234 155.475C254.32 155.468 254.399 155.452 254.466 155.421C254.532 155.392 254.586 155.345 254.627 155.285C254.665 155.225 254.688 155.139 254.688 155.029C254.688 154.937 254.669 154.861 254.634 154.807C254.599 154.754 254.551 154.709 254.494 154.681C254.437 154.653 254.371 154.63 254.298 154.621C254.225 154.611 254.149 154.605 254.079 154.605H253.508V155.484H253.958Z" fill="white"/>
<path d="M343.838 73.9864C343.838 73.9864 353.412 65.9817 349.215 50.769C353.688 53.7408 362.502 64.6855 349.25 78.8992C347.205 76.2499 343.838 73.9864 343.838 73.9864Z" fill="#C32427"/>
<path d="M348.235 142.073C348.261 136.149 345.119 133.354 337.304 133.12C342.208 128.862 362.724 109.166 350.794 86.2779C339.729 70.395 310.508 64.2998 310.508 64.2998C310.508 64.2998 270.38 80.9636 271.334 101.93C272.288 122.896 287.763 134.508 295.648 137.183C295.981 137.293 296.349 137.398 296.748 137.496C296.748 137.496 284.621 136.696 284.276 145.624C284.003 152.588 291.698 153.717 296.003 153.454C295.695 160.375 295.493 167.466 295.603 172.828C295.921 187.961 297.915 194.297 300.933 196.127C303.948 197.958 308.507 198.729 309.141 194.306C309.449 192.156 309.385 189.608 309.236 187.55C311.715 188.378 315.244 188.973 319.876 188.363C324.543 187.749 328.493 186.128 331.407 184.553C331.388 187.885 331.638 192.235 332.925 194.17C335.157 197.515 342.576 194.047 342.937 188.151C343.299 182.255 342.1 164.902 340.22 152.629C340.033 151.412 339.837 150.189 339.634 148.968C342.167 148.655 348.21 147.356 348.232 142.07" fill="#EDB5BB"/>
<path d="M337.521 153.271C337.521 153.271 340.936 171.364 340.98 181.781C341.028 192.197 338.688 192.665 336.56 192.58C334.436 192.498 333.308 192.09 333.308 192.09C333.308 192.09 336.954 189.203 337.404 178.369C337.854 167.538 337.518 153.271 337.518 153.271" fill="#FFFDFA"/>
<path d="M287.463 103.773C287.463 103.773 300.775 102.569 312.864 101.658C324.953 100.748 338.36 99.208 338.36 99.208C338.36 99.208 340.329 112.761 332.029 127.376C323.729 141.991 309.786 142.892 300.753 132.583C293.179 123.933 287.244 111.699 287.463 103.77" fill="#C32427"/>
<path d="M330.871 107.266C335.107 106.865 335.405 101.996 335.278 99.5461C332.865 99.8085 329.229 100.191 325.095 100.589C325.462 103.792 326.674 107.661 330.868 107.263" fill="#E9E9B4"/>
<path d="M297.998 109.827C302.082 108.983 302.082 104.393 301.907 102.527C297.811 102.866 294.124 103.185 291.499 103.416C291.683 106.915 293.284 110.804 297.998 109.83" fill="#E9E9B4"/>
<path d="M323.814 128.397C321.68 130.73 323.684 134.23 324.838 135.861C326.908 134.309 328.858 132.248 330.614 129.655C328.969 128.258 325.846 126.181 323.814 128.397Z" fill="#E9E9B4"/>
<path d="M307.585 130.029C305.08 128.179 302.227 130.531 300.562 132.362C300.626 132.434 300.689 132.51 300.75 132.58C302.801 134.922 305.109 136.683 307.544 137.84C308.783 135.103 309.734 131.616 307.585 130.025" fill="#E9E9B4"/>
<path d="M287.402 91.4847C287.329 92.351 286.565 92.999 285.693 92.9263C284.822 92.8536 284.175 92.0917 284.248 91.2223C284.321 90.353 285.085 89.708 285.957 89.7807C286.828 89.8535 287.475 90.6154 287.402 91.4847Z" fill="#421813"/>
<path d="M338.668 87.1757C338.595 88.0419 337.831 88.69 336.959 88.6173C336.087 88.5445 335.441 87.7826 335.513 86.9133C335.586 86.0439 336.35 85.3989 337.222 85.4717C338.094 85.5444 338.741 86.3063 338.668 87.1757Z" fill="#421813"/>
<path d="M346.381 85.6296C346.381 85.6296 341.673 77.8905 329.641 72.7816C317.607 67.6728 310.492 66.7339 310.492 66.7339L312.68 71.0271C312.68 71.0271 321.046 71.6341 332.159 77.2772C343.274 82.9234 344.97 84.6369 346.381 85.6296Z" fill="#FFFDFA"/>
<path d="M334.346 137.376L334.612 134.167C334.612 134.167 342.582 132.738 347.002 139.601C341.72 136.655 336.752 136.851 334.346 137.376Z" fill="#FFFDFA"/>
<path d="M272.686 88.6836L269.677 95.5154C269.677 95.5154 249.437 87.1851 259.05 69.1777C260.844 83.5179 270.695 88.2347 272.689 88.6836" fill="#C32427"/>
<path d="M264.494 105.332C264.494 105.332 251.701 108.547 252.237 117.029C252.77 125.511 260.987 123.137 262.902 121.834C264.817 120.528 265.67 116.962 263.86 114.307C262.049 111.654 262.04 109.065 264.494 105.332Z" fill="#C32427"/>
<path d="M361.583 92.9925C361.583 92.9925 365.4 86.2271 371.871 86.6381C378.342 87.0491 379.753 94.1528 378.76 97.0644C377.768 99.9761 373.65 104.623 370.768 99.2711C367.886 93.9188 366.874 92.531 361.583 92.9925Z" fill="#C32427"/>
<path d="M358.952 99.0404C358.952 99.0404 368.438 97.8296 368.885 104.478C369.332 111.13 364.269 111.838 362.056 110.592C359.846 109.343 360.56 106.792 361.463 104.927C362.37 103.065 359.716 100.349 358.952 99.0372" fill="#C32427"/>
<path d="M302.003 190.291C302.146 190.013 302.336 189.776 302.564 189.576C302.795 189.38 303.059 189.232 303.353 189.128C303.648 189.026 303.962 188.985 304.286 189.004C304.612 189.023 304.913 189.102 305.192 189.241C305.471 189.38 305.712 189.561 305.915 189.785C306.118 190.01 306.273 190.269 306.381 190.563C306.489 190.857 306.533 191.17 306.514 191.502C306.492 191.843 306.41 192.153 306.267 192.434C306.121 192.716 305.937 192.953 305.706 193.155C305.478 193.354 305.218 193.503 304.923 193.604C304.628 193.705 304.32 193.743 303.994 193.724C303.667 193.702 303.366 193.626 303.084 193.49C302.802 193.354 302.561 193.174 302.355 192.947C302.149 192.722 301.993 192.46 301.886 192.166C301.778 191.868 301.733 191.552 301.756 191.211C301.775 190.879 301.857 190.572 302.003 190.294M302.285 192.049C302.367 192.302 302.494 192.523 302.656 192.713C302.821 192.905 303.017 193.06 303.249 193.177C303.48 193.297 303.737 193.361 304.013 193.38C304.289 193.395 304.546 193.361 304.79 193.272C305.031 193.184 305.246 193.054 305.433 192.883C305.62 192.713 305.769 192.507 305.883 192.267C305.998 192.027 306.064 191.761 306.08 191.47C306.099 191.189 306.064 190.923 305.982 190.67C305.899 190.421 305.772 190.199 305.611 190.013C305.446 189.823 305.249 189.668 305.021 189.551C304.79 189.434 304.539 189.365 304.263 189.349C303.984 189.333 303.721 189.368 303.477 189.456C303.233 189.545 303.017 189.671 302.83 189.842C302.643 190.01 302.494 190.212 302.38 190.452C302.266 190.689 302.199 190.949 302.184 191.23C302.165 191.521 302.199 191.793 302.282 192.046M304.371 189.994C304.701 190.013 304.942 190.095 305.091 190.234C305.24 190.373 305.306 190.575 305.291 190.841C305.275 191.088 305.195 191.268 305.046 191.375C304.901 191.483 304.723 191.54 304.514 191.549L305.23 192.817L304.767 192.788L304.089 191.556L303.632 191.527L303.56 192.716L303.128 192.69L303.3 189.931L304.368 189.997L304.371 189.994ZM304.105 191.205C304.203 191.211 304.292 191.214 304.381 191.211C304.466 191.211 304.546 191.198 304.615 191.173C304.685 191.148 304.742 191.107 304.786 191.047C304.831 190.99 304.856 190.904 304.863 190.794C304.869 190.702 304.856 190.626 304.825 190.569C304.793 190.512 304.748 190.468 304.691 190.433C304.637 190.402 304.571 190.376 304.498 190.361C304.425 190.345 304.352 190.335 304.282 190.332L303.712 190.297L303.658 191.176L304.108 191.205H304.105Z" fill="white"/>
<path d="M442.936 57.4616C440.045 55.4699 437.553 54.844 435.619 54.7902C433.91 39.6566 427.921 24.7 406.293 18.7186C381.272 11.7983 369.05 30.0365 367.532 43.4471C367.437 44.2754 367.322 45.1416 367.186 46.0458C364.808 45.7044 357.681 45.0215 354.46 48.5528C350.564 52.8238 348.557 58.3437 354.549 64.1638C357.101 66.6423 359.847 67.7393 362.158 68.1851C360.138 75.5828 358.353 81.2796 358.353 81.2796C356.54 87.3242 351.502 102.486 349.771 117.49C349.242 122.896 353.49 126.187 359.688 127.12C365.886 128.053 369.32 124.449 370.452 121.101C370.81 120.038 371.079 118.496 371.279 116.883C374.415 118.647 379.341 120.509 386.893 121.448C395.675 122.542 403.119 122.302 408.217 121.828C408.033 122.666 407.821 123.529 407.58 124.351C406.594 127.702 406.829 129.984 408.924 132.479C411.023 134.976 425.16 135.896 429.662 124.834C435.866 112.587 436.84 93.1918 436.624 76.939C438.732 76.6418 440.974 76.0349 442.987 74.8746C449.134 71.3339 449.902 62.2606 442.936 57.4616Z" fill="#A9C1C6"/>
<path d="M415.889 24.3491C415.889 24.3491 402.332 16.7807 392.187 19.4458C382.042 22.1109 375.841 26.8688 374.16 30.34C372.48 33.8112 375.394 35.7491 376.449 35.6606C377.524 34.3139 383.012 27.109 390.732 24.6937C398.455 22.2784 400.253 21.7821 415.889 24.3523" fill="#FFFDFA"/>
<path d="M374.246 25.3007C373.031 24.3428 370.891 22.2215 367.921 17.6501C363.073 10.1797 364.994 0.00317383 364.994 0.00317383C364.994 0.00317383 359.757 4.09719 359.506 13.4296C359.272 22.0824 368.247 31.2157 369.553 32.4992C370.035 31.2884 370.73 29.8942 371.738 28.4115C372.648 27.0743 373.494 26.0658 374.242 25.3039" fill="#A3646A"/>
<path d="M423.948 26.0626C423.948 26.0626 428.951 24.2384 431.611 16.825C434.271 9.41147 434.528 5.72211 434.398 1.73242C435.533 3.79366 442.806 12.1777 436.582 22.8696C430.359 33.5582 428.216 33.4666 428.216 33.4666C428.216 33.4666 427.211 29.4231 423.951 26.0657" fill="#A3646A"/>
<path d="M365.81 53.4941C365.81 53.4941 405.725 58.2805 423.108 60.5125C423.698 71.9314 418.736 87.8301 403.436 96.1351C388.136 104.437 378.022 97.8802 372.693 82.2376C367.363 66.5918 365.807 53.4941 365.807 53.4941" fill="#56585A"/>
<path d="M377.02 62.9341C381.338 63.1806 382.372 58.7642 382.549 55.5111C377.933 54.9515 373.881 54.4647 370.917 54.1074C371.234 57.4964 372.464 62.6748 377.017 62.9341" fill="#ECE0B2"/>
<path d="M383.5 86.651C381.845 83.9006 377.86 86.2621 375.231 88.2854C376.633 91.0074 378.253 93.2931 380.085 95.0919C381.972 93.4449 385.412 89.825 383.5 86.651Z" fill="#ECE0B2"/>
<path d="M401.86 88.9618C398.779 90.435 399.004 95.1423 399.584 97.956C400.83 97.4565 402.114 96.8526 403.439 96.135C405.446 95.0443 407.275 93.8208 408.937 92.4962C408.052 91.1368 405.218 87.3589 401.86 88.9618Z" fill="#ECE0B2"/>
<path d="M419.915 60.1045C416.441 59.6651 412.383 59.1593 408.077 58.6282C408.511 61.6726 409.875 67.2051 414.091 67.4264C418.289 67.6445 419.544 62.8202 419.919 60.1045" fill="#ECE0B2"/>
<path d="M371.488 46.6559C371.472 47.5853 370.704 48.3251 369.776 48.3093C368.843 48.2935 368.102 47.5284 368.117 46.599C368.133 45.6727 368.901 44.9329 369.829 44.9487C370.762 44.9645 371.503 45.7296 371.488 46.6559Z" fill="#482B18"/>
<path d="M425.175 53.6491C425.159 54.5785 424.392 55.3183 423.463 55.3025C422.531 55.2867 421.789 54.5216 421.805 53.5922C421.821 52.6659 422.588 51.9261 423.517 51.9419C424.449 51.9577 425.191 52.7228 425.175 53.6491Z" fill="#482B18"/>
<path d="M361.079 80.8687C361.079 80.8687 354.222 99.464 352.313 110.51C350.401 121.556 352.801 122.47 355.075 122.757C357.345 123.048 358.613 122.817 358.613 122.817C358.613 122.817 355.262 119.106 356.717 107.529C358.175 95.9517 361.079 80.8687 361.079 80.8687Z" fill="#FFFDFA"/>
<path d="M355.033 57.5408L352.398 54.9737C352.398 54.9737 353.755 50.8923 359.944 48.7173C366.133 46.5422 366.462 47.5381 366.462 47.5381C366.462 47.5381 361.976 48.9481 358.752 51.8629C355.528 54.7777 355.036 57.5376 355.036 57.5376" fill="#FFFDFA"/>
<path d="M364.294 44.2659C364.294 44.2659 362.67 44.1331 361.897 44.0857C361.12 44.0382 359.351 44.1837 359.351 44.1837C359.351 44.1837 358.108 42.4733 357.379 41.7936C357.176 41.2625 357.265 40.2762 357.652 40.3173C357.798 39.9316 357.877 39.4384 358.165 39.1286C358.454 38.8156 358.923 38.2624 358.65 37.6554C358.378 37.0515 357.81 37.1843 357.531 37.0389C357.252 36.8935 357.23 35.9419 357.832 35.9514C358.432 35.9609 360.071 35.1073 360.071 35.1073C360.071 35.1073 361.174 34.7026 361.142 34.3517C361.114 34.0008 361.402 33.5455 361.199 32.9797C360.996 32.4138 360.511 31.8763 360.527 30.9595C360.543 30.0427 359.846 29.5053 359.925 28.9773C360.004 28.4494 360.163 27.4314 360.163 27.4314C360.163 27.4314 361.161 29.0342 363.289 30.6529C365.416 32.2715 366.662 32.6098 366.662 32.6098C366.662 32.6098 365.27 34.7342 364.915 39.1665C364.56 43.5988 364.44 44.2659 364.44 44.2659" fill="#4E5050"/>
<path d="M379.476 16.926L374.997 16.6541L374.927 20.8778L377.606 21.0991L382.529 18.257C382.529 18.257 384.673 17.3971 383.116 18.9873C381.528 20.6091 380.491 22.528 380.868 24.7094C380.868 24.7094 381.172 27.6368 381.889 29.1638C382.678 28.5442 384.4 26.9508 384.4 26.9508L388.189 30.5706L396.175 30.3873C396.175 30.3873 396.961 29.872 396.755 29.4452C396.552 29.0184 394.745 25.0445 394.745 25.0445C394.745 25.0445 394.333 24.2636 395.005 24.2731C395.677 24.2858 398.47 24.1182 398.755 23.8937C399.041 23.6693 399.431 23.6408 399.431 23.6408C399.431 23.6408 399.072 21.9084 399.149 21.4184C399.228 20.9252 398.904 19.0536 397.199 17.5457C395.493 16.0377 393.99 15.064 393.99 15.064C393.99 15.064 401.149 13.6666 410.194 17.7259C419.239 21.7851 422.137 23.84 422.137 23.84L422.562 23.7768C422.562 23.7768 422.79 20.6091 422.828 20.5047C422.863 20.4004 423.722 17.6531 423.722 17.6531L418.111 17.3749L408.124 8.35546L407.395 11.9721L400.594 0.341309C400.594 0.341309 397.256 5.67459 395.639 7.30588C394.022 8.934 392.047 11.0142 392.047 11.0142L390.62 9.68641C390.62 9.68641 388.791 9.30388 385.741 9.95829C382.694 10.6127 382.371 10.9225 382.371 10.9225L380.075 4.50804C380.075 4.50804 379.14 3.40155 379.039 5.33632C378.934 7.2711 379.261 13.2303 379.511 15.2062C379.638 16.0882 379.483 16.9197 379.483 16.9197" fill="#575658"/>
<path d="M435.71 30.634C435.317 31.1019 433.51 33.0241 432.622 33.5362C431.738 34.0484 431.173 34.3329 431.684 35.0221C432.194 35.7113 435.488 39.0718 437.153 44.4778C438.817 49.8838 438.785 51.9261 438.785 51.9261L441.154 52.2327C441.154 52.2327 441.068 49.6309 441.09 48.3C441.112 46.9722 440.783 45.3788 440.963 44.247C441.144 43.1153 441.122 40.5545 441.122 40.5545C441.122 40.5545 440.057 38.1708 438.703 36.5933C437.349 35.0158 435.12 34.0389 435.12 34.0389C435.12 34.0389 435.247 32.357 435.64 32.0061C436.037 31.6583 436.468 31.0166 436.344 30.7226C436.221 30.4286 435.938 30.3622 435.713 30.634" fill="#4D4F53"/>
<path d="M413.79 127.25C413.917 126.962 414.088 126.712 414.307 126.503C414.525 126.292 414.779 126.127 415.068 126.007C415.356 125.887 415.664 125.827 415.99 125.827C416.317 125.827 416.621 125.887 416.91 126.007C417.198 126.127 417.448 126.292 417.664 126.503C417.88 126.712 418.051 126.962 418.178 127.25C418.304 127.534 418.368 127.844 418.368 128.179C418.368 128.514 418.304 128.837 418.178 129.124C418.051 129.412 417.88 129.665 417.664 129.877C417.448 130.088 417.198 130.256 416.91 130.373C416.621 130.493 416.317 130.55 415.99 130.55C415.664 130.55 415.356 130.49 415.068 130.373C414.779 130.256 414.525 130.092 414.307 129.877C414.088 129.662 413.917 129.412 413.79 129.124C413.663 128.837 413.6 128.52 413.6 128.179C413.6 127.838 413.663 127.537 413.79 127.25ZM414.18 128.985C414.281 129.232 414.418 129.447 414.592 129.627C414.766 129.81 414.976 129.953 415.213 130.054C415.451 130.158 415.711 130.209 415.99 130.209C416.269 130.209 416.52 130.158 416.757 130.054C416.995 129.949 417.201 129.807 417.376 129.627C417.553 129.447 417.689 129.232 417.788 128.985C417.886 128.739 417.937 128.47 417.937 128.179C417.937 127.888 417.886 127.632 417.788 127.389C417.686 127.145 417.55 126.933 417.376 126.753C417.201 126.573 416.995 126.431 416.757 126.33C416.52 126.225 416.263 126.175 415.99 126.175C415.717 126.175 415.451 126.225 415.213 126.33C414.976 126.434 414.766 126.573 414.592 126.753C414.418 126.933 414.278 127.145 414.18 127.389C414.082 127.635 414.031 127.898 414.031 128.179C414.031 128.46 414.082 128.739 414.18 128.985ZM416.136 126.804C416.466 126.804 416.71 126.87 416.868 127C417.027 127.129 417.106 127.329 417.106 127.594C417.106 127.844 417.036 128.024 416.897 128.141C416.757 128.258 416.583 128.324 416.377 128.347L417.169 129.567H416.707L415.952 128.378H415.496V129.567H415.064V126.801H416.136V126.804ZM415.946 128.034C416.044 128.034 416.133 128.03 416.222 128.024C416.307 128.018 416.386 127.999 416.453 127.97C416.52 127.942 416.573 127.894 416.615 127.834C416.653 127.774 416.675 127.689 416.675 127.578C416.675 127.487 416.656 127.411 416.621 127.357C416.586 127.303 416.539 127.259 416.482 127.231C416.424 127.202 416.358 127.18 416.285 127.17C416.212 127.161 416.136 127.155 416.066 127.155H415.496V128.034H415.946Z" fill="white"/>
<path d="M534.218 152.386L519.394 165.063C519.394 165.063 524.067 174.857 534.539 167.652C545.01 160.447 534.215 152.386 534.215 152.386" fill="#FED296"/>
<path d="M543.121 92.961C543.121 92.961 557.841 91.4942 560.26 97.1973C562.679 102.9 552.004 105.837 552.004 105.837C552.004 105.837 562.023 110.725 561.252 116.94C560.482 123.156 553.082 121.098 553.082 121.098C553.082 121.098 561.963 132.665 558.202 136.519C554.446 140.373 547.299 136.241 547.299 136.241C547.299 136.241 549.601 151.709 545.673 153.154C541.745 154.599 537.192 147.208 537.192 147.208C537.192 147.208 534.428 159.43 527.995 159.651C521.562 159.875 523.128 153.53 523.128 153.53C523.128 153.53 511.797 164.289 506.674 160.239C501.551 156.189 506.049 151.406 506.049 151.406C506.049 151.406 492.613 155.19 489.567 152.026C486.523 148.861 490.851 141.666 490.851 141.666C490.851 141.666 483.105 146.161 480.544 144.135C477.982 142.111 478.87 126.13 478.87 126.13C478.87 126.13 471.866 129.69 470.36 125.467C468.851 121.243 476.828 108.588 476.828 108.588C476.828 108.588 471.714 112.296 470.452 109.612C466.962 102.199 479.792 93.489 479.792 93.489C479.792 93.489 470.31 97.4502 469.685 93.0843C468.731 86.4138 490.324 82.8635 490.324 82.8635C490.324 82.8635 484.091 80.2111 484.066 74.1223C484.041 68.0366 503.107 75.5291 503.107 75.5291C503.107 75.5291 499.411 68.8143 503.596 65.2988C507.781 61.7833 522.38 80.1479 522.38 80.1479C522.38 80.1479 519.936 68.359 525.573 68.2642C531.207 68.1693 536.926 86.3379 536.926 86.3379C536.926 86.3379 542.014 79.9456 544.243 81.5073C548.038 84.1629 543.124 92.9705 543.124 92.9705" fill="#DCA66D"/>
<path d="M519.057 169.799C514.926 173.014 510.668 176.065 506.319 178.977C504.603 180.127 502.872 181.256 501.132 182.362C498.811 183.842 496.468 185.284 494.106 186.697C492.109 187.888 490.115 189.194 487.956 190.092C484.243 191.635 480.042 191.546 476.824 188.859C473.968 186.469 474.142 183.014 475.426 179.878C475.449 179.821 475.471 179.764 475.493 179.71C476.66 176.96 478.194 174.424 479.199 171.595C479.377 171.098 479.541 170.596 479.703 170.087C479.599 169.315 479.377 168.557 479.082 167.833C478.074 165.367 476.114 163.245 473.8 161.918C471.305 160.495 468.566 160.381 465.791 160.865C464.989 161.004 464.171 161.206 463.382 161.481C462.653 162.332 461.958 163.217 461.277 164.127C460.129 165.658 458.747 167.463 457.035 168.598C456.071 169.236 455.003 169.663 453.817 169.704C449.489 169.859 446.462 165.338 445.707 161.589C445.187 159 445.523 156.414 446.221 153.9C446.785 151.839 447.597 149.822 448.377 147.894C450.32 143.066 452.58 138.381 454.264 133.452C455.871 128.748 457.533 124.053 459.365 119.428C463.017 108.493 471.571 96.034 471.571 96.034C475.699 90.4573 480.746 85.6867 487.119 82.7529C488.425 82.1523 489.763 81.6559 491.132 81.2639C495.374 79.5093 500.019 78.7854 504.613 78.8897C514.85 79.13 524.742 83.5812 532.861 89.6511C536.114 92.0822 539.231 94.8548 541.929 97.9466C542.934 98.914 543.888 99.932 544.772 101.023C549.408 106.745 551.757 113.921 551.706 121.215C551.652 128.495 549.426 135.653 545.888 141.963C544.29 144.814 542.417 147.464 540.366 149.964C540.366 149.964 529.659 160.871 519.057 169.793" fill="#FFECBA"/>
<path d="M482.249 94.1528C482.749 93.4953 482.423 92.2528 481.465 92.2181C480.521 92.1833 479.665 92.452 478.951 93.0811C478.625 93.3688 478.311 93.6976 478.102 94.058C477.934 94.2192 477.772 94.3868 477.62 94.5638C477.132 95.1234 477.512 96.2014 478.298 96.2425C478.596 96.2583 478.882 96.2425 479.151 96.2046C479.306 96.2046 479.465 96.1825 479.608 96.1287C479.639 96.1161 479.665 96.1003 479.693 96.0876C480.72 95.7873 481.542 95.0886 482.249 94.156" fill="#EBC17D"/>
<path d="M473.312 98.0984C473.147 98.1016 472.985 98.1174 472.827 98.1458C471.53 98.1648 469.942 99.6791 469.59 100.628C469.263 101.51 470.081 102.294 470.956 102.028C471.096 101.987 471.232 101.939 471.369 101.889C471.562 101.933 471.765 101.924 471.958 101.823C472.19 101.702 472.421 101.595 472.586 101.386C472.605 101.364 472.618 101.339 472.63 101.314C473.176 101.01 473.692 100.65 474.165 100.242C475.087 99.4451 474.526 98.0731 473.312 98.0952" fill="#EBC17D"/>
<path d="M479.097 102.11C478.961 101.146 477.572 100.612 476.963 101.497C476.84 101.68 476.687 101.876 476.532 102.078C475.296 103.062 474.868 104.984 475.695 106.384C476.079 107.032 476.954 106.862 477.382 106.422C478.472 105.303 479.328 103.726 479.1 102.11M478.019 104.427C478.032 104.358 478.035 104.288 478.035 104.212C478.048 104.197 478.063 104.181 478.073 104.165C478.143 104.437 478.073 104.475 478.019 104.427Z" fill="#EBC17D"/>
<path d="M541.55 137.989C541.677 137.072 540.507 136.259 539.74 136.904C539.226 137.334 538.792 137.837 538.462 138.406C537.759 139.193 537.324 140.218 537.394 141.283C537.442 141.991 538.412 142.446 538.967 141.972C540.174 140.932 541.322 139.623 541.547 137.989" fill="#EBC17D"/>
<path d="M533.784 142.715C532.804 142.921 530.782 143.898 530.48 145.048C530.411 145.175 530.344 145.301 530.284 145.434C529.903 146.297 530.797 146.98 531.59 146.771C532.877 146.436 533.923 145.485 534.817 144.552C535.474 143.866 534.729 142.516 533.784 142.712" fill="#EBC17D"/>
<path d="M539.478 147.185C539.336 146.347 538.337 145.801 537.608 146.366C537.284 146.619 536.98 146.917 536.695 147.236C536.457 147.384 536.244 147.606 536.083 147.821C535.911 148.055 535.782 148.308 535.69 148.573C535.674 148.595 535.661 148.621 535.645 148.643C535.255 149.253 535.043 150.002 535.626 150.596C536.073 151.055 536.666 151.067 537.138 150.799C538.638 150.261 539.757 148.842 539.478 147.185Z" fill="#EBC17D"/>
<path d="M464.079 139.551C464.339 139.08 464.573 138.605 464.773 138.119C464.786 138.096 464.801 138.074 464.814 138.052C464.897 137.897 464.95 137.73 464.982 137.559C465.16 137.034 465.293 136.494 465.359 135.921C465.534 134.454 463.825 133.383 462.601 134.268C461.805 134.843 461.279 135.817 461.282 136.8C461.083 137.553 461.067 138.362 461.162 139.121C461.244 139.788 461.796 140.354 462.465 140.452C463.178 140.556 463.749 140.142 464.079 139.551Z" fill="#EBC17D"/>
<path d="M470.728 140.17C470.826 139.247 470.344 138.609 469.583 138.163C468.664 137.622 467.545 137.727 466.85 138.574C466.549 138.944 466.429 139.424 466.438 139.892C466.438 139.914 466.441 139.93 466.441 139.949C465.804 140.837 465.481 141.947 465.211 143.009C464.891 144.277 466.508 145.494 467.655 144.941C469.685 143.961 470.496 142.342 470.724 140.17" fill="#EBC17D"/>
<path d="M462.002 147.59C461.977 146.344 460.119 145.472 459.187 146.354C458.467 147.037 458.027 147.672 457.811 148.649C457.738 148.968 457.675 149.307 457.653 149.639C457.529 150.303 457.526 150.992 457.573 151.668C457.675 153.094 459.431 153.306 460.268 152.443C461.581 151.093 462.04 149.433 462.002 147.59Z" fill="#EBC17D"/>
<path d="M498.665 168.051C499.28 166.612 497.774 165.117 496.325 165.654C495.197 166.072 494.518 166.903 494.15 167.99C493.798 168.477 493.5 169.008 493.266 169.559C492.759 170.75 494.058 172.274 495.33 171.674C496.931 170.918 497.98 169.653 498.665 168.051Z" fill="#EBC17D"/>
<path d="M504.692 175.104C505.206 174.617 505.526 174.045 505.326 173.308C505.139 172.609 504.607 172.167 503.903 172.012C502.853 171.781 501.766 172.021 501.192 172.986C501.157 173.042 501.132 173.099 501.103 173.159C500.567 173.504 500.095 173.95 499.791 174.332C498.973 175.363 499.876 176.786 501.125 176.71C501.725 176.672 502.267 176.552 502.774 176.356C503.11 176.296 503.414 176.134 503.662 175.91C504.02 175.685 504.362 175.423 504.692 175.107" fill="#EBC17D"/>
<path d="M493.44 179.514C494.331 178.995 495.124 178.35 495.818 177.538C496.886 176.283 495.365 174.013 493.792 174.816C493.431 174.999 493.076 175.189 492.721 175.388C492.131 175.54 491.576 175.916 491.113 176.387C490.413 176.864 489.772 177.405 489.658 178.312C489.522 179.381 490.156 180.462 491.288 180.627C491.998 180.731 492.587 180.415 493.063 179.928C493.104 179.884 493.145 179.846 493.183 179.817C493.098 179.865 492.981 179.928 492.822 180.004C493.072 179.884 493.279 179.713 493.44 179.517" fill="#EBC17D"/>
<path d="M493.184 179.814C493.367 179.659 493.456 179.659 493.184 179.814V179.814Z" fill="#EBC17D"/>
<path d="M494.283 101.803C494.283 101.803 503.164 109.875 511.109 117.31C519.054 124.749 528.213 132.684 528.213 132.684C528.213 132.684 520.455 142.127 505.76 145.421C491.062 148.715 481.998 140.047 483.323 127.888C484.436 117.689 488.913 106.419 494.283 101.8" fill="#56585A"/>
<path d="M518.344 132.583C521.182 135.14 524.577 132.412 526.121 130.86C524.482 129.421 522.019 127.249 519.248 124.758C517.355 126.924 515.535 130.05 518.344 132.583Z" fill="#EDD180"/>
<path d="M500.98 114.076C503.18 115.663 505.38 113.665 506.195 112.767C504.229 110.956 502.454 109.327 501.189 108.17C499.594 109.78 498.437 112.239 500.98 114.073" fill="#EDD180"/>
<path d="M500.098 140.61C497.26 140.6 496.163 144.027 495.789 145.769C498.072 146.205 500.621 146.256 503.398 145.858C503.322 143.932 502.796 140.619 500.098 140.61Z" fill="#EDD180"/>
<path d="M489.164 130.873C488.863 128.106 485.578 127.635 483.356 127.635C483.346 127.721 483.333 127.806 483.324 127.891C483.023 130.654 483.26 133.234 483.977 135.539C486.539 134.714 489.421 133.247 489.164 130.873Z" fill="#EDD180"/>
<path d="M508.925 98.8475C507.787 100.28 505.691 100.514 504.242 99.366C502.793 98.2216 502.543 96.1319 503.681 94.6998C504.819 93.2676 506.915 93.0337 508.364 94.1813C509.813 95.3257 510.063 97.4154 508.925 98.8475Z" fill="#665A44"/>
<path d="M536.399 123.38C535.26 124.812 533.165 125.046 531.716 123.898C530.267 122.754 530.017 120.664 531.155 119.232C532.293 117.8 534.389 117.566 535.837 118.714C537.286 119.858 537.537 121.948 536.399 123.38Z" fill="#665A44"/>
<path d="M471.574 96.0402C471.574 96.0402 464.697 91.804 457.827 100.447C450.957 109.091 463.984 116.577 463.984 116.577L471.574 96.0434V96.0402Z" fill="#FFECBA"/>
<path d="M455.18 135.412C455.18 135.412 442.147 157.479 448.38 165.455C449.61 166.894 451.502 168.392 454.219 167.959C452.97 164.156 445.238 163.438 455.183 135.412" fill="white"/>
<path d="M544.064 99.8085C544.064 99.8085 548.474 114.553 543.465 115.287C538.456 116.017 535.206 106.011 540.342 97.8421C532.321 107.418 525.923 108.303 524.218 102.888C522.512 97.4722 536.392 91.5541 536.392 91.5541C536.392 91.5541 520.625 102.233 518.723 92.2875C516.824 82.3417 532.797 86.5243 532.797 86.5243L544.064 99.8085Z" fill="#DCA66D"/>
<path d="M559.863 145.867C559.863 145.867 561.039 145.895 561.007 147.068L560.919 150.581C560.919 150.581 560.89 151.754 559.714 151.722L550.317 151.488C550.317 151.488 549.144 151.456 549.172 150.287L549.261 146.774C549.261 146.774 549.293 145.605 550.466 145.633L559.863 145.87V145.867Z" fill="#898D8D"/>
<path d="M558.541 151.694L557.308 154.008C557.308 154.008 564.324 155.358 564.118 163.555C563.674 181.123 541.475 175.875 541.475 175.875C541.475 175.875 552.165 171.456 552.222 169.113L549.933 166.71L542.885 166.533L543.034 160.675L548.906 160.824L549.023 156.139L552.606 153.884L551.49 151.513L558.538 151.69L558.541 151.694Z" fill="#B7BABB"/>
<path d="M515.224 168.18C512.298 168.108 509.999 165.692 510.072 162.777C510.145 159.859 512.564 157.567 515.49 157.64C516.346 157.662 520.129 157.959 525.024 158.449C530.55 159 537.502 159.79 543.291 160.688L543.142 166.543C537.315 167.146 530.331 167.586 524.783 167.858C519.869 168.098 516.077 168.206 515.221 168.183" fill="#F5896B"/>
<path d="M542.137 166.302C542.137 166.302 541.224 157.618 531.339 160.283C521.451 162.948 524.58 170.207 527.3 171.791C530.023 173.374 539.531 173.931 542.137 166.302Z" fill="#FFECBA"/>
<g opacity="0.4">
<mask id="mask0_773_2954" style="mask-type:luminance" maskUnits="userSpaceOnUse" x="484" y="81" width="67" height="62">
<path d="M550.397 81.3049H484.189V142.352H550.397V81.3049Z" fill="white"/>
</mask>
<g mask="url(#mask0_773_2954)">
<mask id="mask1_773_2954" style="mask-type:luminance" maskUnits="userSpaceOnUse" x="484" y="81" width="67" height="62">
<path d="M502.805 81.2714L484.162 104.727L531.725 142.318L550.368 118.862L502.805 81.2714Z" fill="white"/>
</mask>
<g mask="url(#mask1_773_2954)">
<path d="M547.934 119.403L538.746 133.528C537.893 134.771 534.599 138.469 528.154 134.299C523.522 131.306 522.929 127.148 522.288 122.748C522.184 121.995 522.07 121.218 521.924 120.443C521.562 118.376 520.998 116.295 519.774 114.55C519.146 113.652 518.347 112.843 517.304 112.17L517.282 112.154C516.743 111.806 516.195 111.528 515.646 111.319C512.283 110.017 508.738 111.016 505.555 111.923C501.275 113.14 497.223 114.291 492.591 111.297C486.146 107.127 488.191 102.619 488.98 101.339L498.168 87.2136C498.456 86.771 499.322 85.44 501.101 86.5908L547.315 116.482C549.094 117.633 548.228 118.964 547.94 119.403" fill="white"/>
</g>
</g>
</g>
<path d="M494.61 84.9532L491.056 82.6549C491.056 82.6549 489.281 81.5042 488.126 83.2777L481.212 93.9063C481.212 93.9063 480.058 95.6767 481.836 96.8275L485.39 99.1258L494.61 84.9532Z" fill="#B7BABB"/>
<path d="M482.365 92.136L477.036 88.6869C477.036 88.6869 473.485 86.3885 475.787 82.8446C478.092 79.3007 481.646 81.599 481.646 81.599L486.975 85.045L482.365 92.1328V92.136Z" fill="#CDCFCE"/>
<path d="M549.615 112.979L526.519 98.0413L526.494 98.0255L503.397 83.0847C503.397 83.0847 498.068 79.6356 494.609 84.9531L485.39 99.1257C485.39 99.1257 479.626 107.984 490.288 114.879C500.947 121.774 509.64 112.293 514.969 115.739L514.995 115.755C520.324 119.201 515.185 130.98 525.847 137.875C536.506 144.77 542.27 135.912 542.27 135.912L551.489 121.739C554.948 116.425 549.615 112.976 549.615 112.976M547.935 119.441L538.747 133.566C537.894 134.808 534.6 138.507 528.155 134.337C523.523 131.344 522.93 127.186 522.29 122.786C522.182 122.033 522.071 121.255 521.925 120.481C521.564 118.413 520.999 116.333 519.776 114.588C519.148 113.69 518.349 112.881 517.306 112.208L517.284 112.192C516.745 111.844 516.196 111.566 515.648 111.357C512.284 110.055 508.739 111.054 505.556 111.961C501.276 113.178 497.225 114.329 492.593 111.335C486.147 107.165 488.192 102.657 488.982 101.377L498.169 87.2515C498.458 86.8089 499.323 85.4779 501.102 86.6287L547.317 116.52C549.095 117.67 548.23 119.001 547.941 119.441" fill="#F5896B"/>
<path d="M551.491 121.742L555.045 124.041C555.045 124.041 556.82 125.192 555.67 126.962L548.755 137.591C548.755 137.591 547.601 139.361 545.825 138.213L542.271 135.915L551.491 121.742Z" fill="#B7BABB"/>
<path d="M549.905 135.82L555.235 139.269C555.235 139.269 558.789 141.568 561.094 138.024C563.398 134.48 559.844 132.182 559.844 132.182L554.515 128.732L549.905 135.82Z" fill="#CDCFCE"/>
<path d="M513.493 192.425C514.257 206.832 512.362 220.726 507.654 234.181C504.955 241.888 507.134 242.65 514.254 241.221C532.259 237.605 550.378 235.774 568.769 239.005C594.326 243.497 616.106 253.386 626.185 279.291C634.688 301.146 626.112 324.369 604.839 339.408C589.599 350.179 572.272 354.456 553.929 354.583C516.049 354.842 478.162 354.918 440.283 354.57C431.745 354.491 229.708 354.444 224.236 354.441C186.984 354.412 149.634 352.654 112.508 354.82C72.0953 357.175 42.1446 309.147 46.06 280.182C48.5519 261.758 59.0269 249.235 76.4355 242.457C90.6706 236.915 105.537 234.826 121.084 233.95C121.084 233.95 146.197 232.891 158.368 234.269C154.478 229.726 153.635 220.23 153.635 220.23C147.528 180.039 176.002 139.933 207.563 130.025C228.691 123.393 248.759 126.668 267.905 136.69C283.995 145.112 297.846 156.562 309.65 170.314C314.206 175.622 316.393 175.078 319.123 168.752C327.172 150.113 337.882 133.282 352.593 118.888C388.301 83.9384 439.205 83.2081 476.073 117.402C488.06 128.52 497.194 141.511 503.982 156.281C503.982 156.281 512.736 178.252 513.487 192.435" fill="#B9DFF6"/>
<path d="M158.383 220.274C158.383 220.274 156.925 169.742 190.268 145.402C222.381 121.957 268.016 138.033 284.486 153.309C285.345 154.106 285.424 155.421 284.727 156.36C284.121 157.172 283.376 158.162 282.657 159.113C281.201 161.036 278.507 161.494 276.509 160.141C266.221 153.179 234.438 134.995 200.638 149.24C159.48 166.587 158.383 220.274 158.383 220.274Z" fill="white"/>
<path d="M326.271 165.547C326.271 165.547 343.284 137.685 375.165 111.948C411.603 82.5346 453.192 103.296 469.266 118.859C469.995 119.564 470.087 120.686 469.535 121.537L466.989 125.447C465.506 127.73 462.396 128.242 460.233 126.582C449.587 118.413 418.742 98.6514 386.366 114.598C346.055 134.454 326.271 165.544 326.271 165.544" fill="white"/>
<path d="M545.587 350.561C545.587 350.561 577.3 356.037 603.697 335.899C630.094 315.758 626.375 295.265 626.375 295.265C626.375 295.265 620.944 321.47 596.776 335.538C572.608 349.607 545.587 350.561 545.587 350.561Z" fill="#5F83A6"/>
<path d="M255.312 344.681C249.72 358.045 244.241 371.455 238.731 384.85C236.192 391.021 233.116 390.234 228.966 386.108C225.193 382.359 221.088 378.774 216.599 375.957C210.813 372.325 204.263 370.437 197.858 374.519C190.902 378.954 187.795 385.552 188.55 393.863C189.339 402.595 193.784 409.237 200.518 414.485C208.644 420.814 218.431 423.609 227.949 426.935C235.535 429.584 240.04 427.387 243.109 419.449C251.397 398.011 260.803 377.007 269.088 355.566C272.41 346.961 276.113 344.637 285.2 348.478" fill="#B9DFF6"/>
<path d="M366.891 343.461C375.096 340.957 378.78 342.554 381.142 351.01C387.574 374.054 394.996 396.819 401.584 419.822C403.582 426.792 407.459 428.977 414.095 427.618C422.769 425.841 431.529 423.953 439.42 420.002C450.091 414.656 457.963 406.768 457.437 393.569C456.873 379.422 445.624 371.967 432.454 377.105C426.209 379.542 420.806 383.481 415.984 388.027C411.311 392.431 409.339 390.901 407.779 385.479C404.038 372.467 400.456 359.385 395.976 346.622C393.034 338.242 395.58 334.979 403.778 332.611" fill="#B9DFF6"/>
<path d="M312.342 257.869C312.342 275.124 298.316 289.11 281.012 289.11C263.708 289.11 249.679 275.124 249.679 257.869C249.679 240.614 263.705 226.628 281.012 226.628C298.319 226.628 312.342 240.614 312.342 257.869Z" fill="white"/>
<path d="M381.713 257.869C381.713 275.124 367.687 289.11 350.383 289.11C333.079 289.11 319.05 275.124 319.05 257.869C319.05 240.614 333.076 226.628 350.383 226.628C367.69 226.628 381.713 240.614 381.713 257.869Z" fill="white"/>
<mask id="mask2_773_2954" style="mask-type:luminance" maskUnits="userSpaceOnUse" x="249" y="226" width="64" height="64">
<path d="M249.679 257.869C249.679 275.124 263.705 289.11 281.009 289.11C298.313 289.11 312.342 275.121 312.342 257.869C312.342 240.617 298.316 226.625 281.009 226.625C263.701 226.625 249.679 240.611 249.679 257.869Z" fill="white"/>
</mask>
<g mask="url(#mask2_773_2954)">
<path d="M297.079 237.718C297.079 246.226 290.162 253.124 281.63 253.124C273.098 253.124 266.181 246.226 266.181 237.718C266.181 229.211 273.098 222.313 281.63 222.313C290.162 222.313 297.079 229.211 297.079 237.718Z" fill="#5F83A6"/>
</g>
<mask id="mask3_773_2954" style="mask-type:luminance" maskUnits="userSpaceOnUse" x="319" y="226" width="63" height="64">
<path d="M319.05 257.869C319.05 275.124 333.079 289.11 350.38 289.11C367.68 289.11 381.709 275.121 381.709 257.869C381.709 240.617 367.684 226.625 350.38 226.625C333.076 226.625 319.05 240.611 319.05 257.869Z" fill="white"/>
</mask>
<g mask="url(#mask3_773_2954)">
<path d="M365.832 237.718C365.832 246.226 358.914 253.124 350.383 253.124C341.851 253.124 334.934 246.226 334.934 237.718C334.934 229.211 341.851 222.313 350.383 222.313C358.914 222.313 365.832 229.211 365.832 237.718Z" fill="#5F83A6"/>
</g>
<path d="M121.087 231.696C107.48 218.772 92.7562 207.9 80.322 194.524C70.89 184.379 61.4866 174.19 52.5176 163.641C48.1139 158.459 43.4693 155.389 36.3898 155.756C24.523 156.373 14.3112 151.387 4.53052 145.33C0.938467 143.104 -1.54078 140.445 1.10967 136.111C3.42089 132.333 7.08586 131.394 10.9981 133.073C14.1558 134.429 16.9521 136.595 19.9894 138.258C22.1357 139.434 25.0683 141.634 26.7138 138.982C28.6794 135.811 24.8052 134.941 22.8078 133.964C17.8874 131.556 13.3093 128.827 10.9157 123.661C9.66973 120.971 6.84808 117.958 10.0946 115.167C13.1794 112.518 16.8412 113.687 19.6818 115.916C25.1317 120.193 30.2931 124.834 35.6099 129.279C36.7544 130.237 38.0574 131.002 40.2957 132.561C40.5874 124.392 35.0678 120.747 31.4947 116.163C27.2876 110.766 20.0591 104.519 27.9661 98.7528C35.2295 93.4574 39.4619 102.224 43.1871 107.187C47.3213 112.698 50.8088 118.764 53.9728 124.901C56.414 129.637 57.958 130.939 61.3218 125.593C65.0026 119.751 70.313 115.929 77.662 115.922C81.3301 115.919 84.5861 116.925 86.4979 120.329C88.6157 124.104 86.3172 126.984 84.1645 129.709C80.7246 134.066 75.9341 136.49 70.8393 138.353C64.8821 140.528 64.0927 144.226 67.2156 149.408C86.4757 181.382 111.443 207.36 145.467 223.935C148.99 225.651 152.819 226.638 157.267 227.005C161.715 227.374 179.137 242.65 158.875 245.24C138.613 247.826 121.084 231.702 121.084 231.702" fill="#B9DFF6"/>
<path d="M502.952 224.46C505.165 223.536 513.313 219.123 514.91 217.688C527.944 205.994 537.807 191.745 547.467 177.345C551.129 171.885 551.227 167.526 543.888 165.003C538.425 163.125 533.736 159.834 530.331 155.098C525.557 148.46 528.261 142.605 536.447 142.013C544.779 141.41 549.915 146.525 554.068 152.778C556.988 157.172 558.706 156.701 561.246 152.288C565.637 144.663 570.281 137.132 575.484 130.044C578.616 125.78 583.232 121.041 588.904 125.707C594.031 129.921 590.467 134.941 587.627 139.156C583.492 145.282 577.19 149.926 576.197 159.069C581.448 154.767 586.584 150.312 591.989 146.209C596.025 143.145 600.835 136.917 605.59 142.377C610.593 148.121 603.789 152.522 599.953 156.265C597.559 158.601 594.104 159.863 591.114 161.589C589.301 162.632 586.105 163.17 587.164 165.882C588.432 169.129 591.621 167.595 593.739 166.644C596.583 165.364 599.084 163.343 601.782 161.718C606.414 158.927 611.03 158.57 614.179 163.571C617.279 168.496 613.101 171.022 609.74 173.346C600.083 180.026 589.167 182.83 577.567 182.795C572.517 182.78 568.525 183.817 565.104 187.911C548.295 208.011 529.469 226.154 509.809 243.444C509.809 243.444 496.557 254.186 491.824 244.471C487.09 234.753 491.491 229.233 502.955 224.456" fill="#B9DFF6"/>
<path d="M409.602 419.49C408.794 421.064 408.175 426.448 415.787 425.183C423.4 423.919 439.889 418.699 444.965 414.273C450.04 409.847 456.223 401.466 452.418 395.14C448.614 388.815 441.002 388.815 432.121 395.14C423.241 401.466 412.776 413.325 409.605 419.49" fill="#5F83A6"/>
<path d="M234.67 418.683C235.323 420.327 235.415 425.746 227.961 423.751C220.508 421.759 204.602 414.975 199.979 410.078C195.357 405.181 190.018 396.244 194.419 390.316C198.819 384.388 206.396 385.122 214.62 392.273C222.844 399.424 232.111 412.237 234.67 418.68" fill="#5F83A6"/>
<path d="M287.952 299.793C283.627 299.704 280.853 304.402 283.091 308.095C287.238 314.942 296.499 323.418 316.916 323.25C337.505 323.083 345.431 314.585 348.481 307.854C350.161 304.146 347.333 299.986 343.253 300.103C328.352 300.523 301.419 300.068 287.952 299.793Z" fill="#5F83A6"/>
<mask id="mask4_773_2954" style="mask-type:luminance" maskUnits="userSpaceOnUse" x="280" y="299" width="70" height="25">
<path d="M281.182 304.307C284.01 311.256 292.462 323.452 316.912 323.253C341.572 323.054 348.068 310.898 349.773 304.152C350.325 301.974 348.604 299.9 346.356 299.998C331.147 300.649 296.806 299.992 284.4 299.72C284.375 299.72 284.349 299.72 284.324 299.72C281.952 299.72 280.285 302.103 281.182 304.307Z" fill="white"/>
</mask>
<g mask="url(#mask4_773_2954)">
<path d="M329.041 301.348C329.041 308.107 323.35 313.586 316.331 313.586C309.312 313.586 303.621 308.107 303.621 301.348C303.621 294.589 309.312 289.11 316.331 289.11C323.35 289.11 329.041 294.589 329.041 301.348Z" fill="white"/>
</g>
<path d="M575.398 359.015C575.566 358.847 575.623 358.566 575.521 358.3C575.388 357.956 575.042 357.769 574.748 357.88C574.681 357.905 574.624 357.943 574.576 357.991C574.408 358.158 574.351 358.44 574.456 358.705C574.589 359.05 574.932 359.236 575.23 359.126C575.296 359.1 575.353 359.062 575.401 359.015" fill="#FBC683"/>
<path d="M559.353 393.142C547.267 379.665 545.831 344.454 545.831 344.454C544.909 341.238 543.999 338.428 543.152 336.405C538.783 325.95 532.937 310.203 531.14 303.754C529.342 297.304 531.92 295.351 534.243 293.953C536.567 292.556 540.274 291.25 543.178 295.17C544.408 296.833 545.682 298.553 546.744 299.982C548.976 298.215 552.378 296.16 557.432 294.409C562.53 292.641 568.598 291.57 573.813 290.928C572.967 290.248 572.066 289.48 571.22 288.658C568.325 285.851 565.453 282.588 569.46 280.726C573.464 278.864 577.05 279.825 577.966 279.869C578.883 279.917 582.747 280.799 587.173 284.232C591.599 287.665 601.484 294.997 610.339 307.276C613.76 312.024 616.934 318.211 619.537 324.015C622.501 330.237 626.806 342.715 626.806 342.715C627.681 345.215 629.552 350.836 629.672 353.334C629.672 353.334 636.073 381.101 618.766 389.279C601.456 397.461 604.239 388.906 588.876 396.161C578.493 401.068 567.415 402.13 559.353 393.139" fill="#72DAC6"/>
<path d="M537.942 294.842C537.942 294.842 533.925 294.627 532.511 297.124C531.101 299.622 533.12 306.574 534.645 310.292C536.17 314.013 544.952 334.11 544.952 334.11C544.952 334.11 546.693 335.735 545.168 331.732C543.646 327.73 538.545 314.964 537.724 306.207C536.902 297.45 537.942 294.839 537.942 294.839" fill="#FFFFFA"/>
<path d="M596.772 380.351C594.192 376.254 595.428 370.848 599.537 368.275C603.646 365.702 609.067 366.934 611.648 371.032C614.229 375.129 612.992 380.535 608.883 383.108C604.774 385.682 599.353 384.449 596.772 380.351Z" fill="#FCFDFA"/>
<path d="M606.308 376.798C605.582 375.644 605.931 374.124 607.088 373.4C608.246 372.676 609.771 373.023 610.497 374.174C611.223 375.328 610.874 376.849 609.717 377.573C608.559 378.297 607.035 377.949 606.308 376.795" fill="#121617"/>
<path d="M585.119 373.769C581.645 370.393 576.084 370.466 572.698 373.931C569.312 377.395 569.385 382.941 572.859 386.317C576.334 389.693 581.895 389.621 585.281 386.156C588.667 382.691 588.594 377.146 585.119 373.769Z" fill="#FCFDFA"/>
<path d="M579.633 382.318C578.657 381.366 577.091 381.388 576.136 382.362C575.185 383.336 575.204 384.897 576.181 385.849C577.157 386.797 578.723 386.778 579.678 385.805C580.632 384.831 580.61 383.269 579.633 382.318Z" fill="#121617"/>
<path d="M610.852 359.632C610.852 359.632 599.946 361.731 590.023 363.482C580.103 365.237 569.143 367.617 569.143 367.617C569.143 367.617 566.388 356.571 572.034 343.799C577.681 331.027 589.138 329.127 597.464 336.904C604.448 343.429 610.374 353.056 610.852 359.628" fill="#FF5100"/>
<path d="M583.26 361.784C581.406 362.148 581.491 364.314 581.656 365.392C582.712 365.17 584.3 364.838 586.11 364.481C585.806 363.084 585.099 361.424 583.26 361.788" fill="#E7E9B2"/>
<path d="M596.38 356.533C593.073 357.567 593.457 361.367 593.755 362.894C597.112 362.275 600.137 361.706 602.286 361.301C601.843 358.421 600.197 355.338 596.38 356.533Z" fill="#E7E9B2"/>
<path d="M578.743 342.279C580.315 340.173 578.365 337.445 577.275 336.19C575.693 337.644 574.25 339.512 573.014 341.798C574.491 342.816 577.246 344.277 578.743 342.275" fill="#E7E9B2"/>
<path d="M592.023 339.585C594.248 340.907 596.414 338.725 597.634 337.072C597.574 337.018 597.517 336.961 597.46 336.907C595.567 335.14 593.513 333.876 591.405 333.12C590.609 335.485 590.108 338.45 592.02 339.585" fill="#E7E9B2"/>
<path d="M544.953 353.859C545.146 353.676 545.292 353.451 545.387 353.186C546.748 349.351 549.075 345.614 551.386 342.143C555.881 335.393 561.522 328.802 568.148 322.552C570.101 320.708 572.174 318.862 574.311 317.067C582.944 309.805 590.461 304.851 597.962 301.484C600.742 300.235 603.463 299.081 606.173 298.677C606.528 298.623 606.823 298.487 607.052 298.269C607.518 297.829 607.622 297.109 607.312 296.483C606.982 295.816 606.281 295.458 605.527 295.572C602.334 296.053 599.126 297.453 596.114 298.851C588.28 302.48 580.417 307.693 572.076 314.787C569.895 316.643 567.793 318.521 565.833 320.37C558.614 327.18 552.873 333.926 548.285 340.989C546.12 344.321 543.691 348.222 542.223 352.351C541.976 353.046 542.208 353.707 542.829 354.074C543.504 354.472 544.398 354.381 544.956 353.859" fill="#AAACAC"/>
<path d="M583.391 320.734C585.626 318.77 585.845 315.362 583.88 313.134L577.986 306.454C576.02 304.225 572.599 304.007 570.364 305.967L558.332 316.523C556.097 318.483 555.879 321.894 557.844 324.123L563.738 330.803C565.704 333.031 569.125 333.25 571.36 331.29L583.391 320.737V320.734Z" fill="#AAACAC"/>
<path d="M566.097 318.752L572.082 313.5C573.423 312.324 575.471 312.454 576.654 313.791C577.833 315.129 577.7 317.174 576.362 318.347L570.377 323.598C569.036 324.774 566.984 324.644 565.805 323.307C564.626 321.97 564.756 319.928 566.097 318.748" fill="white"/>
<path d="M575.484 314.025L575.649 313.88C576.654 312.998 578.195 313.096 579.082 314.098L581.983 317.386C582.871 318.391 582.773 319.928 581.764 320.81L581.603 320.952C580.595 321.834 579.054 321.736 578.169 320.734L575.268 317.446C574.384 316.444 574.482 314.907 575.487 314.022" fill="white"/>
<path d="M569.992 307.804L570.157 307.658C571.162 306.776 572.702 306.874 573.59 307.876L576.491 311.167C577.375 312.169 577.277 313.706 576.272 314.591L576.111 314.733C575.102 315.615 573.561 315.517 572.677 314.515L569.776 311.227C568.892 310.225 568.99 308.689 569.995 307.804" fill="white"/>
<path d="M566.099 322.257L566.261 322.115C567.269 321.23 568.81 321.331 569.695 322.333L572.595 325.621C573.483 326.627 573.385 328.163 572.377 329.045L572.215 329.187C571.207 330.069 569.666 329.971 568.781 328.969L565.881 325.681C564.996 324.679 565.094 323.143 566.099 322.257Z" fill="white"/>
<path d="M560.608 316.036L560.773 315.89C561.778 315.008 563.319 315.106 564.206 316.108L567.107 319.399C567.992 320.402 567.893 321.938 566.888 322.823L566.727 322.966C565.719 323.848 564.178 323.75 563.293 322.747L560.392 319.46C559.508 318.457 559.606 316.921 560.611 316.036" fill="white"/>
<path d="M555.105 375.201C552.996 372.603 553.402 368.79 556.011 366.691C558.618 364.589 562.441 364.993 564.546 367.595C566.654 370.194 566.249 374.006 563.639 376.106C561.033 378.208 557.21 377.803 555.105 375.201Z" fill="#F1C6C5"/>
<path d="M617.142 362.347C615.034 359.749 615.439 355.936 618.049 353.837C620.655 351.734 624.478 352.139 626.583 354.741C628.692 357.34 628.286 361.152 625.677 363.251C623.07 365.354 619.247 364.949 617.142 362.347Z" fill="#F1C6C5"/>
<path d="M633.347 368.354L608.555 395.248L624.546 409.781L622.91 397.515L638.173 401.16L633.747 385.438L648.001 386.434L633.347 368.354Z" fill="#FFE800"/>
<path d="M619.159 334.268L622.894 331.258C625.776 328.934 630.002 329.383 632.332 332.257L635.351 335.981C637.681 338.858 637.234 343.072 634.349 345.393L630.614 348.402C627.732 350.726 623.506 350.277 621.176 347.403L618.157 343.679C615.827 340.805 616.277 336.591 619.159 334.268Z" fill="#72DAC6"/>
<path d="M535.889 349.483L539.623 346.474C542.505 344.15 546.732 344.599 549.062 347.473L552.08 351.197C554.41 354.074 553.963 358.288 551.078 360.608L547.343 363.618C544.462 365.942 540.235 365.493 537.905 362.619L534.887 358.895C532.557 356.021 533.007 351.807 535.889 349.483Z" fill="#72DAC6"/>
<path d="M576.841 283.802C576.923 284.106 576.945 284.406 576.907 284.706C576.872 285.007 576.777 285.294 576.628 285.569C576.479 285.844 576.276 286.085 576.023 286.29C575.769 286.493 575.493 286.638 575.195 286.726C574.897 286.815 574.596 286.84 574.295 286.812C573.994 286.783 573.705 286.698 573.426 286.553C573.147 286.41 572.903 286.208 572.694 285.949C572.478 285.683 572.329 285.399 572.244 285.095C572.161 284.792 572.136 284.488 572.168 284.188C572.202 283.888 572.291 283.6 572.443 283.328C572.592 283.056 572.792 282.816 573.046 282.613C573.299 282.408 573.575 282.263 573.876 282.174C574.178 282.082 574.476 282.054 574.78 282.082C575.084 282.111 575.376 282.199 575.655 282.345C575.934 282.49 576.184 282.696 576.4 282.961C576.609 283.22 576.755 283.502 576.837 283.802M575.443 282.696C575.211 282.566 574.967 282.487 574.717 282.455C574.466 282.424 574.216 282.443 573.965 282.512C573.715 282.582 573.48 282.705 573.261 282.879C573.049 283.05 572.881 283.252 572.764 283.48C572.643 283.707 572.573 283.948 572.551 284.2C572.529 284.45 572.557 284.703 572.634 284.959C572.713 285.215 572.843 285.452 573.027 285.68C573.204 285.901 573.41 286.072 573.642 286.202C573.873 286.328 574.114 286.407 574.365 286.436C574.615 286.464 574.862 286.445 575.113 286.379C575.363 286.312 575.595 286.189 575.807 286.018C576.026 285.844 576.194 285.639 576.314 285.411C576.435 285.181 576.508 284.94 576.53 284.691C576.555 284.441 576.527 284.191 576.451 283.938C576.375 283.685 576.245 283.448 576.067 283.23C575.883 283.002 575.677 282.825 575.443 282.696ZM575.297 285.617C575.04 285.825 574.808 285.927 574.602 285.923C574.396 285.923 574.209 285.816 574.041 285.61C573.883 285.418 573.822 285.231 573.857 285.054C573.892 284.877 573.984 284.713 574.133 284.567L572.748 284.115L573.109 283.824L574.447 284.276L574.802 283.989L574.054 283.062L574.39 282.791L576.134 284.94L575.3 285.61L575.297 285.617ZM574.669 284.545C574.593 284.605 574.523 284.665 574.46 284.725C574.396 284.785 574.349 284.845 574.314 284.912C574.279 284.978 574.266 285.045 574.273 285.12C574.279 285.193 574.317 285.272 574.387 285.358C574.444 285.43 574.507 285.475 574.568 285.497C574.631 285.516 574.694 285.519 574.755 285.506C574.818 285.493 574.881 285.468 574.945 285.43C575.008 285.392 575.068 285.348 575.126 285.304L575.569 284.947L575.015 284.264L574.666 284.545H574.669Z" fill="white"/>
<path d="M555.917 311.196C555.917 325.34 544.554 336.806 530.535 336.806C516.515 336.806 505.152 325.34 505.152 311.196C505.152 297.052 516.515 285.585 530.535 285.585C544.554 285.585 555.917 297.052 555.917 311.196Z" fill="#B9DFF6"/>
<path d="M570.966 291.81C570.966 305.954 559.604 317.42 545.587 317.42C531.571 317.42 520.205 305.954 520.205 291.81C520.205 277.666 531.568 266.199 545.587 266.199C559.607 266.199 570.966 277.666 570.966 291.81Z" fill="#B9DFF6"/>
<path d="M572.019 318.549C572.019 327.983 564.439 335.63 555.089 335.63C545.74 335.63 538.159 327.983 538.159 318.549C538.159 309.116 545.74 301.468 555.089 301.468C564.439 301.468 572.019 309.116 572.019 318.549Z" fill="#B9DFF6"/>
<path d="M585.819 315.068C585.819 320.816 581.203 325.473 575.506 325.473C569.808 325.473 565.192 320.813 565.192 315.068C565.192 309.324 569.808 304.664 575.506 304.664C581.203 304.664 585.819 309.324 585.819 315.068Z" fill="#B9DFF6"/>
<path d="M590.13 286.085C590.13 295.518 582.55 303.166 573.2 303.166C563.851 303.166 556.271 295.518 556.271 286.085C556.271 276.651 563.851 269.004 573.2 269.004C582.55 269.004 590.13 276.651 590.13 286.085Z" fill="#B9DFF6"/>
<path d="M594.839 295.553C594.839 304.987 587.259 312.634 577.909 312.634C568.56 312.634 560.979 304.987 560.979 295.553C560.979 286.12 568.56 278.472 577.909 278.472C587.259 278.472 594.839 286.12 594.839 295.553Z" fill="#B9DFF6"/>
<path d="M609.295 284.886C609.295 294.32 601.715 301.968 592.365 301.968C583.016 301.968 575.436 294.32 575.436 284.886C575.436 275.453 583.016 267.805 592.365 267.805C601.715 267.805 609.295 275.453 609.295 284.886Z" fill="#B9DFF6"/>
</g>
<defs>
<clipPath id="clip0_773_2954">
<rect width="648" height="428" fill="white"/>
</clipPath>
</defs>
</svg>
