<svg width="186" height="186" viewBox="0 0 186 186" fill="none" xmlns="http://www.w3.org/2000/svg">
<g clip-path="url(#clip0_22_1771)">
<path d="M93 0L106.094 10.3305L121.739 4.55174L130.999 18.4228L147.664 17.7614L152.185 33.8152L168.239 38.336L167.577 55.001L181.448 64.2614L175.67 79.9064L186 93L175.67 106.094L181.448 121.739L167.577 130.999L168.239 147.664L152.185 152.185L147.664 168.239L130.999 167.577L121.739 181.448L106.094 175.67L93 186L79.9064 175.67L64.2614 181.448L55.001 167.577L38.336 168.239L33.8152 152.185L17.7614 147.664L18.4228 130.999L4.55174 121.739L10.3305 106.094L0 93L10.3305 79.9064L4.55174 64.2614L18.4228 55.001L17.7614 38.336L33.8152 33.8152L38.336 17.7614L55.001 18.4228L64.2614 4.55174L79.9064 10.3305L93 0Z" fill="white"/>
<path d="M66.3981 94.4572C64.726 91.5025 63.8775 88.0405 63.8775 84.17C63.8775 80.2996 64.7322 76.8004 66.4168 73.8333C68.1045 70.8601 70.4977 68.5211 73.5312 66.8845C73.8513 66.7112 74.1808 66.5534 74.5133 66.3987H64.5364C64.036 66.3987 63.8806 66.606 63.8029 66.9154L59.8308 83.511L55.7094 66.9154C55.6255 66.5627 55.5447 66.4668 55.5354 66.4544C55.5292 66.4544 55.408 66.3987 55.0443 66.3987H44.6385C44.1505 66.3833 44.0106 66.5689 43.9423 66.8937L39.852 83.5203L35.8768 66.9092C35.7991 66.606 35.6406 66.3987 35.1122 66.3987H21.676C21.561 66.3987 21.5268 66.4328 21.4957 66.4761C21.4553 66.5318 21.4553 66.5534 21.474 66.5998L32.346 101.239C32.461 101.66 32.6599 101.818 33.0547 101.818H43.361C43.7806 101.818 44.0355 101.632 44.2158 101.196L49.8321 81.9362L55.467 101.251C55.6162 101.638 55.8586 101.818 56.2689 101.818H66.6095C67.0042 101.818 67.2 101.66 67.3119 101.258L68.5085 97.4459C67.7128 96.5363 67.0042 95.5432 66.3919 94.4634L66.3981 94.4572Z" fill="#FF3D81"/>
<path d="M149.617 121.615C147.158 121.615 145.182 120.888 143.684 119.437C142.186 117.986 141.437 116.077 141.437 113.714C141.437 112.13 141.772 110.731 142.45 109.521C143.124 108.312 144.081 107.371 145.325 106.7C146.565 106.028 147.998 105.691 149.617 105.691C151.236 105.691 152.666 106.028 153.909 106.7C155.149 107.371 156.116 108.312 156.806 109.521C157.496 110.731 157.838 112.13 157.838 113.714C157.838 116.077 157.089 117.986 155.591 119.437C154.093 120.888 152.1 121.615 149.617 121.615Z" fill="#FF3D81"/>
<path d="M140.476 66.3987H135.308C134.807 66.3987 134.652 66.606 134.574 66.9154L130.602 83.511L126.481 66.9154C126.397 66.5627 126.316 66.4668 126.307 66.4544C126.3 66.4544 126.179 66.3987 125.815 66.3987H115.41C114.919 66.3833 114.782 66.5689 114.713 66.8937L110.623 83.5203L106.648 66.9092C106.57 66.606 106.412 66.3987 105.883 66.3987H92.4533C92.3383 66.3987 92.3041 66.4328 92.2731 66.4761C92.2326 66.5318 92.2326 66.5534 92.2513 66.5998L103.123 101.239C103.238 101.66 103.437 101.818 103.832 101.818H114.138C114.558 101.818 114.813 101.632 114.993 101.196L120.609 81.9362L126.244 101.251C126.394 101.638 126.636 101.818 127.046 101.818H137.387C137.782 101.818 137.977 101.66 138.089 101.258L141.331 90.9333L140.476 66.4018V66.3987Z" fill="#FF3D81"/>
<path d="M142.18 64.3846C142.049 64.3846 141.928 64.4187 141.782 64.5796C141.623 64.7528 141.552 64.9261 141.552 65.121L142.767 99.9706C142.767 100.085 142.792 100.234 142.991 100.419C143.152 100.571 143.314 100.642 143.507 100.642H155.535C155.65 100.642 155.833 100.617 156.06 100.391C156.228 100.224 156.281 100.101 156.275 100.045L157.568 65.1024C157.583 64.8889 157.527 64.7435 157.384 64.6105C157.226 64.4589 157.061 64.3908 156.871 64.3908H142.251C142.229 64.3908 142.208 64.3908 142.183 64.3908L142.18 64.3846Z" fill="#FF3D81"/>
<path d="M91.2686 66.9432C91.2251 66.8349 91.2065 66.7205 91.2002 66.606C88.9997 65.8511 86.5816 65.4612 83.9677 65.4612C80.2349 65.4612 76.8906 66.2471 74.0219 67.794C71.1625 69.3379 68.906 71.5407 67.3178 74.3438C65.7233 77.1531 64.9121 80.4604 64.9121 84.1731C64.9121 87.8858 65.714 91.1529 67.2991 93.9529C68.878 96.7467 71.1314 98.9433 73.9877 100.484C76.8565 102.031 80.2132 102.817 83.9677 102.817C87.7223 102.817 91.0759 102.028 93.9478 100.469C96.4622 99.1011 98.5073 97.2262 100.04 94.8841L91.2686 66.9432ZM90.2057 88.1054C89.612 89.2997 88.7604 90.2433 87.6726 90.9054C86.5847 91.5675 85.3415 91.9047 83.9708 91.9047C82.6002 91.9047 81.3601 91.5737 80.2722 90.924C79.1844 90.2711 78.3297 89.3399 77.736 88.1549C77.1486 86.9885 76.8533 85.6365 76.8533 84.136C76.8533 82.6354 77.1517 81.2865 77.736 80.117C78.3328 78.932 79.1844 78.0008 80.2722 77.348C81.357 76.6983 82.6002 76.3672 83.9708 76.3672C86.0626 76.3672 87.7969 77.0881 89.1303 78.5051L89.1365 78.5113C90.4326 79.9406 91.0915 81.8094 91.0915 84.0679C91.0915 85.5653 90.7931 86.9236 90.2088 88.0992L90.2057 88.1054Z" fill="#FF3D81"/>
<path d="M164.535 105.267C164.535 106.997 163.137 108.37 161.362 108.37C159.587 108.37 158.17 106.997 158.17 105.267C158.17 103.538 159.587 102.183 161.384 102.183C163.18 102.183 164.538 103.538 164.538 105.267H164.535ZM158.959 105.267C158.959 106.641 159.997 107.73 161.377 107.73C162.72 107.749 163.74 106.638 163.74 105.286C163.74 103.934 162.72 102.801 161.34 102.801C159.96 102.801 158.959 103.912 158.959 105.264V105.267ZM160.868 106.867H160.15V103.782C160.433 103.745 160.83 103.686 161.34 103.686C161.928 103.686 162.192 103.782 162.4 103.931C162.59 104.064 162.72 104.29 162.72 104.59C162.72 104.967 162.437 105.212 162.077 105.323V105.36C162.378 105.453 162.531 105.697 162.624 106.112C162.717 106.582 162.795 106.752 162.851 106.864H162.095C162.002 106.752 161.943 106.486 161.85 106.112C161.794 105.793 161.604 105.642 161.207 105.642H160.868V106.864V106.867ZM160.886 105.134H161.225C161.623 105.134 161.943 105.001 161.943 104.683C161.943 104.401 161.735 104.212 161.281 104.212C161.092 104.212 160.961 104.231 160.883 104.249V105.134H160.886Z" fill="#FF3D81"/>
<path d="M33.8252 120.028V107.643H39.9885V108.701H34.9565V112.575H39.9885V113.633H34.9565V118.97H39.9885V120.028H33.8252Z" fill="#FF3D81"/>
<path d="M43.8925 120.028H42.6523L46.4504 113.512L43.016 107.64H44.2903L47.0938 112.556L49.9253 107.64H51.1498L47.7154 113.478L51.4979 120.028H50.2392L47.0782 114.537L43.8925 120.028Z" fill="#FF3D81"/>
<path d="M54.4844 120.028V107.643H56.7533C57.6484 107.643 58.3073 107.693 58.73 107.786C59.1527 107.882 59.5195 108.039 59.8303 108.259C60.2219 108.541 60.5234 108.927 60.7409 109.419C60.9554 109.911 61.0642 110.456 61.0642 111.053C61.0642 112.232 60.7316 113.095 60.0696 113.646C59.4076 114.196 58.357 114.472 56.9242 114.472H55.6157V120.031H54.4844V120.028ZM55.6157 113.482H56.3896C57.7603 113.482 58.6834 113.308 59.1558 112.962C59.6282 112.615 59.8645 112.006 59.8645 111.139C59.8645 110.774 59.8116 110.437 59.7028 110.128C59.5941 109.818 59.4324 109.546 59.218 109.302C58.9973 109.054 58.6958 108.878 58.3166 108.776C57.9375 108.674 57.2941 108.624 56.3865 108.624H55.6126V113.482H55.6157Z" fill="#FF3D81"/>
<path d="M64.8438 120.028V107.643H71.0071V108.701H65.9751V112.575H71.0071V113.633H65.9751V118.97H71.0071V120.028H64.8438Z" fill="#FF3D81"/>
<path d="M82.9856 120.028H81.6087L77.2388 114.122H76.5581V120.028H75.4268V107.643H77.7143C79.0632 107.643 80.0733 107.922 80.7447 108.482C81.416 109.042 81.7517 109.886 81.7517 111.019C81.7517 111.984 81.4626 112.742 80.8877 113.296C80.3127 113.85 79.5201 114.125 78.5131 114.125L82.9825 120.031L82.9856 120.028ZM76.5581 108.624V113.2H77.6957C78.7493 113.2 79.4859 113.033 79.9024 112.696C80.3189 112.362 80.5271 111.789 80.5271 110.982C80.5271 110.131 80.3127 109.524 79.8806 109.162C79.4486 108.8 78.7213 108.621 77.6957 108.621H76.5581V108.624Z" fill="#FF3D81"/>
<path d="M86.2705 120.028V107.643H87.4018V120.028H86.2705Z" fill="#FF3D81"/>
<path d="M92.1543 120.028V107.643H98.3176V108.701H93.2856V112.575H98.3176V113.633H93.2856V118.97H98.3176V120.028H92.1543Z" fill="#FF3D81"/>
<path d="M102.74 120.028V107.117L111.555 117.482V107.643H112.608V120.393L103.803 110.013V120.031H102.74V120.028Z" fill="#FF3D81"/>
<path d="M127.36 109.911C126.741 109.382 126.111 108.989 125.464 108.736C124.818 108.482 124.137 108.355 123.425 108.355C121.815 108.355 120.51 108.862 119.503 109.877C118.496 110.892 117.995 112.216 117.995 113.844C117.995 114.66 118.12 115.397 118.365 116.053C118.611 116.705 118.987 117.287 119.49 117.794C119.988 118.289 120.56 118.67 121.203 118.927C121.846 119.187 122.536 119.317 123.273 119.317C124.009 119.317 124.684 119.196 125.365 118.952C126.045 118.71 126.689 118.351 127.295 117.878V119.199C126.682 119.57 126.036 119.858 125.352 120.059C124.668 120.26 123.994 120.359 123.326 120.359C122.424 120.359 121.563 120.198 120.743 119.877C119.922 119.555 119.217 119.103 118.626 118.521C118.02 117.924 117.56 117.231 117.249 116.439C116.939 115.65 116.783 114.784 116.783 113.844C116.783 112.903 116.942 112.055 117.262 111.254C117.582 110.453 118.042 109.763 118.642 109.181C119.226 108.612 119.929 108.166 120.752 107.844C121.576 107.523 122.434 107.362 123.323 107.362C124.115 107.362 124.852 107.47 125.529 107.687C126.207 107.903 126.822 108.228 127.379 108.664L127.363 109.908L127.36 109.911Z" fill="#FF3D81"/>
<path d="M131.463 120.028V107.643H137.623V108.701H132.591V112.575H137.623V113.633H132.591V118.97H137.623V120.028H131.463Z" fill="#FF3D81"/>
</g>
<defs>
<clipPath id="clip0_22_1771">
<rect width="186" height="186" fill="white"/>
</clipPath>
</defs>
</svg>
