<svg width="150" height="227" viewBox="0 0 150 227" fill="none" xmlns="http://www.w3.org/2000/svg">
<g clip-path="url(#clip0_35_2405)">
<path d="M98.081 110.127C97.7152 110.159 97.3811 110.445 97.2539 110.857C97.0789 111.397 97.3016 111.952 97.7629 112.095C97.8743 112.127 97.9697 112.143 98.081 112.127C98.4469 112.095 98.7809 111.81 98.9082 111.397C99.0832 110.857 98.8605 110.302 98.3992 110.159C98.3037 110.127 98.1924 110.111 98.0969 110.127" fill="#FBC683"/>
<path d="M149.952 84.9563C151.336 112.524 119.172 155.724 119.172 155.724C117.168 160.422 115.546 164.644 114.607 167.85C109.74 184.45 101.532 208.749 97.4599 218.128C93.3878 227.508 88.4567 227.365 84.3528 226.794C80.2488 226.222 74.5861 224.238 74.9201 216.795C75.0633 213.637 75.2064 210.383 75.3178 207.669C70.9593 207.622 64.9466 206.812 57.2637 204.067C49.5171 201.289 41.2775 196.75 34.4694 192.529C34.8194 194.147 35.1534 195.909 35.3602 197.702C36.0919 203.813 36.3623 210.431 29.8247 208.812C23.287 207.193 19.9466 202.622 18.8968 201.686C17.8469 200.75 14.1089 196.004 12.1682 187.688C10.2117 179.372 5.53516 161.216 6.83951 138.155C7.34853 129.236 9.52774 118.856 12.0251 109.477C14.4906 99.2559 21.3782 80.3062 21.3782 80.3062C22.7462 76.4972 25.9275 68.0381 28.1863 64.9592C28.1863 64.9592 47.2902 25.8535 75.7154 32.7097C104.125 39.5659 92.5924 47.0569 117.82 53.1354C134.856 57.2459 149.029 66.578 149.952 84.9722" fill="#72DAC6"/>
<path d="M80.8216 222.175C80.8216 222.175 85.3868 226.27 89.4589 224.667C93.531 223.048 97.8258 212.859 99.5915 206.987C101.357 201.115 110.265 168.833 110.265 168.833C110.265 168.833 109.756 165.247 107.72 171.452C105.684 177.658 99.4483 197.702 92.004 208.891C84.5596 220.08 80.8057 222.191 80.8057 222.191" fill="#FFFFFA"/>
<path d="M93.2452 64.3244C92.3704 71.6567 85.7055 76.894 78.3566 76.0212C71.0077 75.1483 65.7585 68.4984 66.6333 61.1661C67.5082 53.8338 74.1731 48.5964 81.5379 49.4693C88.8868 50.3422 94.136 56.9921 93.2611 64.3402" fill="#FCFDFA"/>
<path d="M78.499 59.4202C78.2604 61.4834 76.3835 62.9594 74.2997 62.7055C72.2318 62.4674 70.7525 60.5788 71.007 58.5156C71.2456 56.4524 73.1226 54.9764 75.2064 55.2303C77.2742 55.4684 78.7536 57.357 78.499 59.4202Z" fill="#121617"/>
<path d="M100.737 83.3058C101.612 90.6381 108.277 95.8755 115.626 95.0026C122.974 94.1297 128.224 87.4798 127.349 80.1475C126.474 72.8152 119.809 67.5779 112.46 68.4508C105.111 69.3236 99.862 75.9735 100.737 83.3217" fill="#FCFDFA"/>
<path d="M115.483 78.4019C115.721 80.4651 117.598 81.9411 119.682 81.6872C121.75 81.4491 123.229 79.5605 122.975 77.4973C122.736 75.4341 120.859 73.9581 118.776 74.212C116.692 74.466 115.228 76.3387 115.483 78.4019Z" fill="#121617"/>
<path d="M56.596 75.4656C56.596 75.4656 71.5642 83.4168 85.0213 90.8285C98.4783 98.2402 113.781 105.906 113.781 105.906C113.781 105.906 106.432 121.665 87.4391 131.426C68.4465 141.187 53.0329 132.489 50.631 115.285C48.6268 100.859 50.8537 83.7501 56.596 75.4815" fill="#FF5100"/>
<path d="M91.4159 99.3036C93.961 100.653 95.9493 97.9863 96.7924 96.5579C95.3289 95.812 93.1179 94.6852 90.6365 93.3838C89.6503 95.3359 88.9027 97.9863 91.4318 99.3036" fill="#E7E9B2"/>
<path d="M70.8006 92.987C75.7158 94.9233 78.913 90.0509 80.0265 87.9401C75.4453 85.4643 71.3096 83.2424 68.3669 81.6711C66.124 85.5119 65.106 90.7492 70.8006 92.987Z" fill="#E7E9B2"/>
<path d="M78.0225 126.792C74.1254 127.792 73.8232 132.902 73.9027 135.426C77.1795 135.219 80.6948 134.378 84.3534 132.839C83.574 130.22 81.7129 125.84 78.0225 126.792Z" fill="#E7E9B2"/>
<path d="M59.6657 117.285C58.2977 113.587 53.6212 114.111 50.583 114.889C50.5989 115.016 50.6148 115.127 50.6307 115.254C51.1716 119.158 52.3964 122.634 54.1779 125.554C57.3911 123.507 60.8428 120.459 59.6657 117.285Z" fill="#E7E9B2"/>
<path d="M129.274 145.376C128.86 145.408 128.479 145.535 128.113 145.757C122.816 149.011 116.453 151.217 110.377 153.137C98.5422 156.851 85.5147 159.279 71.644 160.358C67.556 160.676 63.3089 160.882 59.0459 160.977C41.819 161.342 28.1234 160.025 15.9866 156.851C11.485 155.676 7.14245 154.439 3.53163 152.328C3.05443 152.058 2.57723 151.931 2.10003 151.963C1.12972 152.042 0.302573 152.788 0.0798797 153.835C-0.174627 154.946 0.31848 156.042 1.3206 156.629C5.56768 159.12 10.7214 160.517 15.6525 161.739C28.4415 164.929 42.7893 166.262 59.5072 165.818C63.8816 165.707 68.1764 165.485 72.2962 165.167C87.4235 163.993 100.721 161.469 112.954 157.47C118.728 155.581 125.361 153.28 131.071 149.773C132.042 149.185 132.392 148.17 132.01 147.154C131.596 146.027 130.435 145.281 129.274 145.376Z" fill="#AAACAC"/>
<path d="M51.776 147.932C47.2426 148.122 43.6954 151.963 43.8863 156.486L44.4589 170.056C44.6498 174.579 48.4992 178.118 53.0326 177.928L77.4653 176.912C81.9987 176.721 85.5459 172.881 85.355 168.357L84.7823 154.788C84.5915 150.265 80.742 146.726 76.2086 146.916L51.776 147.932Z" fill="#AAACAC"/>
<path d="M70.4032 166.85L58.2505 167.358C55.5304 167.469 53.2239 165.358 53.1126 162.644C53.0013 159.93 55.1168 157.629 57.8369 157.518L69.9896 157.01C72.7096 156.899 75.0161 159.01 75.1274 161.723C75.2388 164.437 73.1232 166.739 70.4032 166.85Z" fill="white"/>
<path d="M54.719 163.469H54.385C52.3489 163.564 50.5992 161.977 50.5196 159.93L50.2333 153.248C50.1538 151.201 51.7445 149.471 53.7805 149.392H54.1146C56.1665 149.297 57.9003 150.884 57.9799 152.931L58.2662 159.613C58.3457 161.66 56.7551 163.39 54.719 163.469Z" fill="white"/>
<path d="M55.2434 176.118H54.9094C52.8733 176.213 51.1236 174.626 51.0441 172.579L50.7577 165.897C50.6782 163.866 52.2689 162.12 54.3049 162.041H54.639C56.6909 161.945 58.4248 163.533 58.5043 165.58L58.7906 172.261C58.8701 174.309 57.2795 176.039 55.2434 176.118Z" fill="white"/>
<path d="M73.7756 162.676H73.4416C71.3896 162.771 69.6558 161.184 69.5763 159.137L69.29 152.455C69.2104 150.408 70.8011 148.678 72.8372 148.598H73.1712C75.2232 148.503 76.957 150.09 77.0365 152.138L77.3228 158.819C77.4024 160.866 75.8117 162.596 73.7756 162.676Z" fill="white"/>
<path d="M74.3001 175.325H73.966C71.93 175.42 70.1802 173.833 70.1007 171.785L69.8144 165.104C69.7348 163.072 71.3255 161.327 73.3616 161.247H73.6956C75.7476 161.152 77.4814 162.739 77.5609 164.786L77.8473 171.468C77.9268 173.515 76.3361 175.245 74.3001 175.325Z" fill="white"/>
<path d="M137.752 110.318C137.752 115.428 133.6 119.555 128.494 119.555C123.388 119.555 119.236 115.412 119.236 110.318C119.236 105.223 123.388 101.081 128.494 101.081C133.6 101.081 137.752 105.223 137.752 110.318Z" fill="#F1C6C5"/>
<path d="M51.7449 66.2129C51.7449 71.3233 47.5932 75.4497 42.4872 75.4497C37.3811 75.4497 33.2295 71.3074 33.2295 66.2129C33.2295 61.1184 37.3811 56.9761 42.4872 56.9761C47.5932 56.9761 51.7449 61.1184 51.7449 66.2129Z" fill="#F1C6C5"/>
<path d="M38.2871 43.5812L93.5946 35.3601L88.584 2.79326L78.7219 18.9339L64.1196 0L54.2574 22.9016L38.2871 8.07824V43.5812Z" fill="#FFE800"/>
<path d="M22.3493 97.6372H15.0164C9.35358 97.6372 4.77246 93.0664 4.77246 87.4164V80.0999C4.77246 74.4499 9.35358 69.8792 15.0164 69.8792H22.3493C28.0121 69.8792 32.5932 74.4499 32.5932 80.0999V87.4164C32.5932 93.0664 28.0121 97.6372 22.3493 97.6372Z" fill="#72DAC6"/>
<path d="M135.811 159.248H128.478C122.815 159.248 118.234 154.677 118.234 149.027V141.71C118.234 136.06 122.815 131.49 128.478 131.49H135.811C141.474 131.49 146.055 136.06 146.055 141.71V149.027C146.055 154.677 141.474 159.248 135.811 159.248Z" fill="#72DAC6"/>
<path d="M24.0353 198.067C24.2262 197.623 24.4966 197.242 24.8307 196.925C25.1647 196.607 25.5465 196.353 25.9919 196.163C26.4373 195.972 26.8985 195.893 27.4076 195.893C27.9166 195.893 28.3779 195.988 28.8073 196.163C29.2527 196.337 29.6345 196.591 29.9526 196.925C30.2867 197.242 30.5412 197.623 30.7321 198.067C30.9229 198.512 31.0184 198.972 31.0184 199.48C31.0184 199.988 30.9229 200.48 30.7321 200.924C30.5412 201.368 30.2708 201.749 29.9526 202.067C29.6186 202.384 29.2368 202.638 28.8073 202.829C28.362 203.003 27.9007 203.098 27.4076 203.098C26.9145 203.098 26.4373 203.003 25.9919 202.829C25.5465 202.654 25.1647 202.4 24.8307 202.067C24.4966 201.734 24.2421 201.353 24.0353 200.924C23.8445 200.48 23.749 200.004 23.749 199.48C23.749 198.956 23.8445 198.496 24.0353 198.067ZM24.6239 200.718C24.783 201.099 24.9897 201.416 25.2602 201.702C25.5306 201.987 25.8487 202.194 26.2146 202.352C26.5804 202.511 26.9781 202.591 27.4076 202.591C27.837 202.591 28.2188 202.511 28.5847 202.352C28.9505 202.194 29.2686 201.972 29.5231 201.702C29.7936 201.432 30.0003 201.099 30.1594 200.718C30.3185 200.337 30.3821 199.924 30.3821 199.48C30.3821 199.035 30.3026 198.639 30.1594 198.274C30.0003 197.893 29.7936 197.575 29.5231 197.306C29.2527 197.036 28.9346 196.814 28.5847 196.655C28.2188 196.496 27.837 196.417 27.4076 196.417C26.9781 196.417 26.5804 196.496 26.2146 196.655C25.8487 196.814 25.5306 197.036 25.2602 197.306C24.9897 197.575 24.783 197.909 24.6239 198.274C24.4648 198.655 24.4012 199.051 24.4012 199.48C24.4012 199.908 24.4807 200.337 24.6239 200.718ZM27.6143 197.385C28.1234 197.385 28.4892 197.48 28.7278 197.686C28.9664 197.893 29.0937 198.194 29.0937 198.591C29.0937 198.972 28.9823 199.258 28.7755 199.432C28.5687 199.607 28.2983 199.718 27.9802 199.75L29.1891 201.607H28.4892L27.3439 199.797H26.644V201.607H25.9919V197.385H27.6303H27.6143ZM27.328 199.258C27.4712 199.258 27.6143 199.258 27.7575 199.258C27.8848 199.258 28.012 199.226 28.1075 199.178C28.2188 199.131 28.2983 199.067 28.3461 198.972C28.4097 198.877 28.4415 198.75 28.4415 198.575C28.4415 198.432 28.4097 198.321 28.362 198.242C28.3142 198.163 28.2347 198.099 28.1552 198.051C28.0756 198.004 27.9643 197.972 27.8529 197.956C27.7416 197.94 27.6303 197.94 27.5189 197.94H26.644V199.289H27.328V199.258Z" fill="white"/>
</g>
<defs>
<clipPath id="clip0_35_2405">
<rect width="150" height="227" fill="white"/>
</clipPath>
</defs>
</svg>
