<svg width="206" height="192" viewBox="0 0 206 192" fill="none" xmlns="http://www.w3.org/2000/svg">
<g clip-path="url(#clip0_35_2386)">
<path d="M191.222 98.6908C189.998 86.1389 178.781 83.3836 171.691 82.9163C171.884 79.0976 172.19 70.5739 171.352 67.0775C170.24 62.5014 164.616 47.7582 152.224 42.2799C139.831 36.8015 111.887 23.8307 93.5 23.2346C75.1127 22.6545 60.0289 34.1268 58.2401 40.4108C56.4513 46.6948 53.3733 56.298 56.4352 63.2748C56.4352 63.2748 57.2893 72.5558 58.0789 84.2537C49.4412 84.6404 41.2225 89.442 40.6423 100.431C39.9655 113.079 59.3198 113.192 59.3198 113.192C59.352 118.01 59.2231 122.264 58.8847 125.406C57.0959 141.631 55.4038 165.768 55.5489 175.404C55.6778 185.039 60.0289 186.715 63.7998 187.698C67.5708 188.697 73.2111 189.003 75.6283 182.413C76.6597 179.609 77.7233 176.725 78.5935 174.324C82.3967 175.871 87.9081 177.337 95.595 177.724C103.346 178.111 112.145 177.144 119.59 175.919C118.704 177.192 117.769 178.626 116.931 180.109C114.079 185.152 111.436 190.824 117.721 191.79C124.006 192.757 128.551 189.97 129.807 189.535C131.048 189.1 136.028 186.312 140.734 179.786C145.455 173.245 156.107 159.114 163.359 138.57C166.163 130.626 168.017 120.781 169.257 111.71C180.345 111.372 192.221 108.713 191.238 98.6908" fill="#C4DDDE"/>
<path d="M56.8701 86.7996C56.8701 86.7996 51.5038 86.7029 47.4427 90.3283C43.3817 93.9536 50.3596 98.9164 50.3596 98.9164C50.3596 98.9164 50.1984 90.5538 56.8701 86.7996Z" fill="#FFFFFA"/>
<path d="M65.9913 45.6154C65.9913 45.6154 61.5919 43.7786 62.3171 39.9276C63.0422 36.0767 84.0242 25.0394 112.967 25.41C94.3056 28.8581 75.2414 36.2378 65.9913 45.6154Z" fill="#FAFCF7"/>
<path d="M68.5219 184.91C68.5219 184.91 63.075 187.102 60.1098 183.783C57.1446 180.447 57.0963 168.443 57.6764 161.805C58.2565 155.166 62.1725 119.09 62.1725 119.09C62.1725 119.09 63.913 115.69 63.4456 122.78C62.9783 129.853 61.1573 152.556 63.5907 166.896C66.024 181.237 68.538 184.91 68.538 184.91" fill="#FFFFFA"/>
<path d="M72.1641 81.3536C72.1641 81.3536 87.7796 85.6396 110.389 82.5137C135.19 79.0655 153.191 66.9004 153.191 66.9004C153.191 66.9004 146.826 84.7534 114.95 89.5389C86.4421 93.8249 73.0182 83.0132 72.1641 81.3536Z" fill="#575858"/>
<path d="M66.3786 74.0543C66.3948 75.3111 65.3956 76.3423 64.1386 76.3585C62.8817 76.3746 61.8503 75.3756 61.8342 74.1188C61.8181 72.862 62.8172 71.8308 64.0742 71.8146C65.3312 71.7985 66.3625 72.7975 66.3786 74.0543Z" fill="#575858"/>
<path d="M159.862 59.9557C159.878 61.2125 158.879 62.2437 157.622 62.2598C156.365 62.2759 155.334 61.2769 155.318 60.0201C155.301 58.7633 156.301 57.7321 157.558 57.716C158.815 57.6999 159.846 58.6989 159.862 59.9557Z" fill="#575858"/>
<path d="M53.8411 49.6596C53.8411 49.6596 39.1602 41.4582 35.1637 25.2326C31.1671 9.00705 38.7735 0 38.7735 0C38.7735 0 37.9033 23.8308 57.7732 36.7533C54.9531 43.2951 53.9701 46.566 53.8411 49.6596Z" fill="#A1C2C3"/>
<path d="M166.76 49.6758C166.76 49.6758 183.052 37.2851 182.536 11.9397C190.949 25.5389 192.222 43.5046 172.738 60.9065C172.738 60.9065 169.048 53.5913 166.76 49.6758Z" fill="#A1C2C3"/>
<path d="M94.5961 21.4299C94.5961 21.4299 85.8455 18.0946 76.3537 17.8368C66.878 17.579 65.5082 20.9304 69.7948 24.8459C74.0815 28.7613 81.2044 33.2728 81.2044 33.2728L107.085 35.2547C107.085 35.2547 106.215 36.8338 109.938 37.3333C113.66 37.8328 128.809 40.3141 129.324 40.4269C129.84 40.5397 134.336 41.1198 139.074 41.5709C143.828 42.0221 156.253 42.6183 156.253 42.6183C156.253 42.6183 159.298 41.0392 159.572 37.8328C159.846 34.6263 160.781 27.3111 159.121 23.4924C157.477 19.6737 154.673 11.3917 138.993 7.12179C123.313 2.8519 116.013 1.41786 111.71 1.724C107.408 2.04626 103.733 4.52763 100.849 8.6525C97.9641 12.7935 94.8378 18.8519 94.6122 21.4138" fill="#661712"/>
<path d="M97.6904 23.1379C97.6904 23.1379 105.812 25.6354 112.065 29.6474C118.318 33.6595 125.811 37.7844 125.811 37.7844C125.811 37.7844 134.836 32.0321 136.802 26.1026C138.768 20.1892 140.863 14.2597 126.714 9.97372C112.565 5.68772 106.812 6.39668 104.926 8.73304C103.041 11.0694 98.7863 18.578 97.6904 23.1218" fill="#FEF5F7"/>
<path d="M90.986 83.9961C88.2465 84.0283 85.942 85.8168 85.1201 88.2821C88.5043 89.265 92.5653 90.0545 97.3354 90.3768C97.3354 90.3123 97.3354 90.264 97.3354 90.1995C97.2871 86.7353 94.4347 83.9639 90.9699 84.0122" fill="#F3E0AA"/>
<path d="M35.6793 84.0281C35.6793 84.0281 30.6998 88.4752 35.8083 93.2124C40.9168 97.9495 46.7666 105.603 51.585 106.264C56.4034 106.924 58.5467 103.251 57.467 99.4802C56.3873 95.7099 51.5367 92.5679 50.0541 90.2476C48.5715 87.9435 44.7038 82.304 42.3671 82.1912C40.0304 82.0784 36.7107 82.8196 35.6793 84.0281Z" fill="#606060"/>
<path d="M28.1372 81.2568C28.1372 81.2568 31.892 85.2205 32.8911 85.9617C33.8903 86.7029 35.2278 87.7986 37.0488 86.5256C38.8699 85.2527 38.8376 82.5619 37.1133 80.8056C35.389 79.0654 25.9938 68.9144 24.1406 67.722C22.2874 66.5297 20.2246 64.7895 18.2747 66.578C16.3248 68.3665 15.8091 70.5256 18.3553 72.4431C20.9015 74.3605 28.1372 81.2729 28.1372 81.2729" fill="#474747"/>
<path d="M40.1912 69.6878L25.2202 86.3646L0 98.0786L13.6979 76.0202L23.9149 65.2407C23.9149 65.2407 30.1837 59.4723 35.0827 63.6294C39.9817 67.7865 41.1098 68.6566 40.1912 69.6878Z" fill="#606060"/>
<path d="M122.056 181.382C122.249 180.931 122.523 180.544 122.861 180.222C123.2 179.899 123.587 179.642 124.038 179.448C124.489 179.255 124.956 179.174 125.472 179.174C125.988 179.174 126.455 179.271 126.89 179.448C127.341 179.642 127.728 179.899 128.051 180.222C128.389 180.544 128.647 180.931 128.84 181.382C129.034 181.817 129.13 182.3 129.13 182.816C129.13 183.331 129.034 183.831 128.84 184.282C128.647 184.733 128.373 185.12 128.051 185.442C127.712 185.781 127.325 186.022 126.89 186.216C126.439 186.393 125.972 186.49 125.472 186.49C124.973 186.49 124.489 186.393 124.038 186.216C123.587 186.038 123.2 185.781 122.861 185.442C122.523 185.12 122.265 184.717 122.056 184.282C121.862 183.831 121.766 183.348 121.766 182.816C121.766 182.284 121.862 181.817 122.056 181.382ZM122.668 184.073C122.829 184.459 123.039 184.782 123.313 185.072C123.587 185.362 123.909 185.571 124.28 185.732C124.65 185.893 125.053 185.974 125.488 185.974C125.923 185.974 126.31 185.893 126.681 185.732C127.051 185.571 127.374 185.346 127.632 185.072C127.905 184.798 128.115 184.459 128.276 184.073C128.437 183.686 128.502 183.267 128.502 182.816C128.502 182.365 128.421 181.962 128.276 181.591C128.115 181.221 127.905 180.882 127.632 180.608C127.358 180.334 127.035 180.109 126.681 179.948C126.31 179.787 125.923 179.706 125.488 179.706C125.053 179.706 124.65 179.787 124.28 179.948C123.909 180.109 123.587 180.334 123.313 180.608C123.039 180.882 122.829 181.221 122.668 181.591C122.507 181.978 122.442 182.381 122.442 182.816C122.442 183.251 122.523 183.686 122.668 184.073ZM125.698 180.689C126.213 180.689 126.584 180.786 126.826 180.995C127.068 181.205 127.196 181.511 127.196 181.913C127.196 182.3 127.084 182.59 126.874 182.767C126.665 182.945 126.391 183.057 126.068 183.09L127.293 184.991H126.584L125.424 183.154H124.715V184.991H124.054V180.705H125.714L125.698 180.689ZM125.392 182.59C125.537 182.59 125.682 182.59 125.827 182.59C125.956 182.59 126.084 182.558 126.181 182.51C126.294 182.461 126.375 182.397 126.423 182.3C126.487 182.204 126.52 182.075 126.52 181.897C126.52 181.752 126.487 181.64 126.439 181.559C126.391 181.478 126.31 181.414 126.23 181.366C126.149 181.317 126.036 181.285 125.923 181.269C125.811 181.253 125.698 181.237 125.585 181.237H124.699V182.606H125.392V182.59Z" fill="white"/>
<path d="M199.779 37.0756C199.86 40.0726 197.507 42.57 194.509 42.6506C191.512 42.7312 189.014 40.3787 188.934 37.3817C188.853 34.3847 191.206 31.8873 194.203 31.8067C197.201 31.7261 199.699 34.0786 199.779 37.0756Z" fill="#D8E085"/>
<path d="M206 50.4653C206.065 52.4633 204.47 54.139 202.471 54.2035C200.457 54.2679 198.797 52.6728 198.733 50.6748C198.684 48.6768 200.263 47.0011 202.262 46.9366C204.26 46.8883 205.936 48.4673 206 50.4653Z" fill="#D8E085"/>
</g>
<defs>
<clipPath id="clip0_35_2386">
<rect width="206" height="192" fill="white"/>
</clipPath>
</defs>
</svg>
