<svg width="186" height="186" viewBox="0 0 186 186" fill="none" xmlns="http://www.w3.org/2000/svg">
<g clip-path="url(#clip0_25_1454)">
<path d="M93 0L106.094 10.3305L121.739 4.55174L130.999 18.4228L147.664 17.7614L152.185 33.8152L168.239 38.336L167.577 55.001L181.448 64.2614L175.67 79.9064L186 93L175.67 106.094L181.448 121.739L167.577 130.999L168.239 147.664L152.185 152.185L147.664 168.239L130.999 167.577L121.739 181.448L106.094 175.67L93 186L79.9064 175.67L64.2614 181.448L55.001 167.577L38.336 168.239L33.8152 152.185L17.7614 147.664L18.4228 130.999L4.55174 121.739L10.3305 106.094L0 93L10.3305 79.9064L4.55174 64.2614L18.4228 55.001L17.7614 38.336L33.8152 33.8152L38.336 17.7614L55.001 18.4228L64.2614 4.55174L79.9064 10.3305L93 0Z" fill="#553CC8"/>
<path d="M66.3981 94.4573C64.726 91.5027 63.8775 88.0406 63.8775 84.1701C63.8775 80.2997 64.7322 76.8005 66.4168 73.8335C68.1045 70.8602 70.4977 68.5213 73.5312 66.8846C73.8513 66.7113 74.1808 66.5535 74.5133 66.3988H64.5364C64.036 66.3988 63.8806 66.6061 63.8029 66.9155L59.8308 83.5112L55.7094 66.9155C55.6255 66.5628 55.5447 66.4669 55.5354 66.4545C55.5292 66.4545 55.408 66.3988 55.0443 66.3988H44.6385C44.1505 66.3834 44.0106 66.569 43.9423 66.8939L39.852 83.5204L35.8768 66.9093C35.7991 66.6061 35.6406 66.3988 35.1122 66.3988H21.676C21.561 66.3988 21.5268 66.4329 21.4957 66.4762C21.4553 66.5319 21.4553 66.5535 21.474 66.5999L32.346 101.239C32.461 101.66 32.6599 101.818 33.0547 101.818H43.361C43.7806 101.818 44.0355 101.632 44.2158 101.196L49.8321 81.9364L55.467 101.252C55.6162 101.638 55.8586 101.818 56.2689 101.818H66.6095C67.0042 101.818 67.2 101.66 67.3119 101.258L68.5085 97.446C67.7128 96.5364 67.0042 95.5433 66.3919 94.4635L66.3981 94.4573Z" fill="white"/>
<path d="M149.617 121.616C147.158 121.616 145.182 120.889 143.684 119.438C142.186 117.987 141.437 116.078 141.437 113.714C141.437 112.13 141.772 110.731 142.45 109.522C143.124 108.312 144.081 107.371 145.325 106.7C146.565 106.029 147.998 105.691 149.617 105.691C151.236 105.691 152.666 106.029 153.909 106.7C155.149 107.371 156.116 108.312 156.806 109.522C157.496 110.731 157.838 112.13 157.838 113.714C157.838 116.078 157.089 117.987 155.591 119.438C154.093 120.889 152.1 121.616 149.617 121.616Z" fill="white"/>
<path d="M140.476 66.3988H135.308C134.807 66.3988 134.652 66.6061 134.574 66.9155L130.602 83.5112L126.481 66.9155C126.397 66.5628 126.316 66.4669 126.307 66.4545C126.3 66.4545 126.179 66.3988 125.815 66.3988H115.41C114.919 66.3834 114.782 66.569 114.713 66.8939L110.623 83.5204L106.648 66.9093C106.57 66.6061 106.412 66.3988 105.883 66.3988H92.4533C92.3383 66.3988 92.3041 66.4329 92.2731 66.4762C92.2326 66.5319 92.2326 66.5535 92.2513 66.5999L103.123 101.239C103.238 101.66 103.437 101.818 103.832 101.818H114.138C114.558 101.818 114.813 101.632 114.993 101.196L120.609 81.9364L126.244 101.252C126.394 101.638 126.636 101.818 127.046 101.818H137.387C137.782 101.818 137.977 101.66 138.089 101.258L141.331 90.9334L140.476 66.4019V66.3988Z" fill="white"/>
<path d="M142.18 64.3848C142.049 64.3848 141.928 64.4188 141.782 64.5797C141.623 64.7529 141.552 64.9262 141.552 65.1211L142.767 99.9707C142.767 100.085 142.792 100.234 142.991 100.419C143.152 100.571 143.314 100.642 143.507 100.642H155.535C155.65 100.642 155.833 100.617 156.06 100.391C156.228 100.224 156.281 100.101 156.275 100.045L157.568 65.1025C157.583 64.8891 157.527 64.7437 157.384 64.6106C157.226 64.459 157.061 64.391 156.871 64.391H142.251C142.229 64.391 142.208 64.391 142.183 64.391L142.18 64.3848Z" fill="white"/>
<path d="M91.2686 66.9434C91.2251 66.8351 91.2065 66.7206 91.2002 66.6062C88.9997 65.8513 86.5816 65.4614 83.9677 65.4614C80.2349 65.4614 76.8906 66.2473 74.0219 67.7942C71.1625 69.3381 68.906 71.5409 67.3178 74.344C65.7233 77.1532 64.9121 80.4606 64.9121 84.1733C64.9121 87.8859 65.714 91.1531 67.2991 93.9531C68.878 96.7468 71.1314 98.9435 73.9877 100.484C76.8565 102.031 80.2132 102.817 83.9677 102.817C87.7223 102.817 91.0759 102.028 93.9478 100.469C96.4622 99.1013 98.5073 97.2264 100.04 94.8843L91.2686 66.9434ZM90.2057 88.1056C89.612 89.2998 88.7604 90.2435 87.6726 90.9056C86.5847 91.5677 85.3415 91.9049 83.9708 91.9049C82.6002 91.9049 81.3601 91.5739 80.2722 90.9241C79.1844 90.2713 78.3297 89.3401 77.736 88.1551C77.1486 86.9887 76.8533 85.6367 76.8533 84.1361C76.8533 82.6356 77.1517 81.2867 77.736 80.1172C78.3328 78.9322 79.1844 78.001 80.2722 77.3482C81.357 76.6984 82.6002 76.3674 83.9708 76.3674C86.0626 76.3674 87.7969 77.0883 89.1303 78.5053L89.1365 78.5115C90.4326 79.9408 91.0915 81.8095 91.0915 84.0681C91.0915 85.5655 90.7931 86.9237 90.2088 88.0994L90.2057 88.1056Z" fill="white"/>
<path d="M164.535 105.267C164.535 106.997 163.137 108.37 161.362 108.37C159.587 108.37 158.17 106.997 158.17 105.267C158.17 103.538 159.587 102.183 161.384 102.183C163.18 102.183 164.538 103.538 164.538 105.267H164.535ZM158.959 105.267C158.959 106.641 159.997 107.73 161.377 107.73C162.72 107.749 163.74 106.638 163.74 105.286C163.74 103.934 162.72 102.801 161.34 102.801C159.96 102.801 158.959 103.912 158.959 105.264V105.267ZM160.868 106.867H160.15V103.782C160.433 103.745 160.83 103.686 161.34 103.686C161.928 103.686 162.192 103.782 162.4 103.931C162.59 104.064 162.72 104.29 162.72 104.59C162.72 104.967 162.437 105.212 162.077 105.323V105.36C162.378 105.453 162.531 105.697 162.624 106.112C162.717 106.582 162.795 106.752 162.851 106.864H162.095C162.002 106.752 161.943 106.486 161.85 106.112C161.794 105.793 161.604 105.642 161.207 105.642H160.868V106.864V106.867ZM160.886 105.134H161.225C161.623 105.134 161.943 105.001 161.943 104.682C161.943 104.401 161.735 104.212 161.281 104.212C161.092 104.212 160.961 104.231 160.883 104.249V105.134H160.886Z" fill="white"/>
<path d="M33.8252 120.028V107.644H39.9885V108.702H34.9565V112.575H39.9885V113.633H34.9565V118.97H39.9885V120.028H33.8252Z" fill="white"/>
<path d="M43.8925 120.029H42.6523L46.4504 113.513L43.016 107.641H44.2903L47.0938 112.557L49.9253 107.641H51.1498L47.7154 113.479L51.4979 120.029H50.2392L47.0782 114.537L43.8925 120.029Z" fill="white"/>
<path d="M54.4844 120.028V107.644H56.7533C57.6484 107.644 58.3073 107.693 58.73 107.786C59.1527 107.882 59.5195 108.04 59.8303 108.259C60.2219 108.541 60.5234 108.928 60.7409 109.419C60.9554 109.911 61.0642 110.456 61.0642 111.053C61.0642 112.232 60.7316 113.095 60.0696 113.646C59.4076 114.196 58.357 114.472 56.9242 114.472H55.6157V120.031H54.4844V120.028ZM55.6157 113.482H56.3896C57.7603 113.482 58.6834 113.308 59.1558 112.962C59.6282 112.615 59.8645 112.006 59.8645 111.14C59.8645 110.775 59.8116 110.437 59.7028 110.128C59.5941 109.819 59.4324 109.546 59.218 109.302C58.9973 109.054 58.6958 108.878 58.3166 108.776C57.9375 108.674 57.2941 108.624 56.3865 108.624H55.6126V113.482H55.6157Z" fill="white"/>
<path d="M64.8438 120.028V107.644H71.0071V108.702H65.9751V112.575H71.0071V113.633H65.9751V118.97H71.0071V120.028H64.8438Z" fill="white"/>
<path d="M82.9856 120.028H81.6087L77.2388 114.122H76.5581V120.028H75.4268V107.644H77.7143C79.0632 107.644 80.0733 107.922 80.7447 108.482C81.416 109.042 81.7517 109.887 81.7517 111.019C81.7517 111.984 81.4626 112.742 80.8877 113.296C80.3127 113.85 79.5201 114.125 78.5131 114.125L82.9825 120.031L82.9856 120.028ZM76.5581 108.624V113.2H77.6957C78.7493 113.2 79.4859 113.033 79.9024 112.696C80.3189 112.362 80.5271 111.789 80.5271 110.982C80.5271 110.131 80.3127 109.525 79.8806 109.163C79.4486 108.801 78.7213 108.621 77.6957 108.621H76.5581V108.624Z" fill="white"/>
<path d="M86.2705 120.028V107.644H87.4018V120.028H86.2705Z" fill="white"/>
<path d="M92.1543 120.028V107.644H98.3176V108.702H93.2856V112.575H98.3176V113.633H93.2856V118.97H98.3176V120.028H92.1543Z" fill="white"/>
<path d="M102.74 120.028V107.118L111.555 117.482V107.644H112.608V120.394L103.803 110.014V120.032H102.74V120.028Z" fill="white"/>
<path d="M127.36 109.912C126.741 109.383 126.111 108.99 125.464 108.736C124.818 108.482 124.137 108.355 123.425 108.355C121.815 108.355 120.51 108.863 119.503 109.878C118.496 110.892 117.995 112.217 117.995 113.844C117.995 114.661 118.12 115.397 118.365 116.053C118.611 116.706 118.987 117.288 119.49 117.795C119.988 118.29 120.56 118.67 121.203 118.927C121.846 119.187 122.536 119.317 123.273 119.317C124.009 119.317 124.684 119.196 125.365 118.952C126.045 118.711 126.689 118.352 127.295 117.878V119.2C126.682 119.571 126.036 119.859 125.352 120.06C124.668 120.261 123.994 120.36 123.326 120.36C122.424 120.36 121.563 120.199 120.743 119.877C119.922 119.555 119.217 119.104 118.626 118.522C118.02 117.925 117.56 117.232 117.249 116.44C116.939 115.651 116.783 114.785 116.783 113.844C116.783 112.903 116.942 112.056 117.262 111.254C117.582 110.453 118.042 109.763 118.642 109.182C119.226 108.612 119.929 108.167 120.752 107.845C121.576 107.523 122.434 107.362 123.323 107.362C124.115 107.362 124.852 107.471 125.529 107.687C126.207 107.904 126.822 108.229 127.379 108.665L127.363 109.909L127.36 109.912Z" fill="white"/>
<path d="M131.463 120.028V107.644H137.623V108.702H132.591V112.575H137.623V113.633H132.591V118.97H137.623V120.028H131.463Z" fill="white"/>
</g>
<defs>
<clipPath id="clip0_25_1454">
<rect width="186" height="186" fill="white"/>
</clipPath>
</defs>
</svg>
