<svg width="111" height="180" viewBox="0 0 111 180" fill="none" xmlns="http://www.w3.org/2000/svg">
<g clip-path="url(#clip0_35_2330)">
<path d="M95.0361 46.3942C95.0361 46.3942 106.832 41.7469 107.671 25.7236C111.026 30.0175 115.994 43.3964 98.6667 52.8611C97.5526 49.6538 95.0361 46.3942 95.0361 46.3942Z" fill="#535655"/>
<path d="M21.8486 38.9716L16.7502 44.6007C16.7502 44.6007 -0.0525322 30.0698 14.9939 15.7876C12.1104 30.1876 20.0792 37.8981 21.8486 38.9585" fill="#535655"/>
<path d="M105.98 102.895C105.482 96.2446 100.318 91.6104 92.5853 90.5369C92.6377 89.4897 92.6639 88.4424 92.6246 87.382C92.4804 81.9493 91.196 76.8177 89.0203 72.2097C94.0139 69.3035 97.2906 63.8446 97.1202 57.6657C96.8712 48.6722 89.3611 41.5769 80.3568 41.8257C73.6724 42.0089 68.0497 46.1849 65.6905 51.9842C61.824 50.7929 57.6955 50.2039 53.4227 50.3217C52.23 50.3609 51.0635 50.4395 49.9101 50.5835C49.0058 42.2184 41.8102 35.8039 33.2385 36.0395C24.2342 36.2882 17.1305 43.7893 17.3795 52.7828C17.5237 58.006 20.1188 62.5879 24.0245 65.4548C20.5513 70.0497 18.0872 75.4562 16.9863 81.334C15.8853 81.19 14.8368 81.1115 14.0504 81.1246C11.2325 81.2162 0.0525254 83.0228 9.88855e-05 94.438C-0.0261144 100.774 5.16411 103.968 9.79075 105.552C7.82475 111.653 5.03304 121.693 2.64764 135.491C-1.54648 159.722 0.262231 164.527 2.00541 166.726C3.7617 168.925 12.9232 175.209 18.6377 172.434C23.9066 169.881 24.1687 163.99 23.9852 161.319C27.9696 163.44 33.6972 165.417 41.8102 166.294C51.3781 167.328 59.5304 166.818 65.625 165.941C65.2449 167.184 64.6289 170.313 64.8124 171.858C65.3104 176.138 66.8046 179.909 71.6671 179.961C76.5297 180.013 80.1209 180.249 84.1315 177.33C88.1422 174.41 90.7373 167.053 91.1567 161.804C91.563 156.764 94.6561 130.752 93.529 115.174C100.738 113.655 106.583 110.684 105.993 102.882" fill="#78B843"/>
<path d="M10.4852 116.548C10.4852 116.548 4.2333 138.881 3.0406 151.946C1.8479 165.011 4.71825 165.849 7.392 165.98C10.0657 166.111 11.5206 165.718 11.5206 165.718C11.5206 165.718 7.27404 161.699 7.89005 148.058C8.50606 134.417 10.4852 116.548 10.4852 116.548Z" fill="#FFFDFA"/>
<path d="M4.5084 91.0998L2.28027 88.9005C2.28027 88.9005 6.19915 82.0802 14.0762 83.1013C8.58456 85.1827 5.62246 88.9922 4.5084 91.1129" fill="#FFFDFA"/>
<path d="M24.352 70.0365C24.352 70.0365 40.9974 72.3536 56.0569 74.6838C71.1164 77.014 87.9846 78.9514 87.9846 78.9514C87.9846 78.9514 86.5167 96.1398 72.1649 111.692C57.8132 127.244 40.4862 124.377 32.3732 109.152C25.5709 96.3885 21.8093 79.6845 24.352 70.0234" fill="#066635"/>
<path d="M76.5031 86.7014C81.8113 87.4214 83.5676 81.5305 84.1181 78.4934C81.0904 78.1268 76.5293 77.5639 71.3522 76.8701C70.8804 80.9021 71.2605 85.9945 76.5162 86.7014" fill="#E9E9B4"/>
<path d="M35.5188 80.4697C40.7615 80.6006 42.0721 74.9715 42.3998 72.6283C37.2882 71.8821 32.6747 71.2144 29.398 70.7432C28.6247 75.0893 29.4635 80.3126 35.5188 80.4566" fill="#E9E9B4"/>
<path d="M61.8108 110.605C58.5342 112.857 59.9759 117.727 60.9327 120.057C63.9079 118.748 66.8962 116.771 69.7796 114.1C68.1675 111.914 64.9302 108.471 61.8108 110.618" fill="#E9E9B4"/>
<path d="M41.4695 107.974C38.9268 104.989 34.7589 107.057 32.2031 108.838C32.2556 108.942 32.3211 109.06 32.3735 109.165C34.2084 112.621 36.5283 115.449 39.189 117.556C41.4957 114.545 43.6583 110.54 41.4826 107.987" fill="#E9E9B4"/>
<path d="M42.6755 49.7719C42.8328 55.4271 38.3634 60.153 32.7013 60.3101C27.0262 60.4671 22.3078 56.0031 22.1505 50.3479C21.9932 44.6926 26.4626 39.9668 32.1247 39.8097C37.7867 39.6526 42.5182 44.1166 42.6755 49.7719Z" fill="#FEFEFA"/>
<path d="M30.9577 47.6901C30.997 49.2872 29.7519 50.6094 28.1529 50.6618C26.5539 50.7011 25.2301 49.4443 25.1777 47.8603C25.1383 46.2632 26.3966 44.9411 27.9825 44.9018C29.5815 44.8625 30.9053 46.1061 30.9577 47.7032" fill="#2D2967"/>
<path d="M93.5026 55.8588C93.6599 61.5141 89.1906 66.2399 83.5285 66.397C77.8533 66.5541 73.1349 62.0901 72.9777 56.4348C72.8204 50.7795 77.2897 46.0537 82.9518 45.8966C88.6139 45.7395 93.3453 50.2035 93.5026 55.8588Z" fill="#FEFEFA"/>
<path d="M90.1608 52.2326C90.2001 53.8297 88.955 55.1519 87.356 55.2043C85.757 55.2435 84.4332 53.9868 84.3808 52.4028C84.3415 50.8057 85.5997 49.4835 87.1856 49.4443C88.7846 49.405 90.1084 50.6486 90.1608 52.2457" fill="#2D2967"/>
<path d="M106.793 79.8151C106.833 81.3991 105.587 82.7213 103.988 82.7737C102.402 82.813 101.079 81.5693 101.026 79.9853C100.987 78.4013 102.232 77.0791 103.831 77.0268C105.417 76.9875 106.741 78.2311 106.793 79.8282" fill="#D8E085"/>
<path d="M41.2727 30.698C41.2727 30.698 36.882 30.5802 36.6068 26.4434C36.3315 22.3067 41.0761 20.8143 40.9057 17.5547C40.7353 14.2951 39.6999 14.1642 37.6684 12.9467C35.6369 11.7293 32.0326 12.3053 31.7049 9.76562C31.3772 7.22598 34.9291 7.84126 35.6369 6.70235C36.3446 5.57653 40.8926 0.0259833 41.8494 -0.000198552C42.8062 -0.0263804 42.8586 1.7278 41.9281 2.86671C40.9975 4.00562 39.1757 7.08198 37.8388 7.9198C36.5019 8.75762 35.3354 9.5038 35.4927 9.81798C35.6631 10.1322 43.2911 12.0696 43.396 15.8136C43.5795 22.2674 37.6946 22.5031 37.8912 25.6056C38.0878 28.7082 40.2635 29.402 41.3907 29.4674C42.5047 29.5329 42.3868 30.8682 41.2596 30.6849" fill="#D0D78A"/>
<path d="M53.6318 23.655C53.6318 23.655 47.4586 21.2986 49.5163 18.1175C51.5741 14.9364 55.7158 17.6724 59.4643 16.4681C63.2128 15.2637 62.9244 10.8913 61.8497 9.6608C60.7749 8.43025 57.7866 5.87752 58.7303 4.26734C59.674 2.65716 60.2638 2.3037 61.0764 2.00261C61.889 1.70152 61.9152 0.497158 60.3293 0.82443C58.7434 1.13861 55.375 1.62298 55.2177 4.25425C55.0605 6.88552 59.2415 9.0717 59.058 10.6164C58.8876 12.1612 57.3279 13.3001 56.9478 13.7452C56.5808 14.1902 55.4274 14.3866 53.6187 14.439C51.81 14.4913 47.4062 14.2295 47.1965 18.4579C46.9868 22.6863 50.1455 24.0215 51.5348 24.4273C52.9241 24.8332 54.2216 24.2441 53.6056 23.655" fill="#D0D78A"/>
<path d="M77.4736 36.5234C77.4736 36.5234 74.5771 34.7431 76.4775 32.1118C78.378 29.4805 80.0163 31.0252 83.9745 29.4412C87.9327 27.8572 90.1739 25.4354 87.9982 22.3067C85.8225 19.1911 83.2405 17.0703 86.4255 17.1489C89.6104 17.2274 93.8176 16.3372 95.5739 14.7532C97.3433 13.1692 99.4403 9.60851 96.9501 6.99033C94.4598 4.37215 93.3195 4.79105 92.5725 5.35396C91.8254 5.91687 92.2448 7.1736 93.254 8.12924C94.2632 9.08487 94.5253 10.7343 94.0535 11.6245C93.5948 12.5147 91.4453 14.5438 89.2565 14.6616C87.0677 14.7794 85.4818 15.0412 84.2235 15.0151C82.9653 15.002 79.7673 14.5307 82.1134 17.9736C84.4595 21.4165 85.5604 23.6943 84.9444 24.8594C84.3153 26.0245 83.6468 27.4121 80.3178 28.1714C76.9887 28.9176 72.8077 30.5671 73.3319 33.7351C73.8562 36.9031 75.6256 37.5052 76.2416 37.5969C76.8445 37.6885 77.9848 37.2696 77.4736 36.5234Z" fill="#D0D78A"/>
<path d="M73.148 170.391C73.3053 170.025 73.5281 169.71 73.8034 169.449C74.0786 169.187 74.3932 168.977 74.7601 168.82C75.1271 168.663 75.5072 168.598 75.9266 168.598C76.346 168.598 76.7261 168.676 77.08 168.82C77.447 168.977 77.7616 169.187 78.0237 169.449C78.2989 169.71 78.5086 170.025 78.6659 170.391C78.8232 170.745 78.9018 171.137 78.9018 171.556C78.9018 171.975 78.8232 172.381 78.6659 172.747C78.5086 173.114 78.2858 173.428 78.0237 173.69C77.7485 173.965 77.4339 174.161 77.08 174.318C76.713 174.462 76.3329 174.541 75.9266 174.541C75.5203 174.541 75.1271 174.462 74.7601 174.318C74.3932 174.174 74.0786 173.965 73.8034 173.69C73.5281 173.428 73.3184 173.101 73.148 172.747C72.9907 172.381 72.9121 171.988 72.9121 171.556C72.9121 171.124 72.9907 170.745 73.148 170.391ZM73.6461 172.577C73.7771 172.891 73.9475 173.153 74.1703 173.389C74.3932 173.625 74.6553 173.795 74.9567 173.926C75.2582 174.057 75.5859 174.122 75.9397 174.122C76.2936 174.122 76.6082 174.057 76.9096 173.926C77.2111 173.795 77.4732 173.611 77.6829 173.389C77.9057 173.166 78.0761 172.891 78.2072 172.577C78.3382 172.263 78.3907 171.923 78.3907 171.556C78.3907 171.19 78.3251 170.862 78.2072 170.561C78.0761 170.26 77.9057 169.985 77.6829 169.763C77.4601 169.54 77.198 169.357 76.9096 169.226C76.6082 169.095 76.2936 169.03 75.9397 169.03C75.5859 169.03 75.2582 169.095 74.9567 169.226C74.6553 169.357 74.3932 169.54 74.1703 169.763C73.9475 169.985 73.7771 170.26 73.6461 170.561C73.515 170.875 73.4626 171.203 73.4626 171.556C73.4626 171.91 73.5281 172.263 73.6461 172.577ZM76.1101 169.828C76.5295 169.828 76.831 169.907 77.0276 170.077C77.2242 170.247 77.329 170.496 77.329 170.823C77.329 171.137 77.2373 171.373 77.0669 171.517C76.8965 171.661 76.6737 171.753 76.4116 171.779L77.4077 173.323H76.831L75.8873 171.831H75.3106V173.323H74.7732V169.841H76.1232L76.1101 169.828ZM75.8611 171.373C75.9791 171.373 76.097 171.373 76.215 171.373C76.3198 171.373 76.4247 171.347 76.5033 171.307C76.5951 171.268 76.6606 171.216 76.6999 171.137C76.7523 171.059 76.7786 170.954 76.7786 170.81C76.7786 170.692 76.7523 170.601 76.713 170.535C76.6737 170.47 76.6082 170.417 76.5426 170.378C76.4771 170.339 76.3854 170.313 76.2936 170.299C76.2019 170.286 76.1101 170.273 76.0184 170.273H75.2975V171.386H75.8611V171.373Z" fill="white"/>
</g>
<defs>
<clipPath id="clip0_35_2330">
<rect width="111" height="180" fill="white"/>
</clipPath>
</defs>
</svg>
