<svg width="180" height="247" viewBox="0 0 180 247" fill="none" xmlns="http://www.w3.org/2000/svg">
<g clip-path="url(#clip0_35_2259)">
<path d="M170.921 105.854C165.626 102.178 161.038 101.029 157.502 100.933C154.367 73.0524 143.377 45.4973 103.734 34.4867C57.859 21.7337 35.4379 55.3397 32.6472 80.0417C32.4751 81.5736 32.2649 83.1629 32.0164 84.8289C27.6583 84.1969 14.5841 82.9523 8.67776 89.4437C1.52898 97.3139 -2.14098 107.482 8.83067 118.205C13.5137 122.763 18.5408 124.792 22.7842 125.616C19.076 139.25 15.8074 149.743 15.8074 149.743C12.4815 160.869 3.24928 188.807 0.0762909 216.438C-0.898542 226.396 6.90012 232.466 18.2732 234.17C29.6462 235.893 35.9348 229.249 38.0183 223.083C38.6682 221.13 39.1652 218.277 39.5283 215.309C45.2818 218.564 54.3038 221.992 68.1617 223.715C84.256 225.726 97.9227 225.285 107.27 224.404C106.926 225.955 106.543 227.545 106.104 229.057C104.288 235.223 104.727 239.436 108.569 244.032C112.411 248.627 138.35 250.332 146.607 229.957C157.98 207.4 159.777 171.669 159.375 141.72C163.237 141.165 167.346 140.054 171.035 137.909C182.313 131.38 183.708 114.663 170.94 105.835" fill="#A9C1C6"/>
<path d="M121.338 44.8657C121.338 44.8657 96.4897 30.9254 77.8723 35.8274C59.274 40.7295 47.901 49.4997 44.8235 55.8954C41.7461 62.291 47.079 65.8527 49.0287 65.6995C50.9975 63.2102 61.0516 49.9401 75.2154 45.4976C89.3791 41.0551 92.6668 40.1359 121.338 44.8657Z" fill="#FFFDFA"/>
<path d="M44.9565 46.6081C42.7202 44.8464 38.8017 40.9401 33.3541 32.5146C24.485 18.7466 28.0021 0 28.0021 0C28.0021 0 18.4067 7.54462 17.9288 24.7402C17.5083 40.672 33.9658 57.5038 36.3551 59.8782C37.2343 57.6378 38.515 55.0719 40.35 52.3527C42.0129 49.8825 43.5612 48.0251 44.9374 46.6273" fill="#A3646A"/>
<path d="M136.114 48.006C136.114 48.006 145.289 44.6549 150.163 30.9827C155.037 17.3297 155.515 10.5318 155.266 3.17871C157.35 6.97017 170.692 22.4232 159.261 42.1082C147.85 61.7931 143.913 61.6208 143.913 61.6208C143.913 61.6208 142.078 54.1719 136.095 47.9868" fill="#A3646A"/>
<path d="M29.4932 98.5396C29.4932 98.5396 102.682 107.367 134.565 111.465C135.654 132.509 126.537 161.788 98.496 177.088C70.4361 192.388 51.8952 180.305 42.1278 151.486C32.3603 122.667 29.4932 98.5396 29.4932 98.5396Z" fill="#56585A"/>
<path d="M50.0604 115.946C57.9737 116.405 59.8661 108.267 60.191 102.274C51.7233 101.24 44.2879 100.34 38.8594 99.6885C39.4328 105.931 41.6883 115.467 50.0413 115.946" fill="#ECE0B2"/>
<path d="M61.9302 159.624C58.891 154.569 51.5893 158.897 46.7725 162.631C49.3529 167.648 52.3156 171.86 55.6798 175.173C59.1395 172.148 65.4472 165.465 61.9493 159.624" fill="#ECE0B2"/>
<path d="M95.61 163.894C89.9522 166.613 90.3727 175.288 91.4431 180.458C93.7368 179.539 96.0879 178.428 98.5154 177.107C102.205 175.096 105.55 172.837 108.589 170.405C106.964 167.896 101.765 160.945 95.61 163.894Z" fill="#ECE0B2"/>
<path d="M128.716 110.738C122.351 109.933 114.896 108.995 107.002 108.019C107.805 113.629 110.29 123.816 118.031 124.218C125.734 124.621 128.028 115.736 128.716 110.738Z" fill="#ECE0B2"/>
<path d="M39.9105 85.959C39.8722 87.6632 38.4769 89.0419 36.7757 89.0036C35.0745 88.9845 33.7174 87.5675 33.7365 85.8632C33.7556 84.159 35.1701 82.7994 36.8713 82.8186C38.5725 82.8377 39.9487 84.2547 39.9105 85.959Z" fill="#482B18"/>
<path d="M138.35 98.8266C138.312 100.531 136.916 101.91 135.215 101.871C133.514 101.852 132.157 100.435 132.176 98.7309C132.195 97.0266 133.61 95.6671 135.311 95.6862C137.012 95.7054 138.388 97.1224 138.35 98.8266Z" fill="#482B18"/>
<path d="M20.8156 148.978C20.8156 148.978 8.23831 183.235 4.74038 203.59C1.24245 223.945 5.63875 225.63 9.80568 226.147C13.9726 226.683 16.3046 226.262 16.3046 226.262C16.3046 226.262 10.1497 219.426 12.8258 198.094C15.5018 176.762 20.8347 148.978 20.8347 148.978" fill="#FFFDFA"/>
<path d="M9.72949 106.008L4.89355 101.278C4.89355 101.278 7.37842 93.7524 18.7324 89.7503C30.0863 85.7482 30.6788 87.5865 30.6788 87.5865C30.6788 87.5865 22.4597 90.1907 16.5342 95.5524C10.6279 100.914 9.71038 106.008 9.71038 106.008" fill="#FFFDFA"/>
<path d="M26.7219 81.5546C26.7219 81.5546 23.7401 81.3057 22.3256 81.2291C20.9112 81.1333 17.6617 81.4206 17.6617 81.4206C17.6617 81.4206 15.3871 78.261 14.0491 77.0163C13.6668 76.0398 13.8389 74.2206 14.5461 74.2972C14.8137 73.5887 14.9666 72.6887 15.4827 72.1143C16.0179 71.5398 16.878 70.5249 16.362 69.3951C15.865 68.2845 14.8137 68.5334 14.3167 68.2654C13.8006 67.9973 13.7624 66.2356 14.871 66.2547C15.9797 66.2547 18.9806 64.7037 18.9806 64.7037C18.9806 64.7037 21.0067 63.9569 20.9494 63.3058C20.8921 62.6548 21.4273 61.8314 21.0641 60.7782C20.6818 59.7441 19.8025 58.7484 19.8217 57.0633C19.8599 55.3782 18.5792 54.3825 18.713 53.4059C18.8659 52.4293 19.1526 50.5527 19.1526 50.5527C19.1526 50.5527 20.9876 53.5016 24.887 56.4889C28.7863 59.4761 31.0609 60.0888 31.0609 60.0888C31.0609 60.0888 28.5187 64.0143 27.8497 72.1717C27.1998 80.3291 26.9704 81.5737 26.9704 81.5737" fill="#4E5050"/>
<path d="M54.5522 31.1741L46.333 30.6763L46.1992 38.4698L51.1116 38.8719L60.1336 33.6443C60.1336 33.6443 64.0712 32.055 61.204 34.9847C58.2986 37.9719 56.3872 41.5145 57.0753 45.5166C57.0753 45.5166 57.6296 50.9165 58.9485 53.7314C60.4012 52.5825 63.5551 49.6527 63.5551 49.6527L70.5127 56.3165L85.1543 55.9718C85.1543 55.9718 86.5879 55.0143 86.2247 54.2292C85.8424 53.4441 82.5356 46.1293 82.5356 46.1293C82.5356 46.1293 81.7902 44.6932 83.0135 44.7123C84.2368 44.7315 89.3595 44.4251 89.8947 44.0229C90.4107 43.6208 91.1371 43.5634 91.1371 43.5634C91.1371 43.5634 90.4681 40.3655 90.621 39.4655C90.7739 38.5656 90.1814 35.1188 87.0466 32.323C83.9119 29.5465 81.1594 27.7465 81.1594 27.7465C81.1594 27.7465 94.291 25.1806 110.863 32.6486C127.454 40.1166 132.768 43.9081 132.768 43.9081L133.552 43.7932C133.552 43.7932 133.972 37.9528 134.049 37.7613C134.106 37.5698 135.693 32.5145 135.693 32.5145L125.409 31.9975L107.098 15.3764L105.76 22.0402L93.2779 0.631836C93.2779 0.631836 87.1613 10.4552 84.1986 13.4615C81.2359 16.4679 77.6041 20.2976 77.6041 20.2976L74.9855 17.8466C74.9855 17.8466 71.6213 17.1381 66.0399 18.3444C60.4585 19.5508 59.866 20.1253 59.866 20.1253L55.6608 8.31049C55.6608 8.31049 53.9405 6.26157 53.7494 9.84239C53.5583 13.4041 54.1508 24.3763 54.6095 28.0146C54.8389 29.6422 54.5522 31.1741 54.5522 31.1741Z" fill="#575658"/>
<path d="M157.674 56.4315C156.948 57.2932 153.641 60.8357 152.016 61.774C150.391 62.7123 149.359 63.2484 150.296 64.5122C151.233 65.7761 157.273 71.9611 160.331 81.9376C163.389 91.895 163.332 95.6673 163.332 95.6673L167.671 96.2418C167.671 96.2418 167.518 91.4546 167.556 89.0035C167.594 86.5525 166.983 83.6227 167.327 81.5355C167.652 79.4483 167.614 74.7377 167.614 74.7377C167.614 74.7377 165.664 70.3526 163.179 67.442C160.694 64.5314 156.604 62.7314 156.604 62.7314C156.604 62.7314 156.833 59.6293 157.559 58.9783C158.286 58.3272 159.069 57.1591 158.84 56.6038C158.611 56.0676 158.095 55.9336 157.674 56.4506" fill="#4D4F53"/>
<path d="M117.477 234.419C117.706 233.883 118.031 233.424 118.433 233.041C118.834 232.658 119.293 232.351 119.828 232.121C120.363 231.892 120.917 231.796 121.529 231.796C122.141 231.796 122.695 231.911 123.211 232.121C123.746 232.351 124.205 232.658 124.587 233.041C124.989 233.424 125.295 233.883 125.524 234.419C125.753 234.936 125.868 235.511 125.868 236.124C125.868 236.736 125.753 237.33 125.524 237.866C125.295 238.402 124.97 238.862 124.587 239.245C124.186 239.647 123.727 239.934 123.211 240.164C122.676 240.375 122.122 240.489 121.529 240.489C120.937 240.489 120.363 240.375 119.828 240.164C119.293 239.953 118.834 239.647 118.433 239.245C118.031 238.862 117.725 238.383 117.477 237.866C117.247 237.33 117.133 236.755 117.133 236.124C117.133 235.492 117.247 234.936 117.477 234.419ZM118.203 237.617C118.394 238.077 118.643 238.46 118.968 238.804C119.293 239.149 119.675 239.398 120.115 239.589C120.554 239.781 121.032 239.877 121.548 239.877C122.064 239.877 122.523 239.781 122.963 239.589C123.402 239.398 123.765 239.13 124.09 238.804C124.415 238.479 124.664 238.077 124.855 237.617C125.027 237.158 125.123 236.66 125.123 236.124C125.123 235.587 125.027 235.109 124.855 234.668C124.664 234.228 124.415 233.826 124.09 233.5C123.765 233.175 123.383 232.907 122.963 232.715C122.523 232.524 122.064 232.428 121.548 232.428C121.032 232.428 120.554 232.524 120.115 232.715C119.675 232.907 119.293 233.175 118.968 233.5C118.643 233.826 118.394 234.228 118.203 234.668C118.031 235.128 117.936 235.606 117.936 236.124C117.936 236.641 118.031 237.158 118.203 237.617ZM121.778 233.615C122.389 233.615 122.829 233.73 123.116 233.979C123.402 234.228 123.555 234.592 123.555 235.07C123.555 235.53 123.421 235.875 123.173 236.085C122.924 236.296 122.6 236.43 122.217 236.468L123.67 238.728H122.829L121.453 236.545H120.612V238.728H119.828V233.634H121.797L121.778 233.615ZM121.434 235.875C121.606 235.875 121.778 235.875 121.95 235.875C122.103 235.875 122.255 235.836 122.37 235.779C122.504 235.721 122.6 235.645 122.676 235.53C122.752 235.415 122.791 235.262 122.791 235.051C122.791 234.879 122.752 234.745 122.695 234.649C122.638 234.553 122.542 234.477 122.447 234.419C122.351 234.362 122.217 234.324 122.083 234.304C121.95 234.285 121.816 234.266 121.682 234.266H120.631V235.894H121.453L121.434 235.875Z" fill="white"/>
</g>
<defs>
<clipPath id="clip0_35_2259">
<rect width="180" height="247" fill="white"/>
</clipPath>
</defs>
</svg>
