<svg xmlns="http://www.w3.org/2000/svg" width="9" height="29" viewBox="0 0 9 29" fill="none">
  <path d="M4.14521 29.0001C2.89944 29.0001 1.89779 28.6317 1.13867 27.8964C0.379555 27.1611 0 26.1938 0 24.9961C0 24.1934 0.170089 23.4848 0.513424 22.8718C0.855184 22.2588 1.34026 21.7822 1.97023 21.442C2.59863 21.1018 3.32467 20.9309 4.14521 20.9309C4.96575 20.9309 5.69022 21.1018 6.3202 21.442C6.94859 21.7822 7.43839 22.2588 7.78803 22.8718C8.13766 23.4848 8.31091 24.1934 8.31091 24.9961C8.31091 26.1938 7.93135 27.1611 7.17223 27.8964C6.41311 28.6317 5.40358 29.0001 4.14521 29.0001Z" fill="#553CC8"/>
  <path d="M0.376728 0C0.310581 0 0.249159 0.0172451 0.175137 0.0987676C0.0948156 0.186561 0.0585938 0.274355 0.0585938 0.373122L0.674392 18.0322C0.674392 18.0902 0.686992 18.1654 0.787787 18.2595C0.869684 18.3363 0.951581 18.3724 1.04923 18.3724H7.1442C7.20248 18.3724 7.2954 18.3598 7.41037 18.2454C7.49541 18.1607 7.52219 18.098 7.51904 18.0698L8.17421 0.363716C8.18209 0.255542 8.15374 0.181858 8.08129 0.114445C8.00097 0.0376258 7.9175 0.00313548 7.82143 0.00313548H0.412953C0.401929 0.00313548 0.390904 0.00313548 0.378304 0.00313548L0.376728 0Z" fill="#553CC8"/>
</svg>
